<?xml version="1.0" encoding="UTF-8" standalone="no"?>
<!DOCTYPE svg PUBLIC "-//W3C//DTD SVG 1.1//EN" "http://www.w3.org/Graphics/SVG/1.1/DTD/svg11.dtd">
<svg xmlns="http://www.w3.org/2000/svg" version="1.1" viewBox="189 122 644 644">
<g stroke-width="2.00" fill="none" stroke-linecap="butt">
<path stroke="#818ca0" vector-effect="non-scaling-stroke" d="
  M 228.91 145.05
  L 228.80 146.26
  A 0.44 0.44 0.0 0 0 229.23 146.74
  Q 233.78 146.82 241.51 147.95
  Q 256.44 150.13 267.54 159.95
  Q 268.28 160.60 267.89 160.74"
/>
<path stroke="#eccd9b" vector-effect="non-scaling-stroke" d="
  M 267.89 160.74
  Q 269.55 163.91 271.75 166.75
  Q 272.73 168.04 275.62 174.59
  Q 277.50 178.86 278.08 182.88
  Q 279.64 193.74 279.75 199.76
  Q 279.98 212.13 279.94 248.75
  C 279.81 362.87 280.10 445.96 279.75 519.75
  Q 279.70 530.69 277.83 540.12
  Q 277.11 543.73 274.29 550.16
  A 1.08 0.28 -75.7 0 1 274.23 550.27
  L 268.48 559.44"
/>
<path stroke="#818ca0" vector-effect="non-scaling-stroke" d="
  M 268.48 559.44
  Q 262.31 565.08 254.23 567.74
  A 2.21 0.20 -7.0 0 1 253.26 567.95
  Q 252.02 568.17 251.01 568.89
  Q 250.22 569.45 248.11 569.58
  Q 246.03 569.71 244.12 570.07"
/>
<path stroke="#eccd9b" vector-effect="non-scaling-stroke" d="
  M 244.12 570.07
  Q 240.56 569.70 237.25 570.79
  A 1.46 1.41 40.9 0 1 236.47 570.83
  L 234.70 570.43
  A 0.69 0.69 0.0 0 0 233.86 571.10
  L 233.86 576.14
  A 0.35 0.35 0.0 0 0 234.21 576.49
  L 391.73 576.49
  A 0.66 0.66 0.0 0 0 392.39 575.83
  L 392.39 570.78
  A 0.63 0.63 0.0 0 0 391.79 570.15
  Q 384.49 569.80 376.78 567.82
  Q 375.79 567.56 371.15 565.26
  A 5.43 5.01 64.0 0 0 370.18 564.88
  C 365.18 563.45 359.47 558.90 355.88 555.28
  A 0.75 0.68 -87.1 0 1 355.79 555.17
  L 350.57 547.92"
/>
<path stroke="#818ca0" vector-effect="non-scaling-stroke" d="
  M 350.57 547.92
  Q 347.09 540.45 346.10 534.00
  Q 345.58 530.64 345.30 523.84
  Q 345.13 519.73 345.16 513.66
  Q 345.45 464.59 345.32 415.53"
/>
<path stroke="#fceac8" vector-effect="non-scaling-stroke" d="
  M 345.32 415.53
  L 345.79 379.27"
/>
<path stroke="#818ca0" vector-effect="non-scaling-stroke" d="
  M 345.79 379.27
  Q 346.14 378.18 348.48 376.94"
/>
<path stroke="#eccd9b" vector-effect="non-scaling-stroke" d="
  M 348.48 376.94
  Q 354.69 373.05 359.19 367.15
  A 3.68 3.57 -87.9 0 1 359.90 366.47
  Q 363.51 363.91 365.60 361.59
  Q 368.37 358.51 371.34 355.59
  Q 373.16 353.81 374.23 353.34
  A 1.81 1.80 -32.1 0 1 376.33 353.82
  Q 399.89 381.77 416.14 401.11
  Q 420.38 406.17 426.08 412.95
  Q 435.11 423.72 448.39 440.07
  C 450.21 442.31 452.65 444.47 454.24 446.62
  Q 461.82 456.81 471.10 467.31
  C 473.88 470.45 476.30 474.04 479.42 477.43
  C 485.27 483.78 490.81 491.29 495.55 496.76
  C 502.20 504.44 507.83 511.71 514.91 519.72
  Q 518.06 523.29 522.26 528.48
  Q 531.35 539.69 542.15 550.11
  Q 557.02 564.46 576.37 571.84
  Q 581.89 573.95 593.64 576.40
  Q 597.11 577.12 604.20 577.25
  Q 610.31 577.36 614.85 577.73
  C 619.29 578.10 623.09 577.58 627.50 577.60
  C 630.38 577.60 633.44 578.18 636.51 578.03
  Q 656.70 577.00 657.10 577.07
  A 0.59 0.59 0.0 0 0 657.79 576.55
  C 658.03 574.12 657.55 573.27 655.22 572.20
  Q 648.97 569.31 640.44 564.09
  Q 622.03 552.83 609.61 540.91
  Q 602.79 534.36 595.03 525.50
  Q 581.82 510.43 570.32 496.27
  Q 550.04 471.31 528.31 444.43
  C 527.47 443.39 526.25 442.41 525.59 441.45
  Q 522.34 436.67 519.36 433.12
  A 0.98 0.96 -53.3 0 1 519.22 432.10
  C 519.37 431.77 520.70 431.11 521.31 430.36
  Q 527.56 422.73 533.94 418.65
  Q 535.40 417.72 535.77 417.24
  A 1.99 0.45 -57.8 0 1 536.47 416.54
  L 546.07 410.45
  Q 550.35 407.10 553.15 406.48
  A 4.56 4.50 22.6 0 0 554.41 405.97
  Q 555.44 405.33 557.24 404.52
  Q 561.57 402.57 562.36 402.40
  Q 563.22 402.22 566.12 401.35
  Q 569.36 400.37 569.82 400.18
  Q 572.72 398.94 574.53 398.47
  A 2.99 2.97 39.5 0 1 575.61 398.37
  Q 579.04 398.66 582.19 397.18
  A 2.86 2.80 -58.0 0 1 583.30 396.91
  Q 587.87 396.70 591.94 395.47
  A 2.39 2.35 -53.6 0 1 592.51 395.38
  Q 614.15 394.80 618.82 395.43
  Q 624.96 396.27 628.00 396.07"
/>
<path stroke="#818ca0" vector-effect="non-scaling-stroke" d="
  M 628.00 396.07
  Q 653.21 400.16 672.15 417.34
  Q 676.85 421.60 678.05 423.45
  Q 680.11 426.65 682.39 429.53
  A 1.45 1.45 0.0 0 1 682.69 430.21
  Q 682.72 430.36 682.74 430.48
  A 2.33 2.26 -69.5 0 0 683.13 431.37
  Q 687.27 437.16 689.25 443.85"
/>
<path stroke="#eccd9b" vector-effect="non-scaling-stroke" d="
  M 689.25 443.85
  L 690.21 448.75
  A 1.11 1.11 0.0 0 0 691.30 449.64
  L 694.36 449.64
  A 0.91 0.91 0.0 0 0 695.27 448.76
  Q 695.86 431.34 695.49 417.28
  Q 695.42 414.36 695.03 394.22
  A 0.74 0.73 -81.8 0 0 694.52 393.53
  L 684.33 390.16
  A 1.39 1.13 -24.4 0 0 684.10 390.10
  Q 676.74 389.02 671.38 387.69
  Q 662.12 385.39 659.08 385.11
  C 652.92 384.52 644.94 384.03 638.05 382.88
  Q 634.48 382.29 629.74 382.08
  Q 613.36 381.36 595.41 382.25
  C 587.54 382.65 580.86 383.90 572.64 384.94
  C 564.89 385.92 558.42 387.57 551.73 388.83
  C 546.41 389.84 541.95 392.23 537.10 393.59
  Q 531.96 395.04 526.27 397.50
  Q 512.95 403.29 501.51 409.72
  A 1.02 1.02 0.0 0 1 500.24 409.51
  C 498.80 407.88 497.30 406.39 496.08 404.67
  Q 494.26 402.11 492.24 399.71
  Q 488.48 395.25 488.42 395.20
  Q 487.73 394.57 441.15 336.87
  Q 437.89 332.83 435.09 329.61
  C 429.74 323.45 425.23 317.45 420.19 311.84
  A 1.55 1.55 0.0 0 1 420.25 309.71
  Q 427.87 302.06 437.11 293.44
  Q 443.32 287.66 450.17 280.85
  Q 456.39 274.67 463.39 268.39
  C 464.40 267.48 465.82 264.59 467.84 263.76
  A 2.64 2.43 9.8 0 0 468.60 263.27
  Q 471.40 260.65 474.14 258.01
  Q 474.20 257.95 478.50 254.13
  Q 481.97 251.05 484.47 246.94"
/>
<path stroke="#818ca0" vector-effect="non-scaling-stroke" d="
  M 484.47 246.94
  Q 484.74 246.50 485.07 246.23"
/>
<path stroke="#fceac8" vector-effect="non-scaling-stroke" d="
  M 485.07 246.23
  Q 485.68 246.76 486.27 246.33
  C 490.85 243.05 494.86 237.91 499.53 234.38
  Q 500.86 233.38 503.93 230.08
  C 506.76 227.03 510.54 224.00 513.52 221.14
  Q 518.37 216.48 532.76 203.00
  A 3.06 2.79 -75.9 0 1 533.53 202.49
  Q 534.18 202.19 534.43 201.94
  C 537.11 199.18 540.04 197.08 542.65 194.49
  Q 546.98 190.20 548.69 188.67
  Q 559.18 179.32 570.47 169.23
  Q 570.55 169.16 571.64 168.34
  C 580.57 161.64 587.00 156.79 596.63 152.75
  C 601.82 150.57 609.59 148.92 615.98 147.03"
/>
<path stroke="#818ca0" vector-effect="non-scaling-stroke" d="
  M 615.98 147.03
  L 619.45 146.67"
/>
<path stroke="#eccd9b" vector-effect="non-scaling-stroke" d="
  M 619.45 146.67
  L 621.57 147.06
  A 0.71 0.71 0.0 0 0 622.41 146.36
  L 622.41 143.13
  A 0.77 0.76 -89.2 0 0 621.67 142.36
  Q 608.34 142.01 600.50 141.98
  Q 569.83 141.85 506.80 142.17
  Q 503.21 142.19 501.83 142.42
  Q 498.85 142.90 496.96 142.53
  A 0.60 0.60 0.0 0 0 496.25 143.09
  Q 496.23 143.70 496.65 144.56
  A 1.05 1.02 42.2 0 1 496.70 145.33
  L 496.49 145.97
  A 0.57 0.57 0.0 0 0 496.92 146.71
  Q 497.71 146.88 498.54 146.68"
/>
<path stroke="#818ca0" vector-effect="non-scaling-stroke" d="
  M 498.54 146.68
  C 505.05 148.01 511.02 150.05 515.19 155.45"
/>
<path stroke="#eccd9b" vector-effect="non-scaling-stroke" d="
  M 515.19 155.45
  Q 520.58 166.84 516.76 177.26
  Q 514.34 183.87 513.25 185.94
  Q 511.86 188.59 504.35 199.00
  Q 500.70 204.05 494.14 211.06
  Q 481.32 224.74 474.52 231.52
  Q 467.40 238.62 465.98 240.20
  C 462.87 243.66 458.76 246.74 455.87 250.19
  C 453.23 253.35 451.49 254.67 447.85 257.93
  C 443.26 262.03 439.12 266.67 434.06 271.37
  Q 431.68 273.56 426.34 279.00
  Q 420.68 284.77 417.42 287.67
  Q 416.51 288.48 414.97 289.96
  Q 412.23 292.56 400.72 304.23
  Q 377.59 327.65 349.65 354.75
  C 348.74 355.63 348.00 357.10 346.79 357.77
  A 0.32 0.32 0.0 0 1 346.32 357.45
  Q 346.41 356.75 345.77 355.62
  A 2.45 2.42 34.3 0 1 345.48 354.13
  C 346.14 348.54 346.08 342.93 345.84 336.05
  Q 345.68 331.62 345.69 321.94
  Q 345.70 282.83 345.34 243.71"
/>
<path stroke="#818ca0" vector-effect="non-scaling-stroke" d="
  M 345.34 243.71
  L 345.33 225.53"
/>
<path stroke="#eccd9b" vector-effect="non-scaling-stroke" d="
  M 345.33 225.53
  Q 346.16 208.36 345.41 191.21"
/>
<path stroke="#818ca0" vector-effect="non-scaling-stroke" d="
  M 345.41 191.21
  Q 345.40 180.53 348.95 170.69
  Q 350.87 165.36 353.78 161.62
  Q 357.31 157.11 361.22 154.50
  C 370.19 148.52 381.85 147.01 392.81 146.54"
/>
<path stroke="#eccd9b" vector-effect="non-scaling-stroke" d="
  M 392.81 146.54
  L 393.79 143.11
  A 0.60 0.60 0.0 0 0 393.21 142.35
  C 385.75 142.43 379.18 141.91 370.59 141.95
  Q 310.85 142.24 256.64 142.39
  C 249.13 142.40 241.49 141.57 233.99 142.47
  Q 231.47 142.77 228.88 142.63
  A 0.57 0.57 0.0 0 0 228.31 143.40
  L 228.91 145.05"
/>
<path stroke="#72644e" vector-effect="non-scaling-stroke" d="
  M 392.81 146.54
  Q 392.57 144.62 391.81 143.99
  A 0.57 0.52 -22.7 0 0 391.45 143.86
  L 229.89 143.67
  A 0.89 0.89 0.0 0 0 229.01 144.43
  L 228.91 145.05"
/>
<path stroke="#72644e" vector-effect="non-scaling-stroke" d="
  M 345.41 191.21
  Q 344.65 208.34 345.33 225.53"
/>
<path stroke="#72644e" vector-effect="non-scaling-stroke" d="
  M 345.34 243.71
  L 344.67 360.16
  A 0.48 0.47 -25.1 0 0 345.51 360.46
  Q 347.76 357.73 349.20 356.45
  Q 351.78 354.16 351.82 354.11
  C 364.69 341.91 380.10 326.42 393.18 313.75
  Q 411.31 296.20 422.09 285.34
  Q 429.31 278.06 455.53 252.53
  Q 475.35 233.24 494.18 212.94
  Q 506.98 199.15 513.95 187.46
  Q 514.40 186.72 514.79 185.26
  A 3.93 3.90 67.4 0 1 515.17 184.33
  Q 524.18 168.59 515.19 155.45"
/>
<path stroke="#82817c" vector-effect="non-scaling-stroke" d="
  M 615.98 147.03
  Q 598.39 147.94 584.72 156.97
  C 581.51 159.08 576.38 162.62 572.74 165.70
  Q 560.82 175.79 555.05 181.05
  Q 524.31 209.06 492.40 239.15
  Q 488.69 242.64 485.07 246.23"
/>
<path stroke="#72644e" vector-effect="non-scaling-stroke" d="
  M 484.47 246.94
  L 417.71 310.13
  A 0.70 0.69 52.5 0 0 417.60 311.01
  Q 419.45 313.97 421.68 316.65
  Q 452.75 354.00 497.70 410.77
  Q 509.32 425.44 521.29 439.85"
/>
<path stroke="#82817c" vector-effect="non-scaling-stroke" d="
  M 521.29 439.85
  Q 552.89 479.26 585.07 518.19
  C 598.58 534.53 613.19 549.55 630.93 561.32"
/>
<path stroke="#72644e" vector-effect="non-scaling-stroke" d="
  M 630.93 561.32
  Q 642.69 568.65 655.01 574.49
  A 0.66 0.66 0.0 0 1 654.75 575.75
  Q 647.99 576.03 628.75 576.76
  Q 613.95 577.32 605.79 576.44
  C 589.70 574.71 575.24 570.66 561.52 562.22
  Q 553.30 557.17 543.98 548.35"
/>
<path stroke="#82817c" vector-effect="non-scaling-stroke" d="
  M 543.98 548.35
  Q 538.82 543.53 537.38 541.87
  Q 531.10 534.65 524.91 527.36
  Q 502.79 501.30 481.02 474.97"
/>
<path stroke="#72644e" vector-effect="non-scaling-stroke" d="
  M 481.02 474.97
  Q 478.83 472.17 476.52 469.49
  Q 470.24 462.18 464.25 454.92
  A 144.58 11.37 50.1 0 0 451.14 439.23
  L 376.22 350.65
  A 0.70 0.70 0.0 0 0 375.20 350.60
  L 350.90 373.96
  A 1.76 0.39 -69.7 0 0 350.39 374.75
  Q 350.21 375.13 349.75 375.13
  Q 348.87 375.93 348.48 376.94"
/>
<path stroke="#82817c" vector-effect="non-scaling-stroke" d="
  M 345.79 379.27
  Q 344.85 381.05 344.86 383.75
  Q 344.92 399.64 345.32 415.53"
/>
<path stroke="#72644e" vector-effect="non-scaling-stroke" d="
  M 350.57 547.92
  Q 353.29 554.99 358.75 559.53
  Q 359.12 560.25 359.78 560.12
  A 0.44 0.43 -15.9 0 1 360.27 560.39
  C 361.39 563.26 369.53 566.58 372.71 567.72
  Q 379.05 570.01 390.29 571.15
  A 0.91 0.89 3.2 0 1 391.10 572.04
  L 391.10 574.16
  A 0.98 0.98 0.0 0 1 390.12 575.14
  L 235.66 575.14
  A 0.83 0.83 0.0 0 1 234.83 574.31
  L 234.83 572.26
  A 1.04 1.04 0.0 0 1 235.73 571.23
  L 244.12 570.07"
/>
<path stroke="#72644e" vector-effect="non-scaling-stroke" d="
  M 268.48 559.44
  Q 275.05 553.44 277.90 545.07
  Q 279.49 540.39 280.46 533.29
  Q 281.28 527.31 281.28 521.27
  Q 281.13 275.52 281.26 206.51
  Q 281.27 199.06 281.01 194.13
  Q 280.91 192.09 279.91 184.72
  Q 279.22 179.64 277.69 175.59
  Q 274.75 167.79 269.47 161.52
  A 1.54 1.53 -10.3 0 0 268.77 161.04
  L 267.89 160.74"
/>
<path stroke="#72644e" vector-effect="non-scaling-stroke" d="
  M 689.25 443.85
  Q 690.82 445.89 691.23 448.60
  A 0.30 0.29 85.4 0 0 691.52 448.85
  L 693.86 448.85
  A 0.10 0.10 0.0 0 0 693.96 448.75
  L 693.96 395.06
  A 0.82 0.82 0.0 0 0 693.35 394.27
  Q 668.94 387.73 649.86 385.59
  C 626.18 382.94 602.19 382.34 578.31 385.69
  Q 542.76 390.68 512.82 405.87
  Q 505.76 409.45 504.64 409.91
  A 0.98 0.97 -30.0 0 0 504.23 411.41
  L 518.68 430.09
  A 0.43 0.42 47.1 0 0 519.32 430.12
  Q 537.90 409.81 563.08 400.99
  Q 567.75 399.36 574.55 397.80
  Q 583.80 395.67 586.19 395.41
  Q 592.94 394.65 601.00 394.13
  Q 614.53 393.25 628.00 396.07"
/>
<path stroke="#edc277" vector-effect="non-scaling-stroke" d="
  M 481.02 474.97
  Q 480.49 474.80 480.33 474.94
  Q 479.89 475.34 480.27 475.80
  Q 493.73 492.07 512.99 515.13
  Q 513.40 515.62 518.45 521.86
  Q 522.06 526.32 526.12 530.55
  A 3.69 3.30 -86.8 0 1 526.60 531.15
  Q 527.38 532.34 528.32 533.40
  Q 534.23 540.05 540.62 546.88
  Q 543.41 549.85 543.98 548.35"
/>
<path stroke="#edc277" vector-effect="non-scaling-stroke" d="
  M 630.93 561.32
  L 631.95 561.11
  A 0.31 0.31 0.0 0 0 632.08 560.56
  Q 629.90 558.79 627.08 557.43
  A 4.28 4.09 -11.3 0 1 626.23 556.89
  Q 620.32 552.07 618.75 551.04
  C 616.13 549.31 614.15 546.65 611.66 544.60
  Q 608.72 542.19 606.39 539.70
  Q 598.97 531.77 591.66 524.32
  A 4.93 4.77 -83.3 0 1 590.95 523.39
  Q 589.27 520.61 586.98 518.77
  A 3.43 3.36 4.9 0 1 586.19 517.85
  C 584.61 515.04 582.31 513.03 580.12 510.21
  Q 572.77 500.77 560.43 486.19
  C 558.53 483.94 556.78 481.02 554.75 479.47
  A 2.53 2.42 5.9 0 1 554.07 478.67
  Q 552.85 476.35 550.48 474.27
  A 3.60 3.51 -85.2 0 1 549.73 473.36
  Q 548.29 470.90 546.39 469.39
  A 1.20 1.20 0.0 0 1 546.26 469.26
  L 541.30 462.91
  A 0.74 0.66 19.9 0 1 541.17 462.67
  Q 540.89 461.82 540.58 461.44
  Q 539.08 459.66 521.97 438.71
  A 0.35 0.35 0.0 0 0 521.36 439.00
  Q 521.45 439.47 521.29 439.85"
/>
<path stroke="#72644e" vector-effect="non-scaling-stroke" d="
  M 619.45 146.67
  L 621.24 146.31
  A 0.69 0.68 -85.6 0 0 621.77 145.85
  Q 622.09 144.93 620.99 144.02
  A 0.43 0.39 -23.5 0 0 620.73 143.93
  L 498.12 143.81
  A 1.23 1.23 0.0 0 0 496.95 145.41
  Q 497.36 146.71 498.54 146.68"
/>
<path stroke="#eccd9b" vector-effect="non-scaling-stroke" d="
  M 649.20 566.82
  L 663.28 573.62
  A 2.61 2.54 -34.5 0 0 664.68 573.86
  Q 671.18 573.09 680.07 570.85
  Q 718.24 561.24 745.01 535.98
  C 779.72 503.21 796.28 455.51 792.87 407.68
  C 789.18 356.08 764.45 306.75 720.91 277.64
  Q 708.74 269.50 699.99 265.32
  Q 685.37 258.35 663.03 252.64
  Q 659.06 251.63 656.60 251.26
  C 650.98 250.41 644.77 248.92 640.41 248.40
  Q 621.33 246.12 601.00 246.03
  Q 585.65 245.95 492.92 246.04
  A 1.04 1.04 0.0 0 0 491.88 247.08
  L 491.88 249.70
  A 1.27 1.26 5.2 0 0 492.92 250.94
  Q 500.43 252.25 505.90 254.93
  C 519.81 261.76 522.45 275.27 522.74 289.50
  C 523.03 304.00 522.98 326.04 523.54 346.56
  Q 523.94 361.20 523.52 371.20
  Q 522.94 384.95 522.84 390.97
  A 0.95 0.95 0.0 0 0 524.18 391.86
  C 536.17 386.56 544.76 384.54 560.82 380.47
  C 562.89 379.94 565.33 379.88 566.99 379.24
  A 1.87 1.87 0.0 0 0 568.19 377.54
  C 568.31 372.72 567.51 366.89 567.44 360.84
  Q 567.15 336.14 567.60 319.80
  C 568.29 294.70 568.09 282.94 568.13 255.54
  A 0.65 0.64 -1.4 0 1 568.75 254.90
  Q 585.14 254.25 602.61 254.94
  Q 622.21 255.72 636.20 259.17
  Q 669.85 267.46 694.48 291.30
  C 713.87 310.08 728.14 336.26 735.51 362.42
  Q 746.02 399.73 742.63 440.31
  C 742.42 442.85 741.90 445.33 741.51 448.96
  Q 739.34 469.26 731.05 491.33
  C 722.70 513.57 709.21 533.41 690.48 547.71
  C 678.23 557.06 664.26 562.96 649.33 565.79
  A 0.55 0.55 0.0 0 0 649.20 566.82"
/>
<path stroke="#fceac8" vector-effect="non-scaling-stroke" d="
  M 345.82 445.99
  A 0.22 0.22 0.0 0 0 345.60 445.77
  A 0.22 0.22 0.0 0 0 345.38 445.99
  L 345.38 470.01
  A 0.22 0.22 0.0 0 0 345.60 470.23
  A 0.22 0.22 0.0 0 0 345.82 470.01
  L 345.82 445.99"
/>
<path stroke="#818ca0" vector-effect="non-scaling-stroke" d="
  M 737.93 620.22
  Q 738.49 616.26 739.73 611.75
  Q 743.96 596.36 758.77 591.70
  Q 759.83 591.36 762.25 590.92
  Q 764.15 590.57 765.73 590.07"
/>
<path stroke="#eccd9b" vector-effect="non-scaling-stroke" d="
  M 765.73 590.07
  Q 767.40 590.53 768.73 590.17
  A 0.85 0.84 83.0 0 0 769.36 589.35
  L 769.36 586.71
  A 1.08 1.08 0.0 0 0 768.28 585.63
  C 736.76 585.82 707.58 585.11 678.41 585.44
  C 667.58 585.56 655.41 585.27 642.76 585.53
  C 638.30 585.62 634.62 585.15 630.74 585.49
  C 623.46 586.14 616.70 585.29 609.09 585.81
  Q 599.76 586.46 590.47 585.65
  A 0.52 0.52 0.0 0 0 589.90 586.17
  L 589.90 589.09
  A 0.71 0.70 -0.4 0 0 590.62 589.79
  L 601.57 589.60"
/>
<path stroke="#818ca0" vector-effect="non-scaling-stroke" d="
  M 601.57 589.60
  Q 613.40 589.90 625.31 590.08
  Q 639.53 590.30 653.37 593.41
  Q 659.11 594.70 665.74 598.04"
/>
<path stroke="#eccd9b" vector-effect="non-scaling-stroke" d="
  M 665.74 598.04
  Q 667.56 599.96 669.99 601.18
  A 2.98 2.80 -6.9 0 1 670.75 601.74
  Q 675.88 607.01 677.48 609.54
  Q 680.04 613.59 681.38 620.34
  Q 682.64 626.73 682.67 634.75
  Q 682.79 666.43 682.66 695.75
  Q 682.65 696.09 682.20 703.66
  A 1.27 1.26 -19.5 0 1 681.78 704.53
  Q 671.96 713.12 670.10 714.12
  Q 659.05 720.06 648.54 722.74
  Q 634.50 726.34 618.54 727.14
  C 615.23 727.30 611.04 726.70 607.43 726.68
  Q 604.04 726.66 599.14 725.76
  Q 585.67 723.27 581.80 722.37
  C 578.57 721.62 575.14 720.18 571.98 719.31
  Q 568.57 718.37 564.69 716.83
  Q 526.26 701.56 500.82 668.48
  Q 493.69 659.21 488.49 649.77
  Q 487.03 647.12 482.69 638.52
  C 477.73 628.69 474.78 619.01 471.52 607.55
  C 469.99 602.15 469.13 596.39 467.91 590.44
  Q 466.40 583.15 465.89 577.51
  C 464.45 561.64 464.05 545.01 466.89 529.44
  Q 469.68 514.17 469.71 513.97
  C 470.65 507.85 473.49 502.05 474.75 495.81
  A 2.45 1.73 -45.2 0 1 474.85 495.51
  L 479.64 484.26
  A 1.41 1.40 -53.7 0 0 479.42 482.80
  L 451.11 449.32
  A 0.60 0.59 47.9 0 0 450.25 449.27
  Q 447.57 451.83 445.45 454.21
  Q 413.20 490.35 405.42 538.20
  Q 404.61 543.16 403.25 556.81
  C 402.51 564.27 403.30 571.61 403.21 578.53
  C 403.14 583.27 404.31 587.30 404.78 592.22
  Q 405.26 597.29 406.31 602.44
  Q 413.73 638.97 435.27 667.74
  Q 464.81 707.22 510.46 727.77
  Q 526.27 734.89 549.88 740.61
  C 554.33 741.69 557.88 741.82 561.56 742.50
  Q 566.48 743.42 570.36 743.88
  Q 594.64 746.79 619.75 745.70
  Q 623.91 745.52 641.66 743.82
  C 645.58 743.44 649.12 742.44 652.94 741.94
  Q 657.57 741.35 661.40 740.47
  C 688.27 734.33 714.32 723.49 737.17 707.97
  A 0.97 0.97 0.0 0 0 737.59 707.17
  L 737.93 620.22"
/>
<path stroke="#72644e" vector-effect="non-scaling-stroke" d="
  M 665.74 598.04
  Q 676.71 602.67 680.84 613.94
  Q 683.08 620.07 683.50 624.19
  Q 684.09 629.94 684.10 642.25
  C 684.11 670.64 684.21 689.42 683.90 703.70
  A 2.31 2.31 0.0 0 1 683.29 705.21
  C 673.66 715.42 661.96 721.18 648.26 724.87
  Q 639.81 727.14 631.62 727.77
  Q 611.15 729.34 594.30 726.96
  Q 572.48 723.88 550.51 712.75
  Q 521.15 697.85 501.10 672.40
  C 483.08 649.51 471.27 622.47 466.27 593.88
  Q 460.25 559.48 465.95 524.05
  Q 468.77 506.54 474.50 492.20
  Q 475.98 488.48 477.48 485.48
  A 2.46 2.45 38.2 0 0 477.16 482.79
  L 451.02 451.89
  A 0.65 0.65 0.0 0 0 450.05 451.86
  C 431.09 472.00 418.17 495.95 411.09 522.91
  Q 409.02 530.80 408.52 533.52
  Q 405.55 549.87 405.23 565.88
  Q 405.04 575.08 406.52 585.51
  Q 408.57 600.03 409.63 604.92
  Q 413.72 623.95 423.98 644.97
  A 2.22 2.20 -84.1 0 0 424.59 645.73
  Q 425.09 646.12 425.26 646.50
  Q 427.17 650.80 427.64 651.61
  C 449.67 689.84 485.30 718.06 527.23 732.05
  Q 550.70 739.88 572.25 742.23
  Q 590.53 744.23 599.25 744.49
  C 613.44 744.92 625.16 743.93 638.86 742.34
  Q 662.21 739.63 684.91 731.65
  Q 711.92 722.14 736.02 706.68
  A 0.88 0.86 -16.8 0 0 736.42 705.95
  C 736.69 664.48 736.45 641.61 737.15 622.77
  Q 737.20 621.27 737.93 620.22"
/>
<path stroke="#72644e" vector-effect="non-scaling-stroke" d="
  M 601.57 589.60
  L 590.97 589.43
  A 0.36 0.36 0.0 0 1 590.62 589.07
  L 590.62 587.46
  A 0.37 0.36 -90.0 0 1 590.98 587.09
  Q 609.09 587.07 629.50 587.09
  Q 631.32 587.09 632.14 587.29
  A 3.03 3.00 -38.1 0 0 632.83 587.37
  L 767.61 587.32
  A 0.91 0.91 0.0 0 1 767.99 589.05
  L 765.73 590.07"
/>
<path stroke="#edc277" vector-effect="non-scaling-stroke" d="
  M 710.99 308.43
  Q 718.96 319.99 725.08 331.75
  C 727.43 336.25 728.61 339.79 730.48 343.76
  Q 732.19 347.37 734.08 352.97
  Q 746.47 389.66 744.88 428.53
  C 744.55 436.41 744.53 440.14 743.35 446.59
  Q 742.52 451.15 741.91 456.68
  A 0.56 0.55 89.6 0 0 742.52 457.29
  Q 764.54 454.68 786.76 448.21
  A 0.41 0.40 86.5 0 1 787.27 448.67
  Q 783.01 475.44 770.06 499.53
  A 0.24 0.23 33.8 0 0 770.12 499.81
  L 770.33 499.99
  A 0.43 0.43 0.0 0 0 770.98 499.87
  Q 789.83 465.66 791.64 427.48
  Q 793.65 384.76 775.79 345.19
  Q 758.59 307.06 725.27 282.50
  Q 724.62 282.02 723.80 282.04
  A 0.05 0.05 0.0 0 0 723.77 282.13
  L 739.02 295.09
  A 0.54 0.53 -36.3 0 1 738.88 295.99
  L 711.19 307.72
  A 0.47 0.47 0.0 0 0 710.99 308.43"
/>
</g>
<path fill="#dca549" d="
  M 392.81 146.54
  Q 392.57 144.62 391.81 143.99
  A 0.57 0.52 -22.7 0 0 391.45 143.86
  L 229.89 143.67
  A 0.89 0.89 0.0 0 0 229.01 144.43
  L 228.91 145.05
  L 228.31 143.40
  A 0.57 0.57 0.0 0 1 228.88 142.63
  Q 231.47 142.77 233.99 142.47
  C 241.49 141.57 249.13 142.40 256.64 142.39
  Q 310.85 142.24 370.59 141.95
  C 379.18 141.91 385.75 142.43 393.21 142.35
  A 0.60 0.60 0.0 0 1 393.79 143.11
  L 392.81 146.54
  Z"
/>
<path fill="#dca549" d="
  M 619.45 146.67
  L 621.24 146.31
  A 0.69 0.68 -85.6 0 0 621.77 145.85
  Q 622.09 144.93 620.99 144.02
  A 0.43 0.39 -23.5 0 0 620.73 143.93
  L 498.12 143.81
  A 1.23 1.23 0.0 0 0 496.95 145.41
  Q 497.36 146.71 498.54 146.68
  Q 497.71 146.88 496.92 146.71
  A 0.57 0.57 0.0 0 1 496.49 145.97
  L 496.70 145.33
  A 1.05 1.02 42.2 0 0 496.65 144.56
  Q 496.23 143.70 496.25 143.09
  A 0.60 0.60 0.0 0 1 496.96 142.53
  Q 498.85 142.90 501.83 142.42
  Q 503.21 142.19 506.80 142.17
  Q 569.83 141.85 600.50 141.98
  Q 608.34 142.01 621.67 142.36
  A 0.77 0.76 -89.2 0 1 622.41 143.13
  L 622.41 146.36
  A 0.71 0.71 0.0 0 1 621.57 147.06
  L 619.45 146.67
  Z"
/>
<path fill="#072353" d="
  M 392.81 146.54
  C 381.85 147.01 370.19 148.52 361.22 154.50
  Q 357.31 157.11 353.78 161.62
  Q 350.87 165.36 348.95 170.69
  Q 345.40 180.53 345.41 191.21
  Q 344.65 208.34 345.33 225.53
  L 345.34 243.71
  L 344.67 360.16
  A 0.48 0.47 -25.1 0 0 345.51 360.46
  Q 347.76 357.73 349.20 356.45
  Q 351.78 354.16 351.82 354.11
  C 364.69 341.91 380.10 326.42 393.18 313.75
  Q 411.31 296.20 422.09 285.34
  Q 429.31 278.06 455.53 252.53
  Q 475.35 233.24 494.18 212.94
  Q 506.98 199.15 513.95 187.46
  Q 514.40 186.72 514.79 185.26
  A 3.93 3.90 67.4 0 1 515.17 184.33
  Q 524.18 168.59 515.19 155.45
  C 511.02 150.05 505.05 148.01 498.54 146.68
  Q 497.36 146.71 496.95 145.41
  A 1.23 1.23 0.0 0 1 498.12 143.81
  L 620.73 143.93
  A 0.43 0.39 -23.5 0 1 620.99 144.02
  Q 622.09 144.93 621.77 145.85
  A 0.69 0.68 -85.6 0 1 621.24 146.31
  L 619.45 146.67
  L 615.98 147.03
  Q 598.39 147.94 584.72 156.97
  C 581.51 159.08 576.38 162.62 572.74 165.70
  Q 560.82 175.79 555.05 181.05
  Q 524.31 209.06 492.40 239.15
  Q 488.69 242.64 485.07 246.23
  Q 484.74 246.50 484.47 246.94
  L 417.71 310.13
  A 0.70 0.69 52.5 0 0 417.60 311.01
  Q 419.45 313.97 421.68 316.65
  Q 452.75 354.00 497.70 410.77
  Q 509.32 425.44 521.29 439.85
  Q 552.89 479.26 585.07 518.19
  C 598.58 534.53 613.19 549.55 630.93 561.32
  Q 642.69 568.65 655.01 574.49
  A 0.66 0.66 0.0 0 1 654.75 575.75
  Q 647.99 576.03 628.75 576.76
  Q 613.95 577.32 605.79 576.44
  C 589.70 574.71 575.24 570.66 561.52 562.22
  Q 553.30 557.17 543.98 548.35
  Q 538.82 543.53 537.38 541.87
  Q 531.10 534.65 524.91 527.36
  Q 502.79 501.30 481.02 474.97
  Q 478.83 472.17 476.52 469.49
  Q 470.24 462.18 464.25 454.92
  A 144.58 11.37 50.1 0 0 451.14 439.23
  L 376.22 350.65
  A 0.70 0.70 0.0 0 0 375.20 350.60
  L 350.90 373.96
  A 1.76 0.39 -69.7 0 0 350.39 374.75
  Q 350.21 375.13 349.75 375.13
  Q 348.87 375.93 348.48 376.94
  Q 346.14 378.18 345.79 379.27
  Q 344.85 381.05 344.86 383.75
  Q 344.92 399.64 345.32 415.53
  Q 345.45 464.59 345.16 513.66
  Q 345.13 519.73 345.30 523.84
  Q 345.58 530.64 346.10 534.00
  Q 347.09 540.45 350.57 547.92
  Q 353.29 554.99 358.75 559.53
  Q 359.12 560.25 359.78 560.12
  A 0.44 0.43 -15.9 0 1 360.27 560.39
  C 361.39 563.26 369.53 566.58 372.71 567.72
  Q 379.05 570.01 390.29 571.15
  A 0.91 0.89 3.2 0 1 391.10 572.04
  L 391.10 574.16
  A 0.98 0.98 0.0 0 1 390.12 575.14
  L 235.66 575.14
  A 0.83 0.83 0.0 0 1 234.83 574.31
  L 234.83 572.26
  A 1.04 1.04 0.0 0 1 235.73 571.23
  L 244.12 570.07
  Q 246.03 569.71 248.11 569.58
  Q 250.22 569.45 251.01 568.89
  Q 252.02 568.17 253.26 567.95
  A 2.21 0.20 -7.0 0 0 254.23 567.74
  Q 262.31 565.08 268.48 559.44
  Q 275.05 553.44 277.90 545.07
  Q 279.49 540.39 280.46 533.29
  Q 281.28 527.31 281.28 521.27
  Q 281.13 275.52 281.26 206.51
  Q 281.27 199.06 281.01 194.13
  Q 280.91 192.09 279.91 184.72
  Q 279.22 179.64 277.69 175.59
  Q 274.75 167.79 269.47 161.52
  A 1.54 1.53 -10.3 0 0 268.77 161.04
  L 267.89 160.74
  Q 268.28 160.60 267.54 159.95
  Q 256.44 150.13 241.51 147.95
  Q 233.78 146.82 229.23 146.74
  A 0.44 0.44 0.0 0 1 228.80 146.26
  L 228.91 145.05
  L 229.01 144.43
  A 0.89 0.89 0.0 0 1 229.89 143.67
  L 391.45 143.86
  A 0.57 0.52 -22.7 0 1 391.81 143.99
  Q 392.57 144.62 392.81 146.54
  Z"
/>
<path fill="#fddfa4" d="
  M 615.98 147.03
  C 609.59 148.92 601.82 150.57 596.63 152.75
  C 587.00 156.79 580.57 161.64 571.64 168.34
  Q 570.55 169.16 570.47 169.23
  Q 559.18 179.32 548.69 188.67
  Q 546.98 190.20 542.65 194.49
  C 540.04 197.08 537.11 199.18 534.43 201.94
  Q 534.18 202.19 533.53 202.49
  A 3.06 2.79 -75.9 0 0 532.76 203.00
  Q 518.37 216.48 513.52 221.14
  C 510.54 224.00 506.76 227.03 503.93 230.08
  Q 500.86 233.38 499.53 234.38
  C 494.86 237.91 490.85 243.05 486.27 246.33
  Q 485.68 246.76 485.07 246.23
  Q 488.69 242.64 492.40 239.15
  Q 524.31 209.06 555.05 181.05
  Q 560.82 175.79 572.74 165.70
  C 576.38 162.62 581.51 159.08 584.72 156.97
  Q 598.39 147.94 615.98 147.03
  Z"
/>
<path fill="#dca549" d="
  M 345.34 243.71
  Q 345.70 282.83 345.69 321.94
  Q 345.68 331.62 345.84 336.05
  C 346.08 342.93 346.14 348.54 345.48 354.13
  A 2.45 2.42 34.3 0 0 345.77 355.62
  Q 346.41 356.75 346.32 357.45
  A 0.32 0.32 0.0 0 0 346.79 357.77
  C 348.00 357.10 348.74 355.63 349.65 354.75
  Q 377.59 327.65 400.72 304.23
  Q 412.23 292.56 414.97 289.96
  Q 416.51 288.48 417.42 287.67
  Q 420.68 284.77 426.34 279.00
  Q 431.68 273.56 434.06 271.37
  C 439.12 266.67 443.26 262.03 447.85 257.93
  C 451.49 254.67 453.23 253.35 455.87 250.19
  C 458.76 246.74 462.87 243.66 465.98 240.20
  Q 467.40 238.62 474.52 231.52
  Q 481.32 224.74 494.14 211.06
  Q 500.70 204.05 504.35 199.00
  Q 511.86 188.59 513.25 185.94
  Q 514.34 183.87 516.76 177.26
  Q 520.58 166.84 515.19 155.45
  Q 524.18 168.59 515.17 184.33
  A 3.93 3.90 67.4 0 0 514.79 185.26
  Q 514.40 186.72 513.95 187.46
  Q 506.98 199.15 494.18 212.94
  Q 475.35 233.24 455.53 252.53
  Q 429.31 278.06 422.09 285.34
  Q 411.31 296.20 393.18 313.75
  C 380.10 326.42 364.69 341.91 351.82 354.11
  Q 351.78 354.16 349.20 356.45
  Q 347.76 357.73 345.51 360.46
  A 0.48 0.47 -25.1 0 1 344.67 360.16
  L 345.34 243.71
  Z"
/>
<path fill="#dca549" d="
  M 268.48 559.44
  L 274.23 550.27
  A 1.08 0.28 -75.7 0 0 274.29 550.16
  Q 277.11 543.73 277.83 540.12
  Q 279.70 530.69 279.75 519.75
  C 280.10 445.96 279.81 362.87 279.94 248.75
  Q 279.98 212.13 279.75 199.76
  Q 279.64 193.74 278.08 182.88
  Q 277.50 178.86 275.62 174.59
  Q 272.73 168.04 271.75 166.75
  Q 269.55 163.91 267.89 160.74
  L 268.77 161.04
  A 1.54 1.53 -10.3 0 1 269.47 161.52
  Q 274.75 167.79 277.69 175.59
  Q 279.22 179.64 279.91 184.72
  Q 280.91 192.09 281.01 194.13
  Q 281.27 199.06 281.26 206.51
  Q 281.13 275.52 281.28 521.27
  Q 281.28 527.31 280.46 533.29
  Q 279.49 540.39 277.90 545.07
  Q 275.05 553.44 268.48 559.44
  Z"
/>
<path fill="#dca549" d="
  M 345.41 191.21
  Q 346.16 208.36 345.33 225.53
  Q 344.65 208.34 345.41 191.21
  Z"
/>
<path fill="#dca549" d="
  M 649.20 566.82
  A 0.55 0.55 0.0 0 1 649.33 565.79
  C 664.26 562.96 678.23 557.06 690.48 547.71
  C 709.21 533.41 722.70 513.57 731.05 491.33
  Q 739.34 469.26 741.51 448.96
  C 741.90 445.33 742.42 442.85 742.63 440.31
  Q 746.02 399.73 735.51 362.42
  C 728.14 336.26 713.87 310.08 694.48 291.30
  Q 669.85 267.46 636.20 259.17
  Q 622.21 255.72 602.61 254.94
  Q 585.14 254.25 568.75 254.90
  A 0.65 0.64 -1.4 0 0 568.13 255.54
  C 568.09 282.94 568.29 294.70 567.60 319.80
  Q 567.15 336.14 567.44 360.84
  C 567.51 366.89 568.31 372.72 568.19 377.54
  A 1.87 1.87 0.0 0 1 566.99 379.24
  C 565.33 379.88 562.89 379.94 560.82 380.47
  C 544.76 384.54 536.17 386.56 524.18 391.86
  A 0.95 0.95 0.0 0 1 522.84 390.97
  Q 522.94 384.95 523.52 371.20
  Q 523.94 361.20 523.54 346.56
  C 522.98 326.04 523.03 304.00 522.74 289.50
  C 522.45 275.27 519.81 261.76 505.90 254.93
  Q 500.43 252.25 492.92 250.94
  A 1.27 1.26 5.2 0 1 491.88 249.70
  L 491.88 247.08
  A 1.04 1.04 0.0 0 1 492.92 246.04
  Q 585.65 245.95 601.00 246.03
  Q 621.33 246.12 640.41 248.40
  C 644.77 248.92 650.98 250.41 656.60 251.26
  Q 659.06 251.63 663.03 252.64
  Q 685.37 258.35 699.99 265.32
  Q 708.74 269.50 720.91 277.64
  C 764.45 306.75 789.18 356.08 792.87 407.68
  C 796.28 455.51 779.72 503.21 745.01 535.98
  Q 718.24 561.24 680.07 570.85
  Q 671.18 573.09 664.68 573.86
  A 2.61 2.54 -34.5 0 1 663.28 573.62
  L 649.20 566.82
  Z
  M 710.99 308.43
  Q 718.96 319.99 725.08 331.75
  C 727.43 336.25 728.61 339.79 730.48 343.76
  Q 732.19 347.37 734.08 352.97
  Q 746.47 389.66 744.88 428.53
  C 744.55 436.41 744.53 440.14 743.35 446.59
  Q 742.52 451.15 741.91 456.68
  A 0.56 0.55 89.6 0 0 742.52 457.29
  Q 764.54 454.68 786.76 448.21
  A 0.41 0.40 86.5 0 1 787.27 448.67
  Q 783.01 475.44 770.06 499.53
  A 0.24 0.23 33.8 0 0 770.12 499.81
  L 770.33 499.99
  A 0.43 0.43 0.0 0 0 770.98 499.87
  Q 789.83 465.66 791.64 427.48
  Q 793.65 384.76 775.79 345.19
  Q 758.59 307.06 725.27 282.50
  Q 724.62 282.02 723.80 282.04
  A 0.05 0.05 0.0 0 0 723.77 282.13
  L 739.02 295.09
  A 0.54 0.53 -36.3 0 1 738.88 295.99
  L 711.19 307.72
  A 0.47 0.47 0.0 0 0 710.99 308.43
  Z"
/>
<path fill="#dca549" d="
  M 484.47 246.94
  Q 481.97 251.05 478.50 254.13
  Q 474.20 257.95 474.14 258.01
  Q 471.40 260.65 468.60 263.27
  A 2.64 2.43 9.8 0 1 467.84 263.76
  C 465.82 264.59 464.40 267.48 463.39 268.39
  Q 456.39 274.67 450.17 280.85
  Q 443.32 287.66 437.11 293.44
  Q 427.87 302.06 420.25 309.71
  A 1.55 1.55 0.0 0 0 420.19 311.84
  C 425.23 317.45 429.74 323.45 435.09 329.61
  Q 437.89 332.83 441.15 336.87
  Q 487.73 394.57 488.42 395.20
  Q 488.48 395.25 492.24 399.71
  Q 494.26 402.11 496.08 404.67
  C 497.30 406.39 498.80 407.88 500.24 409.51
  A 1.02 1.02 0.0 0 0 501.51 409.72
  Q 512.95 403.29 526.27 397.50
  Q 531.96 395.04 537.10 393.59
  C 541.95 392.23 546.41 389.84 551.73 388.83
  C 558.42 387.57 564.89 385.92 572.64 384.94
  C 580.86 383.90 587.54 382.65 595.41 382.25
  Q 613.36 381.36 629.74 382.08
  Q 634.48 382.29 638.05 382.88
  C 644.94 384.03 652.92 384.52 659.08 385.11
  Q 662.12 385.39 671.38 387.69
  Q 676.74 389.02 684.10 390.10
  A 1.39 1.13 -24.4 0 1 684.33 390.16
  L 694.52 393.53
  A 0.74 0.73 -81.8 0 1 695.03 394.22
  Q 695.42 414.36 695.49 417.28
  Q 695.86 431.34 695.27 448.76
  A 0.91 0.91 0.0 0 1 694.36 449.64
  L 691.30 449.64
  A 1.11 1.11 0.0 0 1 690.21 448.75
  L 689.25 443.85
  Q 690.82 445.89 691.23 448.60
  A 0.30 0.29 85.4 0 0 691.52 448.85
  L 693.86 448.85
  A 0.10 0.10 0.0 0 0 693.96 448.75
  L 693.96 395.06
  A 0.82 0.82 0.0 0 0 693.35 394.27
  Q 668.94 387.73 649.86 385.59
  C 626.18 382.94 602.19 382.34 578.31 385.69
  Q 542.76 390.68 512.82 405.87
  Q 505.76 409.45 504.64 409.91
  A 0.98 0.97 -30.0 0 0 504.23 411.41
  L 518.68 430.09
  A 0.43 0.42 47.1 0 0 519.32 430.12
  Q 537.90 409.81 563.08 400.99
  Q 567.75 399.36 574.55 397.80
  Q 583.80 395.67 586.19 395.41
  Q 592.94 394.65 601.00 394.13
  Q 614.53 393.25 628.00 396.07
  Q 624.96 396.27 618.82 395.43
  Q 614.15 394.80 592.51 395.38
  A 2.39 2.35 -53.6 0 0 591.94 395.47
  Q 587.87 396.70 583.30 396.91
  A 2.86 2.80 -58.0 0 0 582.19 397.18
  Q 579.04 398.66 575.61 398.37
  A 2.99 2.97 39.5 0 0 574.53 398.47
  Q 572.72 398.94 569.82 400.18
  Q 569.36 400.37 566.12 401.35
  Q 563.22 402.22 562.36 402.40
  Q 561.57 402.57 557.24 404.52
  Q 555.44 405.33 554.41 405.97
  A 4.56 4.50 22.6 0 1 553.15 406.48
  Q 550.35 407.10 546.07 410.45
  L 536.47 416.54
  A 1.99 0.45 -57.8 0 0 535.77 417.24
  Q 535.40 417.72 533.94 418.65
  Q 527.56 422.73 521.31 430.36
  C 520.70 431.11 519.37 431.77 519.22 432.10
  A 0.98 0.96 -53.3 0 0 519.36 433.12
  Q 522.34 436.67 525.59 441.45
  C 526.25 442.41 527.47 443.39 528.31 444.43
  Q 550.04 471.31 570.32 496.27
  Q 581.82 510.43 595.03 525.50
  Q 602.79 534.36 609.61 540.91
  Q 622.03 552.83 640.44 564.09
  Q 648.97 569.31 655.22 572.20
  C 657.55 573.27 658.03 574.12 657.79 576.55
  A 0.59 0.59 0.0 0 1 657.10 577.07
  Q 656.70 577.00 636.51 578.03
  C 633.44 578.18 630.38 577.60 627.50 577.60
  C 623.09 577.58 619.29 578.10 614.85 577.73
  Q 610.31 577.36 604.20 577.25
  Q 597.11 577.12 593.64 576.40
  Q 581.89 573.95 576.37 571.84
  Q 557.02 564.46 542.15 550.11
  Q 531.35 539.69 522.26 528.48
  Q 518.06 523.29 514.91 519.72
  C 507.83 511.71 502.20 504.44 495.55 496.76
  C 490.81 491.29 485.27 483.78 479.42 477.43
  C 476.30 474.04 473.88 470.45 471.10 467.31
  Q 461.82 456.81 454.24 446.62
  C 452.65 444.47 450.21 442.31 448.39 440.07
  Q 435.11 423.72 426.08 412.95
  Q 420.38 406.17 416.14 401.11
  Q 399.89 381.77 376.33 353.82
  A 1.81 1.80 -32.1 0 0 374.23 353.34
  Q 373.16 353.81 371.34 355.59
  Q 368.37 358.51 365.60 361.59
  Q 363.51 363.91 359.90 366.47
  A 3.68 3.57 -87.9 0 0 359.19 367.15
  Q 354.69 373.05 348.48 376.94
  Q 348.87 375.93 349.75 375.13
  Q 350.21 375.13 350.39 374.75
  A 1.76 0.39 -69.7 0 1 350.90 373.96
  L 375.20 350.60
  A 0.70 0.70 0.0 0 1 376.22 350.65
  L 451.14 439.23
  A 144.58 11.37 50.1 0 1 464.25 454.92
  Q 470.24 462.18 476.52 469.49
  Q 478.83 472.17 481.02 474.97
  Q 480.49 474.80 480.33 474.94
  Q 479.89 475.34 480.27 475.80
  Q 493.73 492.07 512.99 515.13
  Q 513.40 515.62 518.45 521.86
  Q 522.06 526.32 526.12 530.55
  A 3.69 3.30 -86.8 0 1 526.60 531.15
  Q 527.38 532.34 528.32 533.40
  Q 534.23 540.05 540.62 546.88
  Q 543.41 549.85 543.98 548.35
  Q 553.30 557.17 561.52 562.22
  C 575.24 570.66 589.70 574.71 605.79 576.44
  Q 613.95 577.32 628.75 576.76
  Q 647.99 576.03 654.75 575.75
  A 0.66 0.66 0.0 0 0 655.01 574.49
  Q 642.69 568.65 630.93 561.32
  L 631.95 561.11
  A 0.31 0.31 0.0 0 0 632.08 560.56
  Q 629.90 558.79 627.08 557.43
  A 4.28 4.09 -11.3 0 1 626.23 556.89
  Q 620.32 552.07 618.75 551.04
  C 616.13 549.31 614.15 546.65 611.66 544.60
  Q 608.72 542.19 606.39 539.70
  Q 598.97 531.77 591.66 524.32
  A 4.93 4.77 -83.3 0 1 590.95 523.39
  Q 589.27 520.61 586.98 518.77
  A 3.43 3.36 4.9 0 1 586.19 517.85
  C 584.61 515.04 582.31 513.03 580.12 510.21
  Q 572.77 500.77 560.43 486.19
  C 558.53 483.94 556.78 481.02 554.75 479.47
  A 2.53 2.42 5.9 0 1 554.07 478.67
  Q 552.85 476.35 550.48 474.27
  A 3.60 3.51 -85.2 0 1 549.73 473.36
  Q 548.29 470.90 546.39 469.39
  A 1.20 1.20 0.0 0 1 546.26 469.26
  L 541.30 462.91
  A 0.74 0.66 19.9 0 1 541.17 462.67
  Q 540.89 461.82 540.58 461.44
  Q 539.08 459.66 521.97 438.71
  A 0.35 0.35 0.0 0 0 521.36 439.00
  Q 521.45 439.47 521.29 439.85
  Q 509.32 425.44 497.70 410.77
  Q 452.75 354.00 421.68 316.65
  Q 419.45 313.97 417.60 311.01
  A 0.70 0.69 52.5 0 1 417.71 310.13
  L 484.47 246.94
  Z"
/>
<path fill="#fddfa4" d="
  M 711.19 307.72
  L 738.88 295.99
  A 0.54 0.53 -36.3 0 0 739.02 295.09
  L 723.77 282.13
  A 0.05 0.05 0.0 0 1 723.80 282.04
  Q 724.62 282.02 725.27 282.50
  Q 758.59 307.06 775.79 345.19
  Q 793.65 384.76 791.64 427.48
  Q 789.83 465.66 770.98 499.87
  A 0.43 0.43 0.0 0 1 770.33 499.99
  L 770.12 499.81
  A 0.24 0.23 33.8 0 1 770.06 499.53
  Q 783.01 475.44 787.27 448.67
  A 0.41 0.40 86.5 0 0 786.76 448.21
  Q 764.54 454.68 742.52 457.29
  A 0.56 0.55 89.6 0 1 741.91 456.68
  Q 742.52 451.15 743.35 446.59
  C 744.53 440.14 744.55 436.41 744.88 428.53
  Q 746.47 389.66 734.08 352.97
  Q 732.19 347.37 730.48 343.76
  C 728.61 339.79 727.43 336.25 725.08 331.75
  Q 718.96 319.99 710.99 308.43
  A 0.47 0.47 0.0 0 1 711.19 307.72
  Z"
/>
<path fill="#fddfa4" d="
  M 345.79 379.27
  L 345.32 415.53
  Q 344.92 399.64 344.86 383.75
  Q 344.85 381.05 345.79 379.27
  Z"
/>
<path fill="#072353" d="
  M 689.25 443.85
  Q 687.27 437.16 683.13 431.37
  A 2.33 2.26 -69.5 0 1 682.74 430.48
  Q 682.72 430.36 682.69 430.21
  A 1.45 1.45 0.0 0 0 682.39 429.53
  Q 680.11 426.65 678.05 423.45
  Q 676.85 421.60 672.15 417.34
  Q 653.21 400.16 628.00 396.07
  Q 614.53 393.25 601.00 394.13
  Q 592.94 394.65 586.19 395.41
  Q 583.80 395.67 574.55 397.80
  Q 567.75 399.36 563.08 400.99
  Q 537.90 409.81 519.32 430.12
  A 0.43 0.42 47.1 0 1 518.68 430.09
  L 504.23 411.41
  A 0.98 0.97 -30.0 0 1 504.64 409.91
  Q 505.76 409.45 512.82 405.87
  Q 542.76 390.68 578.31 385.69
  C 602.19 382.34 626.18 382.94 649.86 385.59
  Q 668.94 387.73 693.35 394.27
  A 0.82 0.82 0.0 0 1 693.96 395.06
  L 693.96 448.75
  A 0.10 0.10 0.0 0 1 693.86 448.85
  L 691.52 448.85
  A 0.30 0.29 85.4 0 1 691.23 448.60
  Q 690.82 445.89 689.25 443.85
  Z"
/>
<path fill="#fddfa4" d="
  M 630.93 561.32
  C 613.19 549.55 598.58 534.53 585.07 518.19
  Q 552.89 479.26 521.29 439.85
  Q 521.45 439.47 521.36 439.00
  A 0.35 0.35 0.0 0 1 521.97 438.71
  Q 539.08 459.66 540.58 461.44
  Q 540.89 461.82 541.17 462.67
  A 0.74 0.66 19.9 0 0 541.30 462.91
  L 546.26 469.26
  A 1.20 1.20 0.0 0 0 546.39 469.39
  Q 548.29 470.90 549.73 473.36
  A 3.60 3.51 -85.2 0 0 550.48 474.27
  Q 552.85 476.35 554.07 478.67
  A 2.53 2.42 5.9 0 0 554.75 479.47
  C 556.78 481.02 558.53 483.94 560.43 486.19
  Q 572.77 500.77 580.12 510.21
  C 582.31 513.03 584.61 515.04 586.19 517.85
  A 3.43 3.36 4.9 0 0 586.98 518.77
  Q 589.27 520.61 590.95 523.39
  A 4.93 4.77 -83.3 0 0 591.66 524.32
  Q 598.97 531.77 606.39 539.70
  Q 608.72 542.19 611.66 544.60
  C 614.15 546.65 616.13 549.31 618.75 551.04
  Q 620.32 552.07 626.23 556.89
  A 4.28 4.09 -11.3 0 0 627.08 557.43
  Q 629.90 558.79 632.08 560.56
  A 0.31 0.31 0.0 0 1 631.95 561.11
  L 630.93 561.32
  Z"
/>
<rect fill="#fddfa4" x="345.38" y="445.77" width="0.44" height="24.46" rx="0.22"/>
<path fill="#dca549" d="
  M 665.74 598.04
  Q 676.71 602.67 680.84 613.94
  Q 683.08 620.07 683.50 624.19
  Q 684.09 629.94 684.10 642.25
  C 684.11 670.64 684.21 689.42 683.90 703.70
  A 2.31 2.31 0.0 0 1 683.29 705.21
  C 673.66 715.42 661.96 721.18 648.26 724.87
  Q 639.81 727.14 631.62 727.77
  Q 611.15 729.34 594.30 726.96
  Q 572.48 723.88 550.51 712.75
  Q 521.15 697.85 501.10 672.40
  C 483.08 649.51 471.27 622.47 466.27 593.88
  Q 460.25 559.48 465.95 524.05
  Q 468.77 506.54 474.50 492.20
  Q 475.98 488.48 477.48 485.48
  A 2.46 2.45 38.2 0 0 477.16 482.79
  L 451.02 451.89
  A 0.65 0.65 0.0 0 0 450.05 451.86
  C 431.09 472.00 418.17 495.95 411.09 522.91
  Q 409.02 530.80 408.52 533.52
  Q 405.55 549.87 405.23 565.88
  Q 405.04 575.08 406.52 585.51
  Q 408.57 600.03 409.63 604.92
  Q 413.72 623.95 423.98 644.97
  A 2.22 2.20 -84.1 0 0 424.59 645.73
  Q 425.09 646.12 425.26 646.50
  Q 427.17 650.80 427.64 651.61
  C 449.67 689.84 485.30 718.06 527.23 732.05
  Q 550.70 739.88 572.25 742.23
  Q 590.53 744.23 599.25 744.49
  C 613.44 744.92 625.16 743.93 638.86 742.34
  Q 662.21 739.63 684.91 731.65
  Q 711.92 722.14 736.02 706.68
  A 0.88 0.86 -16.8 0 0 736.42 705.95
  C 736.69 664.48 736.45 641.61 737.15 622.77
  Q 737.20 621.27 737.93 620.22
  L 737.59 707.17
  A 0.97 0.97 0.0 0 1 737.17 707.97
  C 714.32 723.49 688.27 734.33 661.40 740.47
  Q 657.57 741.35 652.94 741.94
  C 649.12 742.44 645.58 743.44 641.66 743.82
  Q 623.91 745.52 619.75 745.70
  Q 594.64 746.79 570.36 743.88
  Q 566.48 743.42 561.56 742.50
  C 557.88 741.82 554.33 741.69 549.88 740.61
  Q 526.27 734.89 510.46 727.77
  Q 464.81 707.22 435.27 667.74
  Q 413.73 638.97 406.31 602.44
  Q 405.26 597.29 404.78 592.22
  C 404.31 587.30 403.14 583.27 403.21 578.53
  C 403.30 571.61 402.51 564.27 403.25 556.81
  Q 404.61 543.16 405.42 538.20
  Q 413.20 490.35 445.45 454.21
  Q 447.57 451.83 450.25 449.27
  A 0.60 0.59 47.9 0 1 451.11 449.32
  L 479.42 482.80
  A 1.41 1.40 -53.7 0 1 479.64 484.26
  L 474.85 495.51
  A 2.45 1.73 -45.2 0 0 474.75 495.81
  C 473.49 502.05 470.65 507.85 469.71 513.97
  Q 469.68 514.17 466.89 529.44
  C 464.05 545.01 464.45 561.64 465.89 577.51
  Q 466.40 583.15 467.91 590.44
  C 469.13 596.39 469.99 602.15 471.52 607.55
  C 474.78 619.01 477.73 628.69 482.69 638.52
  Q 487.03 647.12 488.49 649.77
  Q 493.69 659.21 500.82 668.48
  Q 526.26 701.56 564.69 716.83
  Q 568.57 718.37 571.98 719.31
  C 575.14 720.18 578.57 721.62 581.80 722.37
  Q 585.67 723.27 599.14 725.76
  Q 604.04 726.66 607.43 726.68
  C 611.04 726.70 615.23 727.30 618.54 727.14
  Q 634.50 726.34 648.54 722.74
  Q 659.05 720.06 670.10 714.12
  Q 671.96 713.12 681.78 704.53
  A 1.27 1.26 -19.5 0 0 682.20 703.66
  Q 682.65 696.09 682.66 695.75
  Q 682.79 666.43 682.67 634.75
  Q 682.64 626.73 681.38 620.34
  Q 680.04 613.59 677.48 609.54
  Q 675.88 607.01 670.75 601.74
  A 2.98 2.80 -6.9 0 0 669.99 601.18
  Q 667.56 599.96 665.74 598.04
  Z"
/>
<path fill="#072353" d="
  M 665.74 598.04
  Q 659.11 594.70 653.37 593.41
  Q 639.53 590.30 625.31 590.08
  Q 613.40 589.90 601.57 589.60
  L 590.97 589.43
  A 0.36 0.36 0.0 0 1 590.62 589.07
  L 590.62 587.46
  A 0.37 0.36 -90.0 0 1 590.98 587.09
  Q 609.09 587.07 629.50 587.09
  Q 631.32 587.09 632.14 587.29
  A 3.03 3.00 -38.1 0 0 632.83 587.37
  L 767.61 587.32
  A 0.91 0.91 0.0 0 1 767.99 589.05
  L 765.73 590.07
  Q 764.15 590.57 762.25 590.92
  Q 759.83 591.36 758.77 591.70
  Q 743.96 596.36 739.73 611.75
  Q 738.49 616.26 737.93 620.22
  Q 737.20 621.27 737.15 622.77
  C 736.45 641.61 736.69 664.48 736.42 705.95
  A 0.88 0.86 -16.8 0 1 736.02 706.68
  Q 711.92 722.14 684.91 731.65
  Q 662.21 739.63 638.86 742.34
  C 625.16 743.93 613.44 744.92 599.25 744.49
  Q 590.53 744.23 572.25 742.23
  Q 550.70 739.88 527.23 732.05
  C 485.30 718.06 449.67 689.84 427.64 651.61
  Q 427.17 650.80 425.26 646.50
  Q 425.09 646.12 424.59 645.73
  A 2.22 2.20 -84.1 0 1 423.98 644.97
  Q 413.72 623.95 409.63 604.92
  Q 408.57 600.03 406.52 585.51
  Q 405.04 575.08 405.23 565.88
  Q 405.55 549.87 408.52 533.52
  Q 409.02 530.80 411.09 522.91
  C 418.17 495.95 431.09 472.00 450.05 451.86
  A 0.65 0.65 0.0 0 1 451.02 451.89
  L 477.16 482.79
  A 2.46 2.45 38.2 0 1 477.48 485.48
  Q 475.98 488.48 474.50 492.20
  Q 468.77 506.54 465.95 524.05
  Q 460.25 559.48 466.27 593.88
  C 471.27 622.47 483.08 649.51 501.10 672.40
  Q 521.15 697.85 550.51 712.75
  Q 572.48 723.88 594.30 726.96
  Q 611.15 729.34 631.62 727.77
  Q 639.81 727.14 648.26 724.87
  C 661.96 721.18 673.66 715.42 683.29 705.21
  A 2.31 2.31 0.0 0 0 683.90 703.70
  C 684.21 689.42 684.11 670.64 684.10 642.25
  Q 684.09 629.94 683.50 624.19
  Q 683.08 620.07 680.84 613.94
  Q 676.71 602.67 665.74 598.04
  Z"
/>
<path fill="#fddfa4" d="
  M 481.02 474.97
  Q 502.79 501.30 524.91 527.36
  Q 531.10 534.65 537.38 541.87
  Q 538.82 543.53 543.98 548.35
  Q 543.41 549.85 540.62 546.88
  Q 534.23 540.05 528.32 533.40
  Q 527.38 532.34 526.60 531.15
  A 3.69 3.30 -86.8 0 0 526.12 530.55
  Q 522.06 526.32 518.45 521.86
  Q 513.40 515.62 512.99 515.13
  Q 493.73 492.07 480.27 475.80
  Q 479.89 475.34 480.33 474.94
  Q 480.49 474.80 481.02 474.97
  Z"
/>
<path fill="#dca549" d="
  M 244.12 570.07
  L 235.73 571.23
  A 1.04 1.04 0.0 0 0 234.83 572.26
  L 234.83 574.31
  A 0.83 0.83 0.0 0 0 235.66 575.14
  L 390.12 575.14
  A 0.98 0.98 0.0 0 0 391.10 574.16
  L 391.10 572.04
  A 0.91 0.89 3.2 0 0 390.29 571.15
  Q 379.05 570.01 372.71 567.72
  C 369.53 566.58 361.39 563.26 360.27 560.39
  A 0.44 0.43 -15.9 0 0 359.78 560.12
  Q 359.12 560.25 358.75 559.53
  Q 353.29 554.99 350.57 547.92
  L 355.79 555.17
  A 0.75 0.68 -87.1 0 0 355.88 555.28
  C 359.47 558.90 365.18 563.45 370.18 564.88
  A 5.43 5.01 64.0 0 1 371.15 565.26
  Q 375.79 567.56 376.78 567.82
  Q 384.49 569.80 391.79 570.15
  A 0.63 0.63 0.0 0 1 392.39 570.78
  L 392.39 575.83
  A 0.66 0.66 0.0 0 1 391.73 576.49
  L 234.21 576.49
  A 0.35 0.35 0.0 0 1 233.86 576.14
  L 233.86 571.10
  A 0.69 0.69 0.0 0 1 234.70 570.43
  L 236.47 570.83
  A 1.46 1.41 40.9 0 0 237.25 570.79
  Q 240.56 569.70 244.12 570.07
  Z"
/>
<path fill="#dca549" d="
  M 765.73 590.07
  L 767.99 589.05
  A 0.91 0.91 0.0 0 0 767.61 587.32
  L 632.83 587.37
  A 3.03 3.00 -38.1 0 1 632.14 587.29
  Q 631.32 587.09 629.50 587.09
  Q 609.09 587.07 590.98 587.09
  A 0.37 0.36 90.0 0 0 590.62 587.46
  L 590.62 589.07
  A 0.36 0.36 0.0 0 0 590.97 589.43
  L 601.57 589.60
  L 590.62 589.79
  A 0.71 0.70 -0.4 0 1 589.90 589.09
  L 589.90 586.17
  A 0.52 0.52 0.0 0 1 590.47 585.65
  Q 599.76 586.46 609.09 585.81
  C 616.70 585.29 623.46 586.14 630.74 585.49
  C 634.62 585.15 638.30 585.62 642.76 585.53
  C 655.41 585.27 667.58 585.56 678.41 585.44
  C 707.58 585.11 736.76 585.82 768.28 585.63
  A 1.08 1.08 0.0 0 1 769.36 586.71
  L 769.36 589.35
  A 0.85 0.84 83.0 0 1 768.73 590.17
  Q 767.40 590.53 765.73 590.07
  Z"
/>
<circle fill="#072353" cx="499.24" cy="825.70" r="3.34"/>
</svg>
