<?xml version="1.0" encoding="UTF-8" standalone="no"?>
<!DOCTYPE svg PUBLIC "-//W3C//DTD SVG 1.1//EN" "http://www.w3.org/Graphics/SVG/1.1/DTD/svg11.dtd">
<svg xmlns="http://www.w3.org/2000/svg" version="1.1" viewBox="0.00 0.00 1024.00 1024.00">
<g stroke-width="2.00" fill="none" stroke-linecap="butt">
<path stroke="#818ca0" vector-effect="non-scaling-stroke" d="
  M 228.91 145.05
  L 228.80 146.26
  A 0.44 0.44 0.0 0 0 229.23 146.74
  Q 233.78 146.82 241.51 147.95
  Q 256.44 150.13 267.54 159.95
  Q 268.28 160.60 267.89 160.74"
/>
<path stroke="#eccd9b" vector-effect="non-scaling-stroke" d="
  M 267.89 160.74
  Q 269.55 163.91 271.75 166.75
  Q 272.73 168.04 275.62 174.59
  Q 277.50 178.86 278.08 182.88
  Q 279.64 193.74 279.75 199.76
  Q 279.98 212.13 279.94 248.75
  C 279.81 362.87 280.10 445.96 279.75 519.75
  Q 279.70 530.69 277.83 540.12
  Q 277.11 543.73 274.29 550.16
  A 1.08 0.28 -75.7 0 1 274.23 550.27
  L 268.48 559.44"
/>
<path stroke="#818ca0" vector-effect="non-scaling-stroke" d="
  M 268.48 559.44
  Q 262.31 565.08 254.23 567.74
  A 2.21 0.20 -7.0 0 1 253.26 567.95
  Q 252.02 568.17 251.01 568.89
  Q 250.22 569.45 248.11 569.58
  Q 246.03 569.71 244.12 570.07"
/>
<path stroke="#eccd9b" vector-effect="non-scaling-stroke" d="
  M 244.12 570.07
  Q 240.56 569.70 237.25 570.79
  A 1.46 1.41 40.9 0 1 236.47 570.83
  L 234.70 570.43
  A 0.69 0.69 0.0 0 0 233.86 571.10
  L 233.86 576.14
  A 0.35 0.35 0.0 0 0 234.21 576.49
  L 391.73 576.49
  A 0.66 0.66 0.0 0 0 392.39 575.83
  L 392.39 570.78
  A 0.63 0.63 0.0 0 0 391.79 570.15
  Q 384.49 569.80 376.78 567.82
  Q 375.79 567.56 371.15 565.26
  A 5.43 5.01 64.0 0 0 370.18 564.88
  C 365.18 563.45 359.47 558.90 355.88 555.28
  A 0.75 0.68 -87.1 0 1 355.79 555.17
  L 350.57 547.92"
/>
<path stroke="#818ca0" vector-effect="non-scaling-stroke" d="
  M 350.57 547.92
  Q 347.09 540.45 346.10 534.00
  Q 345.58 530.64 345.30 523.84
  Q 345.13 519.73 345.16 513.66
  Q 345.45 464.59 345.32 415.53"
/>
<path stroke="#fceac8" vector-effect="non-scaling-stroke" d="
  M 345.32 415.53
  L 345.79 379.27"
/>
<path stroke="#818ca0" vector-effect="non-scaling-stroke" d="
  M 345.79 379.27
  Q 346.14 378.18 348.48 376.94"
/>
<path stroke="#eccd9b" vector-effect="non-scaling-stroke" d="
  M 348.48 376.94
  Q 354.69 373.05 359.19 367.15
  A 3.68 3.57 -87.9 0 1 359.90 366.47
  Q 363.51 363.91 365.60 361.59
  Q 368.37 358.51 371.34 355.59
  Q 373.16 353.81 374.23 353.34
  A 1.81 1.80 -32.1 0 1 376.33 353.82
  Q 399.89 381.77 416.14 401.11
  Q 420.38 406.17 426.08 412.95
  Q 435.11 423.72 448.39 440.07
  C 450.21 442.31 452.65 444.47 454.24 446.62
  Q 461.82 456.81 471.10 467.31
  C 473.88 470.45 476.30 474.04 479.42 477.43
  C 485.27 483.78 490.81 491.29 495.55 496.76
  C 502.20 504.44 507.83 511.71 514.91 519.72
  Q 518.06 523.29 522.26 528.48
  Q 531.35 539.69 542.15 550.11
  Q 557.02 564.46 576.37 571.84
  Q 581.89 573.95 593.64 576.40
  Q 597.11 577.12 604.20 577.25
  Q 610.31 577.36 614.85 577.73
  C 619.29 578.10 623.09 577.58 627.50 577.60
  C 630.38 577.60 633.44 578.18 636.51 578.03
  Q 656.70 577.00 657.10 577.07
  A 0.59 0.59 0.0 0 0 657.79 576.55
  C 658.03 574.12 657.55 573.27 655.22 572.20
  Q 648.97 569.31 640.44 564.09
  Q 622.03 552.83 609.61 540.91
  Q 602.79 534.36 595.03 525.50
  Q 581.82 510.43 570.32 496.27
  Q 550.04 471.31 528.31 444.43
  C 527.47 443.39 526.25 442.41 525.59 441.45
  Q 522.34 436.67 519.36 433.12
  A 0.98 0.96 -53.3 0 1 519.22 432.10
  C 519.37 431.77 520.70 431.11 521.31 430.36
  Q 527.56 422.73 533.94 418.65
  Q 535.40 417.72 535.77 417.24
  A 1.99 0.45 -57.8 0 1 536.47 416.54
  L 546.07 410.45
  Q 550.35 407.10 553.15 406.48
  A 4.56 4.50 22.6 0 0 554.41 405.97
  Q 555.44 405.33 557.24 404.52
  Q 561.57 402.57 562.36 402.40
  Q 563.22 402.22 566.12 401.35
  Q 569.36 400.37 569.82 400.18
  Q 572.72 398.94 574.53 398.47
  A 2.99 2.97 39.5 0 1 575.61 398.37
  Q 579.04 398.66 582.19 397.18
  A 2.86 2.80 -58.0 0 1 583.30 396.91
  Q 587.87 396.70 591.94 395.47
  A 2.39 2.35 -53.6 0 1 592.51 395.38
  Q 614.15 394.80 618.82 395.43
  Q 624.96 396.27 628.00 396.07"
/>
<path stroke="#818ca0" vector-effect="non-scaling-stroke" d="
  M 628.00 396.07
  Q 653.21 400.16 672.15 417.34
  Q 676.85 421.60 678.05 423.45
  Q 680.11 426.65 682.39 429.53
  A 1.45 1.45 0.0 0 1 682.69 430.21
  Q 682.72 430.36 682.74 430.48
  A 2.33 2.26 -69.5 0 0 683.13 431.37
  Q 687.27 437.16 689.25 443.85"
/>
<path stroke="#eccd9b" vector-effect="non-scaling-stroke" d="
  M 689.25 443.85
  L 690.21 448.75
  A 1.11 1.11 0.0 0 0 691.30 449.64
  L 694.36 449.64
  A 0.91 0.91 0.0 0 0 695.27 448.76
  Q 695.86 431.34 695.49 417.28
  Q 695.42 414.36 695.03 394.22
  A 0.74 0.73 -81.8 0 0 694.52 393.53
  L 684.33 390.16
  A 1.39 1.13 -24.4 0 0 684.10 390.10
  Q 676.74 389.02 671.38 387.69
  Q 662.12 385.39 659.08 385.11
  C 652.92 384.52 644.94 384.03 638.05 382.88
  Q 634.48 382.29 629.74 382.08
  Q 613.36 381.36 595.41 382.25
  C 587.54 382.65 580.86 383.90 572.64 384.94
  C 564.89 385.92 558.42 387.57 551.73 388.83
  C 546.41 389.84 541.95 392.23 537.10 393.59
  Q 531.96 395.04 526.27 397.50
  Q 512.95 403.29 501.51 409.72
  A 1.02 1.02 0.0 0 1 500.24 409.51
  C 498.80 407.88 497.30 406.39 496.08 404.67
  Q 494.26 402.11 492.24 399.71
  Q 488.48 395.25 488.42 395.20
  Q 487.73 394.57 441.15 336.87
  Q 437.89 332.83 435.09 329.61
  C 429.74 323.45 425.23 317.45 420.19 311.84
  A 1.55 1.55 0.0 0 1 420.25 309.71
  Q 427.87 302.06 437.11 293.44
  Q 443.32 287.66 450.17 280.85
  Q 456.39 274.67 463.39 268.39
  C 464.40 267.48 465.82 264.59 467.84 263.76
  A 2.64 2.43 9.8 0 0 468.60 263.27
  Q 471.40 260.65 474.14 258.01
  Q 474.20 257.95 478.50 254.13
  Q 481.97 251.05 484.47 246.94"
/>
<path stroke="#818ca0" vector-effect="non-scaling-stroke" d="
  M 484.47 246.94
  Q 484.74 246.50 485.07 246.23"
/>
<path stroke="#fceac8" vector-effect="non-scaling-stroke" d="
  M 485.07 246.23
  Q 485.68 246.76 486.27 246.33
  C 490.85 243.05 494.86 237.91 499.53 234.38
  Q 500.86 233.38 503.93 230.08
  C 506.76 227.03 510.54 224.00 513.52 221.14
  Q 518.37 216.48 532.76 203.00
  A 3.06 2.79 -75.9 0 1 533.53 202.49
  Q 534.18 202.19 534.43 201.94
  C 537.11 199.18 540.04 197.08 542.65 194.49
  Q 546.98 190.20 548.69 188.67
  Q 559.18 179.32 570.47 169.23
  Q 570.55 169.16 571.64 168.34
  C 580.57 161.64 587.00 156.79 596.63 152.75
  C 601.82 150.57 609.59 148.92 615.98 147.03"
/>
<path stroke="#818ca0" vector-effect="non-scaling-stroke" d="
  M 615.98 147.03
  L 619.45 146.67"
/>
<path stroke="#eccd9b" vector-effect="non-scaling-stroke" d="
  M 619.45 146.67
  L 621.57 147.06
  A 0.71 0.71 0.0 0 0 622.41 146.36
  L 622.41 143.13
  A 0.77 0.76 -89.2 0 0 621.67 142.36
  Q 608.34 142.01 600.50 141.98
  Q 569.83 141.85 506.80 142.17
  Q 503.21 142.19 501.83 142.42
  Q 498.85 142.90 496.96 142.53
  A 0.60 0.60 0.0 0 0 496.25 143.09
  Q 496.23 143.70 496.65 144.56
  A 1.05 1.02 42.2 0 1 496.70 145.33
  L 496.49 145.97
  A 0.57 0.57 0.0 0 0 496.92 146.71
  Q 497.71 146.88 498.54 146.68"
/>
<path stroke="#818ca0" vector-effect="non-scaling-stroke" d="
  M 498.54 146.68
  C 505.05 148.01 511.02 150.05 515.19 155.45"
/>
<path stroke="#eccd9b" vector-effect="non-scaling-stroke" d="
  M 515.19 155.45
  Q 520.58 166.84 516.76 177.26
  Q 514.34 183.87 513.25 185.94
  Q 511.86 188.59 504.35 199.00
  Q 500.70 204.05 494.14 211.06
  Q 481.32 224.74 474.52 231.52
  Q 467.40 238.62 465.98 240.20
  C 462.87 243.66 458.76 246.74 455.87 250.19
  C 453.23 253.35 451.49 254.67 447.85 257.93
  C 443.26 262.03 439.12 266.67 434.06 271.37
  Q 431.68 273.56 426.34 279.00
  Q 420.68 284.77 417.42 287.67
  Q 416.51 288.48 414.97 289.96
  Q 412.23 292.56 400.72 304.23
  Q 377.59 327.65 349.65 354.75
  C 348.74 355.63 348.00 357.10 346.79 357.77
  A 0.32 0.32 0.0 0 1 346.32 357.45
  Q 346.41 356.75 345.77 355.62
  A 2.45 2.42 34.3 0 1 345.48 354.13
  C 346.14 348.54 346.08 342.93 345.84 336.05
  Q 345.68 331.62 345.69 321.94
  Q 345.70 282.83 345.34 243.71"
/>
<path stroke="#818ca0" vector-effect="non-scaling-stroke" d="
  M 345.34 243.71
  L 345.33 225.53"
/>
<path stroke="#eccd9b" vector-effect="non-scaling-stroke" d="
  M 345.33 225.53
  Q 346.16 208.36 345.41 191.21"
/>
<path stroke="#818ca0" vector-effect="non-scaling-stroke" d="
  M 345.41 191.21
  Q 345.40 180.53 348.95 170.69
  Q 350.87 165.36 353.78 161.62
  Q 357.31 157.11 361.22 154.50
  C 370.19 148.52 381.85 147.01 392.81 146.54"
/>
<path stroke="#eccd9b" vector-effect="non-scaling-stroke" d="
  M 392.81 146.54
  L 393.79 143.11
  A 0.60 0.60 0.0 0 0 393.21 142.35
  C 385.75 142.43 379.18 141.91 370.59 141.95
  Q 310.85 142.24 256.64 142.39
  C 249.13 142.40 241.49 141.57 233.99 142.47
  Q 231.47 142.77 228.88 142.63
  A 0.57 0.57 0.0 0 0 228.31 143.40
  L 228.91 145.05"
/>
<path stroke="#72644e" vector-effect="non-scaling-stroke" d="
  M 392.81 146.54
  Q 392.57 144.62 391.81 143.99
  A 0.57 0.52 -22.7 0 0 391.45 143.86
  L 229.89 143.67
  A 0.89 0.89 0.0 0 0 229.01 144.43
  L 228.91 145.05"
/>
<path stroke="#72644e" vector-effect="non-scaling-stroke" d="
  M 345.41 191.21
  Q 344.65 208.34 345.33 225.53"
/>
<path stroke="#72644e" vector-effect="non-scaling-stroke" d="
  M 345.34 243.71
  L 344.67 360.16
  A 0.48 0.47 -25.1 0 0 345.51 360.46
  Q 347.76 357.73 349.20 356.45
  Q 351.78 354.16 351.82 354.11
  C 364.69 341.91 380.10 326.42 393.18 313.75
  Q 411.31 296.20 422.09 285.34
  Q 429.31 278.06 455.53 252.53
  Q 475.35 233.24 494.18 212.94
  Q 506.98 199.15 513.95 187.46
  Q 514.40 186.72 514.79 185.26
  A 3.93 3.90 67.4 0 1 515.17 184.33
  Q 524.18 168.59 515.19 155.45"
/>
<path stroke="#82817c" vector-effect="non-scaling-stroke" d="
  M 615.98 147.03
  Q 598.39 147.94 584.72 156.97
  C 581.51 159.08 576.38 162.62 572.74 165.70
  Q 560.82 175.79 555.05 181.05
  Q 524.31 209.06 492.40 239.15
  Q 488.69 242.64 485.07 246.23"
/>
<path stroke="#72644e" vector-effect="non-scaling-stroke" d="
  M 484.47 246.94
  L 417.71 310.13
  A 0.70 0.69 52.5 0 0 417.60 311.01
  Q 419.45 313.97 421.68 316.65
  Q 452.75 354.00 497.70 410.77
  Q 509.32 425.44 521.29 439.85"
/>
<path stroke="#82817c" vector-effect="non-scaling-stroke" d="
  M 521.29 439.85
  Q 552.89 479.26 585.07 518.19
  C 598.58 534.53 613.19 549.55 630.93 561.32"
/>
<path stroke="#72644e" vector-effect="non-scaling-stroke" d="
  M 630.93 561.32
  Q 642.69 568.65 655.01 574.49
  A 0.66 0.66 0.0 0 1 654.75 575.75
  Q 647.99 576.03 628.75 576.76
  Q 613.95 577.32 605.79 576.44
  C 589.70 574.71 575.24 570.66 561.52 562.22
  Q 553.30 557.17 543.98 548.35"
/>
<path stroke="#82817c" vector-effect="non-scaling-stroke" d="
  M 543.98 548.35
  Q 538.82 543.53 537.38 541.87
  Q 531.10 534.65 524.91 527.36
  Q 502.79 501.30 481.02 474.97"
/>
<path stroke="#72644e" vector-effect="non-scaling-stroke" d="
  M 481.02 474.97
  Q 478.83 472.17 476.52 469.49
  Q 470.24 462.18 464.25 454.92
  A 144.58 11.37 50.1 0 0 451.14 439.23
  L 376.22 350.65
  A 0.70 0.70 0.0 0 0 375.20 350.60
  L 350.90 373.96
  A 1.76 0.39 -69.7 0 0 350.39 374.75
  Q 350.21 375.13 349.75 375.13
  Q 348.87 375.93 348.48 376.94"
/>
<path stroke="#82817c" vector-effect="non-scaling-stroke" d="
  M 345.79 379.27
  Q 344.85 381.05 344.86 383.75
  Q 344.92 399.64 345.32 415.53"
/>
<path stroke="#72644e" vector-effect="non-scaling-stroke" d="
  M 350.57 547.92
  Q 353.29 554.99 358.75 559.53
  Q 359.12 560.25 359.78 560.12
  A 0.44 0.43 -15.9 0 1 360.27 560.39
  C 361.39 563.26 369.53 566.58 372.71 567.72
  Q 379.05 570.01 390.29 571.15
  A 0.91 0.89 3.2 0 1 391.10 572.04
  L 391.10 574.16
  A 0.98 0.98 0.0 0 1 390.12 575.14
  L 235.66 575.14
  A 0.83 0.83 0.0 0 1 234.83 574.31
  L 234.83 572.26
  A 1.04 1.04 0.0 0 1 235.73 571.23
  L 244.12 570.07"
/>
<path stroke="#72644e" vector-effect="non-scaling-stroke" d="
  M 268.48 559.44
  Q 275.05 553.44 277.90 545.07
  Q 279.49 540.39 280.46 533.29
  Q 281.28 527.31 281.28 521.27
  Q 281.13 275.52 281.26 206.51
  Q 281.27 199.06 281.01 194.13
  Q 280.91 192.09 279.91 184.72
  Q 279.22 179.64 277.69 175.59
  Q 274.75 167.79 269.47 161.52
  A 1.54 1.53 -10.3 0 0 268.77 161.04
  L 267.89 160.74"
/>
<path stroke="#72644e" vector-effect="non-scaling-stroke" d="
  M 689.25 443.85
  Q 690.82 445.89 691.23 448.60
  A 0.30 0.29 85.4 0 0 691.52 448.85
  L 693.86 448.85
  A 0.10 0.10 0.0 0 0 693.96 448.75
  L 693.96 395.06
  A 0.82 0.82 0.0 0 0 693.35 394.27
  Q 668.94 387.73 649.86 385.59
  C 626.18 382.94 602.19 382.34 578.31 385.69
  Q 542.76 390.68 512.82 405.87
  Q 505.76 409.45 504.64 409.91
  A 0.98 0.97 -30.0 0 0 504.23 411.41
  L 518.68 430.09
  A 0.43 0.42 47.1 0 0 519.32 430.12
  Q 537.90 409.81 563.08 400.99
  Q 567.75 399.36 574.55 397.80
  Q 583.80 395.67 586.19 395.41
  Q 592.94 394.65 601.00 394.13
  Q 614.53 393.25 628.00 396.07"
/>
<path stroke="#edc277" vector-effect="non-scaling-stroke" d="
  M 481.02 474.97
  Q 480.49 474.80 480.33 474.94
  Q 479.89 475.34 480.27 475.80
  Q 493.73 492.07 512.99 515.13
  Q 513.40 515.62 518.45 521.86
  Q 522.06 526.32 526.12 530.55
  A 3.69 3.30 -86.8 0 1 526.60 531.15
  Q 527.38 532.34 528.32 533.40
  Q 534.23 540.05 540.62 546.88
  Q 543.41 549.85 543.98 548.35"
/>
<path stroke="#edc277" vector-effect="non-scaling-stroke" d="
  M 630.93 561.32
  L 631.95 561.11
  A 0.31 0.31 0.0 0 0 632.08 560.56
  Q 629.90 558.79 627.08 557.43
  A 4.28 4.09 -11.3 0 1 626.23 556.89
  Q 620.32 552.07 618.75 551.04
  C 616.13 549.31 614.15 546.65 611.66 544.60
  Q 608.72 542.19 606.39 539.70
  Q 598.97 531.77 591.66 524.32
  A 4.93 4.77 -83.3 0 1 590.95 523.39
  Q 589.27 520.61 586.98 518.77
  A 3.43 3.36 4.9 0 1 586.19 517.85
  C 584.61 515.04 582.31 513.03 580.12 510.21
  Q 572.77 500.77 560.43 486.19
  C 558.53 483.94 556.78 481.02 554.75 479.47
  A 2.53 2.42 5.9 0 1 554.07 478.67
  Q 552.85 476.35 550.48 474.27
  A 3.60 3.51 -85.2 0 1 549.73 473.36
  Q 548.29 470.90 546.39 469.39
  A 1.20 1.20 0.0 0 1 546.26 469.26
  L 541.30 462.91
  A 0.74 0.66 19.9 0 1 541.17 462.67
  Q 540.89 461.82 540.58 461.44
  Q 539.08 459.66 521.97 438.71
  A 0.35 0.35 0.0 0 0 521.36 439.00
  Q 521.45 439.47 521.29 439.85"
/>
<path stroke="#72644e" vector-effect="non-scaling-stroke" d="
  M 619.45 146.67
  L 621.24 146.31
  A 0.69 0.68 -85.6 0 0 621.77 145.85
  Q 622.09 144.93 620.99 144.02
  A 0.43 0.39 -23.5 0 0 620.73 143.93
  L 498.12 143.81
  A 1.23 1.23 0.0 0 0 496.95 145.41
  Q 497.36 146.71 498.54 146.68"
/>
<path stroke="#eccd9b" vector-effect="non-scaling-stroke" d="
  M 649.20 566.82
  L 663.28 573.62
  A 2.61 2.54 -34.5 0 0 664.68 573.86
  Q 671.18 573.09 680.07 570.85
  Q 718.24 561.24 745.01 535.98
  C 779.72 503.21 796.28 455.51 792.87 407.68
  C 789.18 356.08 764.45 306.75 720.91 277.64
  Q 708.74 269.50 699.99 265.32
  Q 685.37 258.35 663.03 252.64
  Q 659.06 251.63 656.60 251.26
  C 650.98 250.41 644.77 248.92 640.41 248.40
  Q 621.33 246.12 601.00 246.03
  Q 585.65 245.95 492.92 246.04
  A 1.04 1.04 0.0 0 0 491.88 247.08
  L 491.88 249.70
  A 1.27 1.26 5.2 0 0 492.92 250.94
  Q 500.43 252.25 505.90 254.93
  C 519.81 261.76 522.45 275.27 522.74 289.50
  C 523.03 304.00 522.98 326.04 523.54 346.56
  Q 523.94 361.20 523.52 371.20
  Q 522.94 384.95 522.84 390.97
  A 0.95 0.95 0.0 0 0 524.18 391.86
  C 536.17 386.56 544.76 384.54 560.82 380.47
  C 562.89 379.94 565.33 379.88 566.99 379.24
  A 1.87 1.87 0.0 0 0 568.19 377.54
  C 568.31 372.72 567.51 366.89 567.44 360.84
  Q 567.15 336.14 567.60 319.80
  C 568.29 294.70 568.09 282.94 568.13 255.54
  A 0.65 0.64 -1.4 0 1 568.75 254.90
  Q 585.14 254.25 602.61 254.94
  Q 622.21 255.72 636.20 259.17
  Q 669.85 267.46 694.48 291.30
  C 713.87 310.08 728.14 336.26 735.51 362.42
  Q 746.02 399.73 742.63 440.31
  C 742.42 442.85 741.90 445.33 741.51 448.96
  Q 739.34 469.26 731.05 491.33
  C 722.70 513.57 709.21 533.41 690.48 547.71
  C 678.23 557.06 664.26 562.96 649.33 565.79
  A 0.55 0.55 0.0 0 0 649.20 566.82"
/>
<path stroke="#fceac8" vector-effect="non-scaling-stroke" d="
  M 345.82 445.99
  A 0.22 0.22 0.0 0 0 345.60 445.77
  A 0.22 0.22 0.0 0 0 345.38 445.99
  L 345.38 470.01
  A 0.22 0.22 0.0 0 0 345.60 470.23
  A 0.22 0.22 0.0 0 0 345.82 470.01
  L 345.82 445.99"
/>
<path stroke="#818ca0" vector-effect="non-scaling-stroke" d="
  M 737.93 620.22
  Q 738.49 616.26 739.73 611.75
  Q 743.96 596.36 758.77 591.70
  Q 759.83 591.36 762.25 590.92
  Q 764.15 590.57 765.73 590.07"
/>
<path stroke="#eccd9b" vector-effect="non-scaling-stroke" d="
  M 765.73 590.07
  Q 767.40 590.53 768.73 590.17
  A 0.85 0.84 83.0 0 0 769.36 589.35
  L 769.36 586.71
  A 1.08 1.08 0.0 0 0 768.28 585.63
  C 736.76 585.82 707.58 585.11 678.41 585.44
  C 667.58 585.56 655.41 585.27 642.76 585.53
  C 638.30 585.62 634.62 585.15 630.74 585.49
  C 623.46 586.14 616.70 585.29 609.09 585.81
  Q 599.76 586.46 590.47 585.65
  A 0.52 0.52 0.0 0 0 589.90 586.17
  L 589.90 589.09
  A 0.71 0.70 -0.4 0 0 590.62 589.79
  L 601.57 589.60"
/>
<path stroke="#818ca0" vector-effect="non-scaling-stroke" d="
  M 601.57 589.60
  Q 613.40 589.90 625.31 590.08
  Q 639.53 590.30 653.37 593.41
  Q 659.11 594.70 665.74 598.04"
/>
<path stroke="#eccd9b" vector-effect="non-scaling-stroke" d="
  M 665.74 598.04
  Q 667.56 599.96 669.99 601.18
  A 2.98 2.80 -6.9 0 1 670.75 601.74
  Q 675.88 607.01 677.48 609.54
  Q 680.04 613.59 681.38 620.34
  Q 682.64 626.73 682.67 634.75
  Q 682.79 666.43 682.66 695.75
  Q 682.65 696.09 682.20 703.66
  A 1.27 1.26 -19.5 0 1 681.78 704.53
  Q 671.96 713.12 670.10 714.12
  Q 659.05 720.06 648.54 722.74
  Q 634.50 726.34 618.54 727.14
  C 615.23 727.30 611.04 726.70 607.43 726.68
  Q 604.04 726.66 599.14 725.76
  Q 585.67 723.27 581.80 722.37
  C 578.57 721.62 575.14 720.18 571.98 719.31
  Q 568.57 718.37 564.69 716.83
  Q 526.26 701.56 500.82 668.48
  Q 493.69 659.21 488.49 649.77
  Q 487.03 647.12 482.69 638.52
  C 477.73 628.69 474.78 619.01 471.52 607.55
  C 469.99 602.15 469.13 596.39 467.91 590.44
  Q 466.40 583.15 465.89 577.51
  C 464.45 561.64 464.05 545.01 466.89 529.44
  Q 469.68 514.17 469.71 513.97
  C 470.65 507.85 473.49 502.05 474.75 495.81
  A 2.45 1.73 -45.2 0 1 474.85 495.51
  L 479.64 484.26
  A 1.41 1.40 -53.7 0 0 479.42 482.80
  L 451.11 449.32
  A 0.60 0.59 47.9 0 0 450.25 449.27
  Q 447.57 451.83 445.45 454.21
  Q 413.20 490.35 405.42 538.20
  Q 404.61 543.16 403.25 556.81
  C 402.51 564.27 403.30 571.61 403.21 578.53
  C 403.14 583.27 404.31 587.30 404.78 592.22
  Q 405.26 597.29 406.31 602.44
  Q 413.73 638.97 435.27 667.74
  Q 464.81 707.22 510.46 727.77
  Q 526.27 734.89 549.88 740.61
  C 554.33 741.69 557.88 741.82 561.56 742.50
  Q 566.48 743.42 570.36 743.88
  Q 594.64 746.79 619.75 745.70
  Q 623.91 745.52 641.66 743.82
  C 645.58 743.44 649.12 742.44 652.94 741.94
  Q 657.57 741.35 661.40 740.47
  C 688.27 734.33 714.32 723.49 737.17 707.97
  A 0.97 0.97 0.0 0 0 737.59 707.17
  L 737.93 620.22"
/>
<path stroke="#72644e" vector-effect="non-scaling-stroke" d="
  M 665.74 598.04
  Q 676.71 602.67 680.84 613.94
  Q 683.08 620.07 683.50 624.19
  Q 684.09 629.94 684.10 642.25
  C 684.11 670.64 684.21 689.42 683.90 703.70
  A 2.31 2.31 0.0 0 1 683.29 705.21
  C 673.66 715.42 661.96 721.18 648.26 724.87
  Q 639.81 727.14 631.62 727.77
  Q 611.15 729.34 594.30 726.96
  Q 572.48 723.88 550.51 712.75
  Q 521.15 697.85 501.10 672.40
  C 483.08 649.51 471.27 622.47 466.27 593.88
  Q 460.25 559.48 465.95 524.05
  Q 468.77 506.54 474.50 492.20
  Q 475.98 488.48 477.48 485.48
  A 2.46 2.45 38.2 0 0 477.16 482.79
  L 451.02 451.89
  A 0.65 0.65 0.0 0 0 450.05 451.86
  C 431.09 472.00 418.17 495.95 411.09 522.91
  Q 409.02 530.80 408.52 533.52
  Q 405.55 549.87 405.23 565.88
  Q 405.04 575.08 406.52 585.51
  Q 408.57 600.03 409.63 604.92
  Q 413.72 623.95 423.98 644.97
  A 2.22 2.20 -84.1 0 0 424.59 645.73
  Q 425.09 646.12 425.26 646.50
  Q 427.17 650.80 427.64 651.61
  C 449.67 689.84 485.30 718.06 527.23 732.05
  Q 550.70 739.88 572.25 742.23
  Q 590.53 744.23 599.25 744.49
  C 613.44 744.92 625.16 743.93 638.86 742.34
  Q 662.21 739.63 684.91 731.65
  Q 711.92 722.14 736.02 706.68
  A 0.88 0.86 -16.8 0 0 736.42 705.95
  C 736.69 664.48 736.45 641.61 737.15 622.77
  Q 737.20 621.27 737.93 620.22"
/>
<path stroke="#72644e" vector-effect="non-scaling-stroke" d="
  M 601.57 589.60
  L 590.97 589.43
  A 0.36 0.36 0.0 0 1 590.62 589.07
  L 590.62 587.46
  A 0.37 0.36 -90.0 0 1 590.98 587.09
  Q 609.09 587.07 629.50 587.09
  Q 631.32 587.09 632.14 587.29
  A 3.03 3.00 -38.1 0 0 632.83 587.37
  L 767.61 587.32
  A 0.91 0.91 0.0 0 1 767.99 589.05
  L 765.73 590.07"
/>
<path stroke="#818ca0" vector-effect="non-scaling-stroke" d="
  M 576.03 812.23
  Q 579.32 812.54 579.31 816.26
  Q 579.30 818.73 579.18 824.36
  A 1.21 1.19 79.4 0 1 578.45 825.44
  C 568.58 829.63 559.61 824.11 558.23 813.91
  C 557.54 808.73 557.86 802.60 561.48 798.01
  Q 565.75 792.59 573.02 793.60
  C 579.53 794.51 581.01 797.05 583.15 802.45
  A 0.57 0.57 0.0 0 0 584.25 802.24
  L 584.25 795.00
  A 1.08 1.08 0.0 0 0 583.62 794.02
  C 573.72 789.57 560.12 790.41 554.16 800.26
  Q 550.27 806.69 551.69 814.30
  C 553.74 825.21 564.09 830.07 574.13 828.87
  Q 579.18 828.27 584.31 825.99
  A 0.58 0.56 78.0 0 0 584.64 825.47
  L 584.75 814.46
  A 1.28 1.26 59.5 0 1 584.90 813.86
  Q 585.56 812.63 586.94 812.34
  A 0.75 0.75 0.0 0 0 586.78 810.86
  L 575.84 810.86
  A 0.42 0.41 -90.0 0 0 575.43 811.28
  L 575.43 811.57
  A 0.66 0.65 -87.6 0 0 576.03 812.23"
/>
<path stroke="#818ca0" vector-effect="non-scaling-stroke" d="
  M 789.57 828.46
  L 801.30 828.50
  A 0.52 0.52 0.0 0 0 801.44 827.48
  Q 798.82 826.69 797.96 824.55
  Q 790.96 807.23 784.72 792.14
  A 1.34 1.34 0.0 0 0 782.24 792.15
  L 768.17 825.61
  A 1.50 1.48 89.8 0 1 767.39 826.41
  L 765.03 827.39
  A 0.53 0.52 -56.1 0 0 765.23 828.41
  L 774.01 828.44
  A 0.56 0.56 0.0 0 0 774.23 827.35
  L 772.09 826.46
  A 0.93 0.93 0.0 0 1 771.56 825.30
  L 774.35 816.98
  A 0.97 0.96 -80.5 0 1 775.27 816.32
  L 787.81 816.36
  A 0.83 0.82 -11.0 0 1 788.57 816.87
  L 791.93 824.89
  A 0.98 0.97 57.1 0 1 791.71 825.97
  Q 790.82 826.83 789.37 827.34
  A 0.58 0.58 0.0 0 0 789.57 828.46"
/>
<path stroke="#818ca0" vector-effect="non-scaling-stroke" d="
  M 681.93 828.43
  L 693.64 828.43
  A 0.52 0.52 0.0 0 0 693.78 827.41
  Q 691.16 826.63 690.29 824.50
  Q 683.25 807.23 676.96 792.19
  A 1.34 1.34 0.0 0 0 674.49 792.20
  L 660.56 825.66
  A 1.50 1.48 89.6 0 1 659.78 826.46
  L 657.43 827.45
  A 0.53 0.52 -56.3 0 0 657.63 828.46
  L 666.40 828.46
  A 0.56 0.56 0.0 0 0 666.61 827.38
  L 664.47 826.49
  A 0.93 0.93 0.0 0 1 663.94 825.34
  L 666.70 817.02
  A 0.97 0.96 -80.7 0 1 667.61 816.36
  L 680.13 816.36
  A 0.83 0.82 -11.2 0 1 680.89 816.86
  L 684.28 824.86
  A 0.98 0.97 56.9 0 1 684.06 825.94
  Q 683.17 826.80 681.73 827.31
  A 0.58 0.58 0.0 0 0 681.93 828.43"
/>
<path stroke="#818ca0" vector-effect="non-scaling-stroke" d="
  M 172.54 808.77
  Q 172.37 804.58 172.62 796.14
  C 172.68 793.92 173.65 793.51 175.56 793.06
  A 0.48 0.47 -7.0 0 0 175.93 792.60
  L 175.93 792.23
  A 0.45 0.45 0.0 0 0 175.48 791.78
  L 164.04 791.78
  A 0.34 0.34 0.0 0 0 163.70 792.12
  L 163.70 792.42
  A 0.67 0.67 0.0 0 0 164.28 793.08
  Q 166.74 793.44 166.75 795.53
  Q 166.81 805.92 166.78 824.74
  Q 166.78 826.69 164.14 827.27
  A 0.63 0.61 -6.5 0 0 163.65 827.87
  L 163.65 828.15
  A 0.29 0.29 0.0 0 0 163.94 828.44
  L 175.68 828.44
  A 0.49 0.48 -26.2 0 0 175.98 827.57
  Q 175.55 827.25 174.38 826.92
  C 172.29 826.33 172.55 824.62 172.55 822.43
  Q 172.54 816.67 172.77 812.53
  A 1.58 1.58 0.0 0 1 175.53 811.58
  Q 182.66 819.77 186.99 824.99
  Q 188.54 826.86 190.53 828.05
  A 2.70 2.63 59.5 0 0 191.88 828.42
  L 198.72 828.42
  A 0.51 0.51 0.0 0 0 198.93 827.45
  L 195.90 826.07
  A 1.64 1.56 80.1 0 1 195.36 825.67
  L 179.19 807.51
  A 0.79 0.79 0.0 0 1 179.22 806.42
  Q 184.30 801.37 190.89 795.39
  Q 192.62 793.82 195.92 793.19
  A 0.73 0.72 84.8 0 0 196.51 792.47
  L 196.51 792.19
  A 0.41 0.40 90.0 0 0 196.11 791.78
  L 186.27 791.81
  A 0.79 0.79 0.0 0 0 185.49 792.47
  L 185.48 792.50
  A 0.58 0.57 -80.6 0 0 185.91 793.11
  Q 186.50 793.26 187.11 793.82
  A 0.66 0.66 0.0 0 1 187.22 794.67
  Q 185.79 796.84 184.29 798.29
  Q 177.39 804.94 173.29 809.06
  A 0.44 0.44 0.0 0 1 172.54 808.77"
/>
<path stroke="#818ca0" vector-effect="non-scaling-stroke" d="
  M 245.26 791.79
  L 219.63 791.79
  A 0.62 0.62 0.0 0 0 219.50 793.02
  Q 221.01 793.32 221.92 794.32
  A 1.95 1.93 -66.5 0 1 222.45 795.68
  Q 222.30 813.57 222.44 823.29
  Q 222.49 826.83 219.44 827.33
  Q 219.42 827.33 219.22 827.64
  Q 218.95 828.03 219.31 828.33
  A 0.39 0.38 -23.6 0 0 219.57 828.43
  L 245.99 828.43
  A 0.72 0.71 3.6 0 0 246.70 827.81
  L 247.63 820.90
  A 0.72 0.72 0.0 0 0 247.08 820.10
  L 247.05 820.09
  A 0.59 0.59 0.0 0 0 246.37 820.51
  Q 244.78 825.81 239.42 826.08
  Q 234.20 826.34 230.37 826.30
  Q 228.17 826.28 228.42 824.08
  Q 228.42 824.02 228.36 822.93
  Q 228.23 820.81 228.41 811.27
  A 0.53 0.52 -89.4 0 1 228.93 810.75
  L 237.72 810.75
  A 2.20 2.18 78.3 0 1 239.73 812.09
  L 240.68 814.33
  A 0.65 0.65 0.0 0 0 241.93 814.07
  L 241.93 804.91
  A 0.46 0.45 -85.6 0 0 241.55 804.46
  L 241.28 804.43
  A 0.55 0.54 -78.8 0 0 240.68 804.84
  C 240.18 806.99 239.52 808.34 236.87 808.35
  Q 229.79 808.37 228.78 808.33
  A 0.51 0.51 0.0 0 1 228.30 807.82
  L 228.30 794.82
  A 0.63 0.63 0.0 0 1 228.93 794.19
  L 240.45 794.19
  A 3.11 3.10 -11.4 0 1 243.31 796.08
  L 244.84 799.67
  A 0.67 0.67 0.0 0 0 246.13 799.41
  L 246.13 792.66
  A 0.87 0.87 0.0 0 0 245.26 791.79"
/>
<path stroke="#818ca0" vector-effect="non-scaling-stroke" d="
  M 287.46 820.22
  Q 282.64 809.14 277.37 795.70
  A 1.59 1.46 75.1 0 1 278.49 793.56
  Q 279.36 793.45 280.02 792.65
  A 0.52 0.52 0.0 0 0 279.61 791.80
  L 267.66 791.80
  A 0.66 0.65 56.3 0 0 267.41 793.06
  L 269.45 793.90
  A 2.17 2.14 0.2 0 1 270.59 795.03
  L 284.67 828.28
  A 1.29 1.28 60.1 0 0 286.62 828.81
  Q 287.25 828.34 287.86 826.83
  Q 289.47 822.87 299.53 798.83
  C 300.76 795.89 301.29 793.93 304.15 793.08
  A 0.64 0.64 0.0 0 0 303.97 791.82
  Q 296.43 791.81 295.32 791.85
  Q 294.99 791.86 294.83 792.32
  Q 294.61 792.93 295.22 793.14
  L 296.99 793.75
  A 1.71 1.71 0.0 0 1 297.88 795.95
  L 288.07 820.21
  A 0.33 0.33 0.0 0 1 287.46 820.22"
/>
<path stroke="#818ca0" vector-effect="non-scaling-stroke" d="
  M 326.59 810.15
  Q 326.60 824.71 326.58 824.79
  A 3.61 3.48 -28.4 0 1 326.25 825.84
  Q 325.79 826.72 323.50 827.45
  A 0.49 0.49 0.0 0 0 323.61 828.41
  Q 324.36 828.46 329.49 828.46
  Q 334.62 828.46 335.37 828.40
  A 0.49 0.49 0.0 0 0 335.49 827.44
  Q 333.20 826.72 332.74 825.84
  A 3.61 3.48 28.3 0 1 332.40 824.79
  Q 332.39 824.70 332.38 810.15
  Q 332.37 795.60 332.38 795.51
  A 3.61 3.48 -28.4 0 1 332.72 794.47
  Q 333.18 793.59 335.47 792.86
  A 0.49 0.49 0.0 0 0 335.35 791.90
  Q 334.60 791.84 329.47 791.84
  Q 324.34 791.85 323.59 791.90
  A 0.49 0.49 0.0 0 0 323.48 792.86
  Q 325.77 793.59 326.23 794.47
  A 3.61 3.48 28.3 0 1 326.57 795.52
  Q 326.58 795.60 326.59 810.15"
/>
<path stroke="#818ca0" vector-effect="non-scaling-stroke" d="
  M 386.19 818.69
  L 365.64 792.12
  A 0.93 0.92 70.8 0 0 364.91 791.76
  L 357.39 791.76
  A 0.66 0.66 0.0 0 0 357.21 793.06
  C 359.13 793.61 360.19 794.60 360.27 796.82
  Q 360.50 803.34 360.39 821.62
  Q 360.37 824.25 360.01 825.65
  A 1.10 1.05 87.0 0 1 359.39 826.37
  L 357.13 827.33
  A 0.58 0.58 0.0 0 0 357.36 828.45
  L 366.32 828.45
  A 0.56 0.55 -39.4 0 0 366.43 827.35
  Q 364.58 827.00 363.40 826.00
  A 1.51 1.50 -70.0 0 1 362.87 824.85
  L 362.87 798.89
  A 0.37 0.37 0.0 0 1 363.53 798.67
  L 386.45 828.30
  A 1.62 1.61 26.2 0 0 389.35 827.32
  L 389.35 795.49
  A 1.75 1.74 78.6 0 1 390.41 793.88
  L 392.47 793.01
  A 0.63 0.62 -56.4 0 0 392.23 791.81
  L 383.40 791.81
  A 0.41 0.41 0.0 0 0 382.99 792.22
  L 382.99 792.52
  A 0.75 0.74 2.1 0 0 383.69 793.26
  C 387.00 793.50 386.56 795.74 386.58 798.25
  Q 386.66 811.37 386.64 818.53
  A 0.25 0.25 0.0 0 1 386.19 818.69"
/>
<path stroke="#818ca0" vector-effect="non-scaling-stroke" d="
  M 445.81 810.08
  Q 445.85 816.95 445.85 824.61
  A 2.10 2.10 0.0 0 1 444.57 826.54
  L 442.70 827.32
  A 0.52 0.52 0.0 0 0 442.63 828.24
  Q 442.87 828.40 443.52 828.40
  Q 450.90 828.39 457.24 828.34
  C 468.79 828.26 478.21 822.43 478.14 809.88
  C 478.06 797.34 468.56 791.62 457.02 791.68
  Q 450.68 791.70 443.30 791.78
  Q 442.65 791.79 442.41 791.96
  A 0.52 0.52 0.0 0 0 442.49 792.87
  L 444.37 793.63
  A 2.10 2.10 0.0 0 1 445.67 795.55
  Q 445.77 803.21 445.81 810.08"
/>
<path stroke="#818ca0" vector-effect="non-scaling-stroke" d="
  M 626.54 811.14
  A 0.35 0.35 0.0 0 1 626.68 810.53
  C 632.71 808.99 636.70 806.11 635.72 799.18
  C 634.93 793.57 628.39 791.97 623.49 791.84
  Q 618.34 791.70 607.99 791.87
  A 0.53 0.53 0.0 0 0 607.83 792.91
  L 609.19 793.36
  A 2.60 2.59 9.6 0 1 610.97 795.85
  Q 610.79 810.01 610.99 820.96
  C 611.04 824.23 611.60 826.62 607.92 827.35
  A 0.55 0.55 0.0 0 0 608.03 828.44
  L 620.05 828.44
  A 0.34 0.34 0.0 0 0 620.39 828.10
  L 620.39 827.82
  A 0.52 0.52 0.0 0 0 619.97 827.31
  Q 617.99 826.95 617.06 825.77
  A 1.37 1.32 26.7 0 1 616.77 824.94
  L 616.77 812.25
  A 0.92 0.92 0.0 0 1 617.54 811.34
  Q 619.40 811.04 620.78 811.61
  A 1.95 1.95 0.0 0 1 621.71 812.42
  Q 624.99 817.95 630.51 825.99
  Q 632.18 828.42 633.84 828.44
  Q 639.93 828.50 640.84 828.54
  A 0.50 0.50 0.0 0 0 641.07 827.59
  C 638.72 826.53 637.69 826.22 636.21 824.14
  Q 628.57 813.44 628.56 813.43
  Q 627.51 811.94 626.54 811.14"
/>
<path stroke="#818ca0" vector-effect="non-scaling-stroke" d="
  M 729.98 810.72
  Q 737.13 810.73 738.62 810.86
  A 0.55 0.55 0.0 0 1 739.13 811.41
  L 739.13 824.85
  A 1.39 1.36 -31.2 0 1 738.96 825.51
  Q 738.17 826.94 736.21 827.41
  A 0.53 0.53 0.0 0 0 736.34 828.46
  L 748.04 828.46
  A 0.10 0.08 -52.0 0 0 748.08 828.45
  Q 748.42 828.25 748.29 827.71
  A 0.51 0.51 0.0 0 0 747.92 827.35
  C 745.96 826.90 745.00 826.28 745.03 823.92
  Q 745.13 814.98 745.10 795.45
  A 2.05 2.04 87.1 0 1 746.93 793.41
  Q 747.55 793.35 748.20 792.75
  A 0.54 0.54 0.0 0 0 747.84 791.81
  L 736.36 791.81
  A 0.37 0.36 0.0 0 0 735.99 792.17
  L 735.99 792.45
  A 0.69 0.68 5.1 0 0 736.56 793.12
  Q 739.02 793.54 739.09 796.24
  Q 739.24 803.22 739.09 807.83
  A 0.51 0.50 89.7 0 1 738.62 808.32
  Q 738.13 808.35 729.98 808.34
  Q 721.83 808.34 721.34 808.31
  A 0.51 0.50 -89.6 0 1 720.87 807.82
  Q 720.72 803.21 720.88 796.23
  Q 720.96 793.53 723.42 793.11
  A 0.69 0.68 -5.0 0 0 723.99 792.44
  L 723.99 792.16
  A 0.37 0.36 0.1 0 0 723.62 791.80
  L 712.14 791.79
  A 0.54 0.54 0.0 0 0 711.78 792.73
  Q 712.43 793.33 713.05 793.39
  A 2.05 2.04 -87.0 0 1 714.87 795.43
  Q 714.82 814.96 714.91 823.90
  C 714.93 826.26 713.97 826.88 712.01 827.33
  A 0.51 0.51 0.0 0 0 711.64 827.69
  Q 711.51 828.23 711.85 828.43
  A 0.10 0.08 52.1 0 0 711.89 828.44
  L 723.59 828.45
  A 0.53 0.53 0.0 0 0 723.72 827.40
  Q 721.76 826.93 720.98 825.50
  A 1.39 1.36 31.2 0 1 720.81 824.84
  L 720.82 811.40
  A 0.55 0.55 0.0 0 1 721.33 810.85
  Q 722.82 810.72 729.98 810.72"
/>
<path stroke="#818ca0" vector-effect="non-scaling-stroke" d="
  M 824.67 799.21
  L 836.99 828.27
  A 1.24 1.24 0.0 0 0 839.28 828.27
  L 851.44 799.04
  A 0.43 0.43 0.0 0 1 852.27 799.20
  L 852.27 825.03
  A 1.64 1.63 78.7 0 1 851.27 826.54
  L 849.13 827.45
  A 0.51 0.51 0.0 0 0 849.33 828.43
  L 860.41 828.43
  A 0.56 0.56 0.0 0 0 860.54 827.33
  Q 858.91 826.96 858.13 825.44
  A 2.23 2.18 -59.6 0 1 857.89 824.48
  Q 857.39 802.79 857.54 795.50
  Q 857.58 793.67 860.26 793.08
  A 0.52 0.52 0.0 0 0 860.67 792.57
  L 860.67 792.26
  A 0.45 0.45 0.0 0 0 860.22 791.81
  L 852.88 791.81
  A 1.59 1.58 -78.5 0 0 851.42 792.78
  L 840.20 819.76
  A 0.46 0.46 0.0 0 1 839.35 819.76
  L 827.79 792.47
  A 1.08 1.07 78.4 0 0 826.80 791.81
  L 818.50 791.81
  A 0.41 0.41 0.0 0 0 818.09 792.22
  L 818.09 792.57
  A 0.43 0.41 4.9 0 0 818.45 792.98
  Q 820.08 793.25 821.06 794.28
  A 1.45 1.45 0.0 0 1 821.46 795.28
  L 821.46 824.19
  A 2.68 2.68 0.0 0 1 819.82 826.66
  L 817.85 827.50
  A 0.49 0.49 0.0 0 0 818.04 828.44
  L 826.71 828.44
  A 0.47 0.47 0.0 0 0 826.81 827.51
  Q 823.52 826.80 823.69 823.00
  Q 824.24 810.26 824.04 799.34
  A 0.33 0.33 0.0 0 1 824.67 799.21"
/>
<path stroke="#818ca0" vector-effect="non-scaling-stroke" d="
  M 502.58 825.70
  A 3.34 3.34 0.0 0 0 499.24 822.36
  A 3.34 3.34 0.0 0 0 495.90 825.70
  A 3.34 3.34 0.0 0 0 499.24 829.04
  A 3.34 3.34 0.0 0 0 502.58 825.70"
/>
<path stroke="#eccd9b" vector-effect="non-scaling-stroke" d="
  M 492.36 871.45
  Q 492.36 871.77 492.59 871.84
  Q 498.79 873.77 504.14 877.79
  A 4.57 4.42 87.9 0 1 504.93 878.55
  C 508.19 882.57 510.03 887.79 511.66 893.33
  Q 511.87 894.06 512.60 893.88
  Q 512.77 893.84 512.83 893.56
  Q 514.63 885.53 519.13 878.85
  A 3.14 3.06 89.2 0 1 519.83 878.11
  Q 525.39 873.81 531.49 871.90
  Q 531.60 871.86 531.67 871.75
  Q 531.74 871.64 531.74 871.52
  Q 531.74 871.41 531.68 871.30
  Q 531.60 871.19 531.49 871.15
  Q 525.40 869.22 519.85 864.90
  A 3.14 3.06 -89.0 0 1 519.16 864.15
  Q 514.68 857.46 512.91 849.42
  Q 512.85 849.14 512.68 849.10
  Q 511.95 848.92 511.74 849.65
  C 510.09 855.18 508.23 860.40 504.96 864.40
  A 4.57 4.42 -87.7 0 1 504.16 865.16
  Q 498.80 869.16 492.59 871.07
  Q 492.36 871.14 492.36 871.45"
/>
<path stroke="#eccd9b" vector-effect="non-scaling-stroke" d="
  M 163.86 871.32
  Q 163.86 871.91 165.02 871.91
  Q 347.78 872.24 349.50 872.25
  Q 399.21 872.52 452.50 874.02
  Q 463.82 874.34 477.22 875.20
  A 1.86 1.84 -59.7 0 0 478.31 874.91
  Q 480.04 873.82 481.29 871.66
  C 481.33 871.59 481.32 871.62 481.32 871.50
  C 481.32 871.42 481.33 871.45 481.29 871.38
  Q 480.04 869.22 478.31 868.13
  A 1.86 1.84 59.7 0 0 477.23 867.83
  Q 463.82 868.68 452.50 868.98
  Q 399.21 870.40 349.50 870.60
  Q 347.78 870.60 165.02 870.66
  Q 163.86 870.66 163.86 871.32"
/>
<path stroke="#eccd9b" vector-effect="non-scaling-stroke" d="
  M 860.52 871.34
  Q 860.52 870.68 859.36 870.68
  Q 676.59 870.58 674.87 870.58
  Q 625.16 870.37 571.86 868.94
  Q 560.54 868.63 547.14 867.79
  A 1.86 1.84 -59.7 0 0 546.05 868.08
  Q 544.32 869.17 543.07 871.34
  C 543.04 871.40 543.05 871.38 543.05 871.46
  C 543.05 871.57 543.04 871.55 543.07 871.61
  Q 544.32 873.77 546.05 874.86
  A 1.86 1.84 59.7 0 0 547.14 875.15
  Q 560.54 874.30 571.87 873.98
  Q 625.16 872.49 674.87 872.23
  Q 676.59 872.22 859.36 871.93
  Q 860.52 871.93 860.52 871.34"
/>
<path stroke="#edc277" vector-effect="non-scaling-stroke" d="
  M 710.99 308.43
  Q 718.96 319.99 725.08 331.75
  C 727.43 336.25 728.61 339.79 730.48 343.76
  Q 732.19 347.37 734.08 352.97
  Q 746.47 389.66 744.88 428.53
  C 744.55 436.41 744.53 440.14 743.35 446.59
  Q 742.52 451.15 741.91 456.68
  A 0.56 0.55 89.6 0 0 742.52 457.29
  Q 764.54 454.68 786.76 448.21
  A 0.41 0.40 86.5 0 1 787.27 448.67
  Q 783.01 475.44 770.06 499.53
  A 0.24 0.23 33.8 0 0 770.12 499.81
  L 770.33 499.99
  A 0.43 0.43 0.0 0 0 770.98 499.87
  Q 789.83 465.66 791.64 427.48
  Q 793.65 384.76 775.79 345.19
  Q 758.59 307.06 725.27 282.50
  Q 724.62 282.02 723.80 282.04
  A 0.05 0.05 0.0 0 0 723.77 282.13
  L 739.02 295.09
  A 0.54 0.53 -36.3 0 1 738.88 295.99
  L 711.19 307.72
  A 0.47 0.47 0.0 0 0 710.99 308.43"
/>
<path stroke="#818ca0" vector-effect="non-scaling-stroke" d="
  M 775.93 813.60
  A 0.34 0.34 0.0 0 0 776.25 814.07
  L 787.29 814.05
  A 0.34 0.34 0.0 0 0 787.60 813.58
  L 782.06 800.10
  A 0.34 0.34 0.0 0 0 781.43 800.10
  L 775.93 813.60"
/>
<path stroke="#818ca0" vector-effect="non-scaling-stroke" d="
  M 668.29 813.55
  A 0.38 0.38 0.0 0 0 668.64 814.07
  L 679.40 814.09
  A 0.38 0.38 0.0 0 0 679.76 813.57
  L 674.40 800.22
  A 0.38 0.38 0.0 0 0 673.69 800.22
  L 668.29 813.55"
/>
<path stroke="#818ca0" vector-effect="non-scaling-stroke" d="
  M 451.56 795.36
  L 451.40 825.06
  A 1.30 1.30 0.0 0 0 452.70 826.36
  L 458.05 826.39
  A 14.32 13.41 -89.7 0 0 471.53 812.14
  L 471.55 808.48
  A 14.32 13.41 -89.7 0 0 458.21 794.09
  L 452.86 794.06
  A 1.30 1.30 0.0 0 0 451.56 795.36"
/>
<path stroke="#818ca0" vector-effect="non-scaling-stroke" d="
  M 616.69 794.84
  L 616.91 808.60
  A 0.68 0.68 0.0 0 0 617.60 809.27
  L 622.75 809.19
  A 7.15 6.59 -0.9 0 0 629.79 802.49
  L 629.76 800.55
  A 7.15 6.59 -0.9 0 0 622.51 794.07
  L 617.36 794.15
  A 0.68 0.68 0.0 0 0 616.69 794.84"
/>
</g>
<path fill="#fbf4ec" d="
  M 1024.00 0.00
  L 1024.00 1024.00
  L 0.00 1024.00
  L 0.00 0.00
  L 1024.00 0.00
  Z
  M 228.91 145.05
  L 228.80 146.26
  A 0.44 0.44 0.0 0 0 229.23 146.74
  Q 233.78 146.82 241.51 147.95
  Q 256.44 150.13 267.54 159.95
  Q 268.28 160.60 267.89 160.74
  Q 269.55 163.91 271.75 166.75
  Q 272.73 168.04 275.62 174.59
  Q 277.50 178.86 278.08 182.88
  Q 279.64 193.74 279.75 199.76
  Q 279.98 212.13 279.94 248.75
  C 279.81 362.87 280.10 445.96 279.75 519.75
  Q 279.70 530.69 277.83 540.12
  Q 277.11 543.73 274.29 550.16
  A 1.08 0.28 -75.7 0 1 274.23 550.27
  L 268.48 559.44
  Q 262.31 565.08 254.23 567.74
  A 2.21 0.20 -7.0 0 1 253.26 567.95
  Q 252.02 568.17 251.01 568.89
  Q 250.22 569.45 248.11 569.58
  Q 246.03 569.71 244.12 570.07
  Q 240.56 569.70 237.25 570.79
  A 1.46 1.41 40.9 0 1 236.47 570.83
  L 234.70 570.43
  A 0.69 0.69 0.0 0 0 233.86 571.10
  L 233.86 576.14
  A 0.35 0.35 0.0 0 0 234.21 576.49
  L 391.73 576.49
  A 0.66 0.66 0.0 0 0 392.39 575.83
  L 392.39 570.78
  A 0.63 0.63 0.0 0 0 391.79 570.15
  Q 384.49 569.80 376.78 567.82
  Q 375.79 567.56 371.15 565.26
  A 5.43 5.01 64.0 0 0 370.18 564.88
  C 365.18 563.45 359.47 558.90 355.88 555.28
  A 0.75 0.68 -87.1 0 1 355.79 555.17
  L 350.57 547.92
  Q 347.09 540.45 346.10 534.00
  Q 345.58 530.64 345.30 523.84
  Q 345.13 519.73 345.16 513.66
  Q 345.45 464.59 345.32 415.53
  L 345.79 379.27
  Q 346.14 378.18 348.48 376.94
  Q 354.69 373.05 359.19 367.15
  A 3.68 3.57 -87.9 0 1 359.90 366.47
  Q 363.51 363.91 365.60 361.59
  Q 368.37 358.51 371.34 355.59
  Q 373.16 353.81 374.23 353.34
  A 1.81 1.80 -32.1 0 1 376.33 353.82
  Q 399.89 381.77 416.14 401.11
  Q 420.38 406.17 426.08 412.95
  Q 435.11 423.72 448.39 440.07
  C 450.21 442.31 452.65 444.47 454.24 446.62
  Q 461.82 456.81 471.10 467.31
  C 473.88 470.45 476.30 474.04 479.42 477.43
  C 485.27 483.78 490.81 491.29 495.55 496.76
  C 502.20 504.44 507.83 511.71 514.91 519.72
  Q 518.06 523.29 522.26 528.48
  Q 531.35 539.69 542.15 550.11
  Q 557.02 564.46 576.37 571.84
  Q 581.89 573.95 593.64 576.40
  Q 597.11 577.12 604.20 577.25
  Q 610.31 577.36 614.85 577.73
  C 619.29 578.10 623.09 577.58 627.50 577.60
  C 630.38 577.60 633.44 578.18 636.51 578.03
  Q 656.70 577.00 657.10 577.07
  A 0.59 0.59 0.0 0 0 657.79 576.55
  C 658.03 574.12 657.55 573.27 655.22 572.20
  Q 648.97 569.31 640.44 564.09
  Q 622.03 552.83 609.61 540.91
  Q 602.79 534.36 595.03 525.50
  Q 581.82 510.43 570.32 496.27
  Q 550.04 471.31 528.31 444.43
  C 527.47 443.39 526.25 442.41 525.59 441.45
  Q 522.34 436.67 519.36 433.12
  A 0.98 0.96 -53.3 0 1 519.22 432.10
  C 519.37 431.77 520.70 431.11 521.31 430.36
  Q 527.56 422.73 533.94 418.65
  Q 535.40 417.72 535.77 417.24
  A 1.99 0.45 -57.8 0 1 536.47 416.54
  L 546.07 410.45
  Q 550.35 407.10 553.15 406.48
  A 4.56 4.50 22.6 0 0 554.41 405.97
  Q 555.44 405.33 557.24 404.52
  Q 561.57 402.57 562.36 402.40
  Q 563.22 402.22 566.12 401.35
  Q 569.36 400.37 569.82 400.18
  Q 572.72 398.94 574.53 398.47
  A 2.99 2.97 39.5 0 1 575.61 398.37
  Q 579.04 398.66 582.19 397.18
  A 2.86 2.80 -58.0 0 1 583.30 396.91
  Q 587.87 396.70 591.94 395.47
  A 2.39 2.35 -53.6 0 1 592.51 395.38
  Q 614.15 394.80 618.82 395.43
  Q 624.96 396.27 628.00 396.07
  Q 653.21 400.16 672.15 417.34
  Q 676.85 421.60 678.05 423.45
  Q 680.11 426.65 682.39 429.53
  A 1.45 1.45 0.0 0 1 682.69 430.21
  Q 682.72 430.36 682.74 430.48
  A 2.33 2.26 -69.5 0 0 683.13 431.37
  Q 687.27 437.16 689.25 443.85
  L 690.21 448.75
  A 1.11 1.11 0.0 0 0 691.30 449.64
  L 694.36 449.64
  A 0.91 0.91 0.0 0 0 695.27 448.76
  Q 695.86 431.34 695.49 417.28
  Q 695.42 414.36 695.03 394.22
  A 0.74 0.73 -81.8 0 0 694.52 393.53
  L 684.33 390.16
  A 1.39 1.13 -24.4 0 0 684.10 390.10
  Q 676.74 389.02 671.38 387.69
  Q 662.12 385.39 659.08 385.11
  C 652.92 384.52 644.94 384.03 638.05 382.88
  Q 634.48 382.29 629.74 382.08
  Q 613.36 381.36 595.41 382.25
  C 587.54 382.65 580.86 383.90 572.64 384.94
  C 564.89 385.92 558.42 387.57 551.73 388.83
  C 546.41 389.84 541.95 392.23 537.10 393.59
  Q 531.96 395.04 526.27 397.50
  Q 512.95 403.29 501.51 409.72
  A 1.02 1.02 0.0 0 1 500.24 409.51
  C 498.80 407.88 497.30 406.39 496.08 404.67
  Q 494.26 402.11 492.24 399.71
  Q 488.48 395.25 488.42 395.20
  Q 487.73 394.57 441.15 336.87
  Q 437.89 332.83 435.09 329.61
  C 429.74 323.45 425.23 317.45 420.19 311.84
  A 1.55 1.55 0.0 0 1 420.25 309.71
  Q 427.87 302.06 437.11 293.44
  Q 443.32 287.66 450.17 280.85
  Q 456.39 274.67 463.39 268.39
  C 464.40 267.48 465.82 264.59 467.84 263.76
  A 2.64 2.43 9.8 0 0 468.60 263.27
  Q 471.40 260.65 474.14 258.01
  Q 474.20 257.95 478.50 254.13
  Q 481.97 251.05 484.47 246.94
  Q 484.74 246.50 485.07 246.23
  Q 485.68 246.76 486.27 246.33
  C 490.85 243.05 494.86 237.91 499.53 234.38
  Q 500.86 233.38 503.93 230.08
  C 506.76 227.03 510.54 224.00 513.52 221.14
  Q 518.37 216.48 532.76 203.00
  A 3.06 2.79 -75.9 0 1 533.53 202.49
  Q 534.18 202.19 534.43 201.94
  C 537.11 199.18 540.04 197.08 542.65 194.49
  Q 546.98 190.20 548.69 188.67
  Q 559.18 179.32 570.47 169.23
  Q 570.55 169.16 571.64 168.34
  C 580.57 161.64 587.00 156.79 596.63 152.75
  C 601.82 150.57 609.59 148.92 615.98 147.03
  L 619.45 146.67
  L 621.57 147.06
  A 0.71 0.71 0.0 0 0 622.41 146.36
  L 622.41 143.13
  A 0.77 0.76 -89.2 0 0 621.67 142.36
  Q 608.34 142.01 600.50 141.98
  Q 569.83 141.85 506.80 142.17
  Q 503.21 142.19 501.83 142.42
  Q 498.85 142.90 496.96 142.53
  A 0.60 0.60 0.0 0 0 496.25 143.09
  Q 496.23 143.70 496.65 144.56
  A 1.05 1.02 42.2 0 1 496.70 145.33
  L 496.49 145.97
  A 0.57 0.57 0.0 0 0 496.92 146.71
  Q 497.71 146.88 498.54 146.68
  C 505.05 148.01 511.02 150.05 515.19 155.45
  Q 520.58 166.84 516.76 177.26
  Q 514.34 183.87 513.25 185.94
  Q 511.86 188.59 504.35 199.00
  Q 500.70 204.05 494.14 211.06
  Q 481.32 224.74 474.52 231.52
  Q 467.40 238.62 465.98 240.20
  C 462.87 243.66 458.76 246.74 455.87 250.19
  C 453.23 253.35 451.49 254.67 447.85 257.93
  C 443.26 262.03 439.12 266.67 434.06 271.37
  Q 431.68 273.56 426.34 279.00
  Q 420.68 284.77 417.42 287.67
  Q 416.51 288.48 414.97 289.96
  Q 412.23 292.56 400.72 304.23
  Q 377.59 327.65 349.65 354.75
  C 348.74 355.63 348.00 357.10 346.79 357.77
  A 0.32 0.32 0.0 0 1 346.32 357.45
  Q 346.41 356.75 345.77 355.62
  A 2.45 2.42 34.3 0 1 345.48 354.13
  C 346.14 348.54 346.08 342.93 345.84 336.05
  Q 345.68 331.62 345.69 321.94
  Q 345.70 282.83 345.34 243.71
  L 345.33 225.53
  Q 346.16 208.36 345.41 191.21
  Q 345.40 180.53 348.95 170.69
  Q 350.87 165.36 353.78 161.62
  Q 357.31 157.11 361.22 154.50
  C 370.19 148.52 381.85 147.01 392.81 146.54
  L 393.79 143.11
  A 0.60 0.60 0.0 0 0 393.21 142.35
  C 385.75 142.43 379.18 141.91 370.59 141.95
  Q 310.85 142.24 256.64 142.39
  C 249.13 142.40 241.49 141.57 233.99 142.47
  Q 231.47 142.77 228.88 142.63
  A 0.57 0.57 0.0 0 0 228.31 143.40
  L 228.91 145.05
  Z
  M 649.20 566.82
  L 663.28 573.62
  A 2.61 2.54 -34.5 0 0 664.68 573.86
  Q 671.18 573.09 680.07 570.85
  Q 718.24 561.24 745.01 535.98
  C 779.72 503.21 796.28 455.51 792.87 407.68
  C 789.18 356.08 764.45 306.75 720.91 277.64
  Q 708.74 269.50 699.99 265.32
  Q 685.37 258.35 663.03 252.64
  Q 659.06 251.63 656.60 251.26
  C 650.98 250.41 644.77 248.92 640.41 248.40
  Q 621.33 246.12 601.00 246.03
  Q 585.65 245.95 492.92 246.04
  A 1.04 1.04 0.0 0 0 491.88 247.08
  L 491.88 249.70
  A 1.27 1.26 5.2 0 0 492.92 250.94
  Q 500.43 252.25 505.90 254.93
  C 519.81 261.76 522.45 275.27 522.74 289.50
  C 523.03 304.00 522.98 326.04 523.54 346.56
  Q 523.94 361.20 523.52 371.20
  Q 522.94 384.95 522.84 390.97
  A 0.95 0.95 0.0 0 0 524.18 391.86
  C 536.17 386.56 544.76 384.54 560.82 380.47
  C 562.89 379.94 565.33 379.88 566.99 379.24
  A 1.87 1.87 0.0 0 0 568.19 377.54
  C 568.31 372.72 567.51 366.89 567.44 360.84
  Q 567.15 336.14 567.60 319.80
  C 568.29 294.70 568.09 282.94 568.13 255.54
  A 0.65 0.64 -1.4 0 1 568.75 254.90
  Q 585.14 254.25 602.61 254.94
  Q 622.21 255.72 636.20 259.17
  Q 669.85 267.46 694.48 291.30
  C 713.87 310.08 728.14 336.26 735.51 362.42
  Q 746.02 399.73 742.63 440.31
  C 742.42 442.85 741.90 445.33 741.51 448.96
  Q 739.34 469.26 731.05 491.33
  C 722.70 513.57 709.21 533.41 690.48 547.71
  C 678.23 557.06 664.26 562.96 649.33 565.79
  A 0.55 0.55 0.0 0 0 649.20 566.82
  Z
  M 345.82 445.99
  A 0.22 0.22 0.0 0 0 345.60 445.77
  A 0.22 0.22 0.0 0 0 345.38 445.99
  L 345.38 470.01
  A 0.22 0.22 0.0 0 0 345.60 470.23
  A 0.22 0.22 0.0 0 0 345.82 470.01
  L 345.82 445.99
  Z
  M 737.93 620.22
  Q 738.49 616.26 739.73 611.75
  Q 743.96 596.36 758.77 591.70
  Q 759.83 591.36 762.25 590.92
  Q 764.15 590.57 765.73 590.07
  Q 767.40 590.53 768.73 590.17
  A 0.85 0.84 83.0 0 0 769.36 589.35
  L 769.36 586.71
  A 1.08 1.08 0.0 0 0 768.28 585.63
  C 736.76 585.82 707.58 585.11 678.41 585.44
  C 667.58 585.56 655.41 585.27 642.76 585.53
  C 638.30 585.62 634.62 585.15 630.74 585.49
  C 623.46 586.14 616.70 585.29 609.09 585.81
  Q 599.76 586.46 590.47 585.65
  A 0.52 0.52 0.0 0 0 589.90 586.17
  L 589.90 589.09
  A 0.71 0.70 -0.4 0 0 590.62 589.79
  L 601.57 589.60
  Q 613.40 589.90 625.31 590.08
  Q 639.53 590.30 653.37 593.41
  Q 659.11 594.70 665.74 598.04
  Q 667.56 599.96 669.99 601.18
  A 2.98 2.80 -6.9 0 1 670.75 601.74
  Q 675.88 607.01 677.48 609.54
  Q 680.04 613.59 681.38 620.34
  Q 682.64 626.73 682.67 634.75
  Q 682.79 666.43 682.66 695.75
  Q 682.65 696.09 682.20 703.66
  A 1.27 1.26 -19.5 0 1 681.78 704.53
  Q 671.96 713.12 670.10 714.12
  Q 659.05 720.06 648.54 722.74
  Q 634.50 726.34 618.54 727.14
  C 615.23 727.30 611.04 726.70 607.43 726.68
  Q 604.04 726.66 599.14 725.76
  Q 585.67 723.27 581.80 722.37
  C 578.57 721.62 575.14 720.18 571.98 719.31
  Q 568.57 718.37 564.69 716.83
  Q 526.26 701.56 500.82 668.48
  Q 493.69 659.21 488.49 649.77
  Q 487.03 647.12 482.69 638.52
  C 477.73 628.69 474.78 619.01 471.52 607.55
  C 469.99 602.15 469.13 596.39 467.91 590.44
  Q 466.40 583.15 465.89 577.51
  C 464.45 561.64 464.05 545.01 466.89 529.44
  Q 469.68 514.17 469.71 513.97
  C 470.65 507.85 473.49 502.05 474.75 495.81
  A 2.45 1.73 -45.2 0 1 474.85 495.51
  L 479.64 484.26
  A 1.41 1.40 -53.7 0 0 479.42 482.80
  L 451.11 449.32
  A 0.60 0.59 47.9 0 0 450.25 449.27
  Q 447.57 451.83 445.45 454.21
  Q 413.20 490.35 405.42 538.20
  Q 404.61 543.16 403.25 556.81
  C 402.51 564.27 403.30 571.61 403.21 578.53
  C 403.14 583.27 404.31 587.30 404.78 592.22
  Q 405.26 597.29 406.31 602.44
  Q 413.73 638.97 435.27 667.74
  Q 464.81 707.22 510.46 727.77
  Q 526.27 734.89 549.88 740.61
  C 554.33 741.69 557.88 741.82 561.56 742.50
  Q 566.48 743.42 570.36 743.88
  Q 594.64 746.79 619.75 745.70
  Q 623.91 745.52 641.66 743.82
  C 645.58 743.44 649.12 742.44 652.94 741.94
  Q 657.57 741.35 661.40 740.47
  C 688.27 734.33 714.32 723.49 737.17 707.97
  A 0.97 0.97 0.0 0 0 737.59 707.17
  L 737.93 620.22
  Z
  M 576.03 812.23
  Q 579.32 812.54 579.31 816.26
  Q 579.30 818.73 579.18 824.36
  A 1.21 1.19 79.4 0 1 578.45 825.44
  C 568.58 829.63 559.61 824.11 558.23 813.91
  C 557.54 808.73 557.86 802.60 561.48 798.01
  Q 565.75 792.59 573.02 793.60
  C 579.53 794.51 581.01 797.05 583.15 802.45
  A 0.57 0.57 0.0 0 0 584.25 802.24
  L 584.25 795.00
  A 1.08 1.08 0.0 0 0 583.62 794.02
  C 573.72 789.57 560.12 790.41 554.16 800.26
  Q 550.27 806.69 551.69 814.30
  C 553.74 825.21 564.09 830.07 574.13 828.87
  Q 579.18 828.27 584.31 825.99
  A 0.58 0.56 78.0 0 0 584.64 825.47
  L 584.75 814.46
  A 1.28 1.26 59.5 0 1 584.90 813.86
  Q 585.56 812.63 586.94 812.34
  A 0.75 0.75 0.0 0 0 586.78 810.86
  L 575.84 810.86
  A 0.42 0.41 -90.0 0 0 575.43 811.28
  L 575.43 811.57
  A 0.66 0.65 -87.6 0 0 576.03 812.23
  Z
  M 789.57 828.46
  L 801.30 828.50
  A 0.52 0.52 0.0 0 0 801.44 827.48
  Q 798.82 826.69 797.96 824.55
  Q 790.96 807.23 784.72 792.14
  A 1.34 1.34 0.0 0 0 782.24 792.15
  L 768.17 825.61
  A 1.50 1.48 89.8 0 1 767.39 826.41
  L 765.03 827.39
  A 0.53 0.52 -56.1 0 0 765.23 828.41
  L 774.01 828.44
  A 0.56 0.56 0.0 0 0 774.23 827.35
  L 772.09 826.46
  A 0.93 0.93 0.0 0 1 771.56 825.30
  L 774.35 816.98
  A 0.97 0.96 -80.5 0 1 775.27 816.32
  L 787.81 816.36
  A 0.83 0.82 -11.0 0 1 788.57 816.87
  L 791.93 824.89
  A 0.98 0.97 57.1 0 1 791.71 825.97
  Q 790.82 826.83 789.37 827.34
  A 0.58 0.58 0.0 0 0 789.57 828.46
  Z
  M 681.93 828.43
  L 693.64 828.43
  A 0.52 0.52 0.0 0 0 693.78 827.41
  Q 691.16 826.63 690.29 824.50
  Q 683.25 807.23 676.96 792.19
  A 1.34 1.34 0.0 0 0 674.49 792.20
  L 660.56 825.66
  A 1.50 1.48 89.6 0 1 659.78 826.46
  L 657.43 827.45
  A 0.53 0.52 -56.3 0 0 657.63 828.46
  L 666.40 828.46
  A 0.56 0.56 0.0 0 0 666.61 827.38
  L 664.47 826.49
  A 0.93 0.93 0.0 0 1 663.94 825.34
  L 666.70 817.02
  A 0.97 0.96 -80.7 0 1 667.61 816.36
  L 680.13 816.36
  A 0.83 0.82 -11.2 0 1 680.89 816.86
  L 684.28 824.86
  A 0.98 0.97 56.9 0 1 684.06 825.94
  Q 683.17 826.80 681.73 827.31
  A 0.58 0.58 0.0 0 0 681.93 828.43
  Z
  M 172.54 808.77
  Q 172.37 804.58 172.62 796.14
  C 172.68 793.92 173.65 793.51 175.56 793.06
  A 0.48 0.47 -7.0 0 0 175.93 792.60
  L 175.93 792.23
  A 0.45 0.45 0.0 0 0 175.48 791.78
  L 164.04 791.78
  A 0.34 0.34 0.0 0 0 163.70 792.12
  L 163.70 792.42
  A 0.67 0.67 0.0 0 0 164.28 793.08
  Q 166.74 793.44 166.75 795.53
  Q 166.81 805.92 166.78 824.74
  Q 166.78 826.69 164.14 827.27
  A 0.63 0.61 -6.5 0 0 163.65 827.87
  L 163.65 828.15
  A 0.29 0.29 0.0 0 0 163.94 828.44
  L 175.68 828.44
  A 0.49 0.48 -26.2 0 0 175.98 827.57
  Q 175.55 827.25 174.38 826.92
  C 172.29 826.33 172.55 824.62 172.55 822.43
  Q 172.54 816.67 172.77 812.53
  A 1.58 1.58 0.0 0 1 175.53 811.58
  Q 182.66 819.77 186.99 824.99
  Q 188.54 826.86 190.53 828.05
  A 2.70 2.63 59.5 0 0 191.88 828.42
  L 198.72 828.42
  A 0.51 0.51 0.0 0 0 198.93 827.45
  L 195.90 826.07
  A 1.64 1.56 80.1 0 1 195.36 825.67
  L 179.19 807.51
  A 0.79 0.79 0.0 0 1 179.22 806.42
  Q 184.30 801.37 190.89 795.39
  Q 192.62 793.82 195.92 793.19
  A 0.73 0.72 84.8 0 0 196.51 792.47
  L 196.51 792.19
  A 0.41 0.40 90.0 0 0 196.11 791.78
  L 186.27 791.81
  A 0.79 0.79 0.0 0 0 185.49 792.47
  L 185.48 792.50
  A 0.58 0.57 -80.6 0 0 185.91 793.11
  Q 186.50 793.26 187.11 793.82
  A 0.66 0.66 0.0 0 1 187.22 794.67
  Q 185.79 796.84 184.29 798.29
  Q 177.39 804.94 173.29 809.06
  A 0.44 0.44 0.0 0 1 172.54 808.77
  Z
  M 245.26 791.79
  L 219.63 791.79
  A 0.62 0.62 0.0 0 0 219.50 793.02
  Q 221.01 793.32 221.92 794.32
  A 1.95 1.93 -66.5 0 1 222.45 795.68
  Q 222.30 813.57 222.44 823.29
  Q 222.49 826.83 219.44 827.33
  Q 219.42 827.33 219.22 827.64
  Q 218.95 828.03 219.31 828.33
  A 0.39 0.38 -23.6 0 0 219.57 828.43
  L 245.99 828.43
  A 0.72 0.71 3.6 0 0 246.70 827.81
  L 247.63 820.90
  A 0.72 0.72 0.0 0 0 247.08 820.10
  L 247.05 820.09
  A 0.59 0.59 0.0 0 0 246.37 820.51
  Q 244.78 825.81 239.42 826.08
  Q 234.20 826.34 230.37 826.30
  Q 228.17 826.28 228.42 824.08
  Q 228.42 824.02 228.36 822.93
  Q 228.23 820.81 228.41 811.27
  A 0.53 0.52 -89.4 0 1 228.93 810.75
  L 237.72 810.75
  A 2.20 2.18 78.3 0 1 239.73 812.09
  L 240.68 814.33
  A 0.65 0.65 0.0 0 0 241.93 814.07
  L 241.93 804.91
  A 0.46 0.45 -85.6 0 0 241.55 804.46
  L 241.28 804.43
  A 0.55 0.54 -78.8 0 0 240.68 804.84
  C 240.18 806.99 239.52 808.34 236.87 808.35
  Q 229.79 808.37 228.78 808.33
  A 0.51 0.51 0.0 0 1 228.30 807.82
  L 228.30 794.82
  A 0.63 0.63 0.0 0 1 228.93 794.19
  L 240.45 794.19
  A 3.11 3.10 -11.4 0 1 243.31 796.08
  L 244.84 799.67
  A 0.67 0.67 0.0 0 0 246.13 799.41
  L 246.13 792.66
  A 0.87 0.87 0.0 0 0 245.26 791.79
  Z
  M 287.46 820.22
  Q 282.64 809.14 277.37 795.70
  A 1.59 1.46 75.1 0 1 278.49 793.56
  Q 279.36 793.45 280.02 792.65
  A 0.52 0.52 0.0 0 0 279.61 791.80
  L 267.66 791.80
  A 0.66 0.65 56.3 0 0 267.41 793.06
  L 269.45 793.90
  A 2.17 2.14 0.2 0 1 270.59 795.03
  L 284.67 828.28
  A 1.29 1.28 60.1 0 0 286.62 828.81
  Q 287.25 828.34 287.86 826.83
  Q 289.47 822.87 299.53 798.83
  C 300.76 795.89 301.29 793.93 304.15 793.08
  A 0.64 0.64 0.0 0 0 303.97 791.82
  Q 296.43 791.81 295.32 791.85
  Q 294.99 791.86 294.83 792.32
  Q 294.61 792.93 295.22 793.14
  L 296.99 793.75
  A 1.71 1.71 0.0 0 1 297.88 795.95
  L 288.07 820.21
  A 0.33 0.33 0.0 0 1 287.46 820.22
  Z
  M 326.59 810.15
  Q 326.60 824.71 326.58 824.79
  A 3.61 3.48 -28.4 0 1 326.25 825.84
  Q 325.79 826.72 323.50 827.45
  A 0.49 0.49 0.0 0 0 323.61 828.41
  Q 324.36 828.46 329.49 828.46
  Q 334.62 828.46 335.37 828.40
  A 0.49 0.49 0.0 0 0 335.49 827.44
  Q 333.20 826.72 332.74 825.84
  A 3.61 3.48 28.3 0 1 332.40 824.79
  Q 332.39 824.70 332.38 810.15
  Q 332.37 795.60 332.38 795.51
  A 3.61 3.48 -28.4 0 1 332.72 794.47
  Q 333.18 793.59 335.47 792.86
  A 0.49 0.49 0.0 0 0 335.35 791.90
  Q 334.60 791.84 329.47 791.84
  Q 324.34 791.85 323.59 791.90
  A 0.49 0.49 0.0 0 0 323.48 792.86
  Q 325.77 793.59 326.23 794.47
  A 3.61 3.48 28.3 0 1 326.57 795.52
  Q 326.58 795.60 326.59 810.15
  Z
  M 386.19 818.69
  L 365.64 792.12
  A 0.93 0.92 70.8 0 0 364.91 791.76
  L 357.39 791.76
  A 0.66 0.66 0.0 0 0 357.21 793.06
  C 359.13 793.61 360.19 794.60 360.27 796.82
  Q 360.50 803.34 360.39 821.62
  Q 360.37 824.25 360.01 825.65
  A 1.10 1.05 87.0 0 1 359.39 826.37
  L 357.13 827.33
  A 0.58 0.58 0.0 0 0 357.36 828.45
  L 366.32 828.45
  A 0.56 0.55 -39.4 0 0 366.43 827.35
  Q 364.58 827.00 363.40 826.00
  A 1.51 1.50 -70.0 0 1 362.87 824.85
  L 362.87 798.89
  A 0.37 0.37 0.0 0 1 363.53 798.67
  L 386.45 828.30
  A 1.62 1.61 26.2 0 0 389.35 827.32
  L 389.35 795.49
  A 1.75 1.74 78.6 0 1 390.41 793.88
  L 392.47 793.01
  A 0.63 0.62 -56.4 0 0 392.23 791.81
  L 383.40 791.81
  A 0.41 0.41 0.0 0 0 382.99 792.22
  L 382.99 792.52
  A 0.75 0.74 2.1 0 0 383.69 793.26
  C 387.00 793.50 386.56 795.74 386.58 798.25
  Q 386.66 811.37 386.64 818.53
  A 0.25 0.25 0.0 0 1 386.19 818.69
  Z
  M 445.81 810.08
  Q 445.85 816.95 445.85 824.61
  A 2.10 2.10 0.0 0 1 444.57 826.54
  L 442.70 827.32
  A 0.52 0.52 0.0 0 0 442.63 828.24
  Q 442.87 828.40 443.52 828.40
  Q 450.90 828.39 457.24 828.34
  C 468.79 828.26 478.21 822.43 478.14 809.88
  C 478.06 797.34 468.56 791.62 457.02 791.68
  Q 450.68 791.70 443.30 791.78
  Q 442.65 791.79 442.41 791.96
  A 0.52 0.52 0.0 0 0 442.49 792.87
  L 444.37 793.63
  A 2.10 2.10 0.0 0 1 445.67 795.55
  Q 445.77 803.21 445.81 810.08
  Z
  M 626.54 811.14
  A 0.35 0.35 0.0 0 1 626.68 810.53
  C 632.71 808.99 636.70 806.11 635.72 799.18
  C 634.93 793.57 628.39 791.97 623.49 791.84
  Q 618.34 791.70 607.99 791.87
  A 0.53 0.53 0.0 0 0 607.83 792.91
  L 609.19 793.36
  A 2.60 2.59 9.6 0 1 610.97 795.85
  Q 610.79 810.01 610.99 820.96
  C 611.04 824.23 611.60 826.62 607.92 827.35
  A 0.55 0.55 0.0 0 0 608.03 828.44
  L 620.05 828.44
  A 0.34 0.34 0.0 0 0 620.39 828.10
  L 620.39 827.82
  A 0.52 0.52 0.0 0 0 619.97 827.31
  Q 617.99 826.95 617.06 825.77
  A 1.37 1.32 26.7 0 1 616.77 824.94
  L 616.77 812.25
  A 0.92 0.92 0.0 0 1 617.54 811.34
  Q 619.40 811.04 620.78 811.61
  A 1.95 1.95 0.0 0 1 621.71 812.42
  Q 624.99 817.95 630.51 825.99
  Q 632.18 828.42 633.84 828.44
  Q 639.93 828.50 640.84 828.54
  A 0.50 0.50 0.0 0 0 641.07 827.59
  C 638.72 826.53 637.69 826.22 636.21 824.14
  Q 628.57 813.44 628.56 813.43
  Q 627.51 811.94 626.54 811.14
  Z
  M 729.98 810.72
  Q 737.13 810.73 738.62 810.86
  A 0.55 0.55 0.0 0 1 739.13 811.41
  L 739.13 824.85
  A 1.39 1.36 -31.2 0 1 738.96 825.51
  Q 738.17 826.94 736.21 827.41
  A 0.53 0.53 0.0 0 0 736.34 828.46
  L 748.04 828.46
  A 0.10 0.08 -52.0 0 0 748.08 828.45
  Q 748.42 828.25 748.29 827.71
  A 0.51 0.51 0.0 0 0 747.92 827.35
  C 745.96 826.90 745.00 826.28 745.03 823.92
  Q 745.13 814.98 745.10 795.45
  A 2.05 2.04 87.1 0 1 746.93 793.41
  Q 747.55 793.35 748.20 792.75
  A 0.54 0.54 0.0 0 0 747.84 791.81
  L 736.36 791.81
  A 0.37 0.36 0.0 0 0 735.99 792.17
  L 735.99 792.45
  A 0.69 0.68 5.1 0 0 736.56 793.12
  Q 739.02 793.54 739.09 796.24
  Q 739.24 803.22 739.09 807.83
  A 0.51 0.50 89.7 0 1 738.62 808.32
  Q 738.13 808.35 729.98 808.34
  Q 721.83 808.34 721.34 808.31
  A 0.51 0.50 -89.6 0 1 720.87 807.82
  Q 720.72 803.21 720.88 796.23
  Q 720.96 793.53 723.42 793.11
  A 0.69 0.68 -5.0 0 0 723.99 792.44
  L 723.99 792.16
  A 0.37 0.36 0.1 0 0 723.62 791.80
  L 712.14 791.79
  A 0.54 0.54 0.0 0 0 711.78 792.73
  Q 712.43 793.33 713.05 793.39
  A 2.05 2.04 -87.0 0 1 714.87 795.43
  Q 714.82 814.96 714.91 823.90
  C 714.93 826.26 713.97 826.88 712.01 827.33
  A 0.51 0.51 0.0 0 0 711.64 827.69
  Q 711.51 828.23 711.85 828.43
  A 0.10 0.08 52.1 0 0 711.89 828.44
  L 723.59 828.45
  A 0.53 0.53 0.0 0 0 723.72 827.40
  Q 721.76 826.93 720.98 825.50
  A 1.39 1.36 31.2 0 1 720.81 824.84
  L 720.82 811.40
  A 0.55 0.55 0.0 0 1 721.33 810.85
  Q 722.82 810.72 729.98 810.72
  Z
  M 824.67 799.21
  L 836.99 828.27
  A 1.24 1.24 0.0 0 0 839.28 828.27
  L 851.44 799.04
  A 0.43 0.43 0.0 0 1 852.27 799.20
  L 852.27 825.03
  A 1.64 1.63 78.7 0 1 851.27 826.54
  L 849.13 827.45
  A 0.51 0.51 0.0 0 0 849.33 828.43
  L 860.41 828.43
  A 0.56 0.56 0.0 0 0 860.54 827.33
  Q 858.91 826.96 858.13 825.44
  A 2.23 2.18 -59.6 0 1 857.89 824.48
  Q 857.39 802.79 857.54 795.50
  Q 857.58 793.67 860.26 793.08
  A 0.52 0.52 0.0 0 0 860.67 792.57
  L 860.67 792.26
  A 0.45 0.45 0.0 0 0 860.22 791.81
  L 852.88 791.81
  A 1.59 1.58 -78.5 0 0 851.42 792.78
  L 840.20 819.76
  A 0.46 0.46 0.0 0 1 839.35 819.76
  L 827.79 792.47
  A 1.08 1.07 78.4 0 0 826.80 791.81
  L 818.50 791.81
  A 0.41 0.41 0.0 0 0 818.09 792.22
  L 818.09 792.57
  A 0.43 0.41 4.9 0 0 818.45 792.98
  Q 820.08 793.25 821.06 794.28
  A 1.45 1.45 0.0 0 1 821.46 795.28
  L 821.46 824.19
  A 2.68 2.68 0.0 0 1 819.82 826.66
  L 817.85 827.50
  A 0.49 0.49 0.0 0 0 818.04 828.44
  L 826.71 828.44
  A 0.47 0.47 0.0 0 0 826.81 827.51
  Q 823.52 826.80 823.69 823.00
  Q 824.24 810.26 824.04 799.34
  A 0.33 0.33 0.0 0 1 824.67 799.21
  Z
  M 502.58 825.70
  A 3.34 3.34 0.0 0 0 499.24 822.36
  A 3.34 3.34 0.0 0 0 495.90 825.70
  A 3.34 3.34 0.0 0 0 499.24 829.04
  A 3.34 3.34 0.0 0 0 502.58 825.70
  Z
  M 492.36 871.45
  Q 492.36 871.77 492.59 871.84
  Q 498.79 873.77 504.14 877.79
  A 4.57 4.42 87.9 0 1 504.93 878.55
  C 508.19 882.57 510.03 887.79 511.66 893.33
  Q 511.87 894.06 512.60 893.88
  Q 512.77 893.84 512.83 893.56
  Q 514.63 885.53 519.13 878.85
  A 3.14 3.06 89.2 0 1 519.83 878.11
  Q 525.39 873.81 531.49 871.90
  Q 531.60 871.86 531.67 871.75
  Q 531.74 871.64 531.74 871.52
  Q 531.74 871.41 531.68 871.30
  Q 531.60 871.19 531.49 871.15
  Q 525.40 869.22 519.85 864.90
  A 3.14 3.06 -89.0 0 1 519.16 864.15
  Q 514.68 857.46 512.91 849.42
  Q 512.85 849.14 512.68 849.10
  Q 511.95 848.92 511.74 849.65
  C 510.09 855.18 508.23 860.40 504.96 864.40
  A 4.57 4.42 -87.7 0 1 504.16 865.16
  Q 498.80 869.16 492.59 871.07
  Q 492.36 871.14 492.36 871.45
  Z
  M 163.86 871.32
  Q 163.86 871.91 165.02 871.91
  Q 347.78 872.24 349.50 872.25
  Q 399.21 872.52 452.50 874.02
  Q 463.82 874.34 477.22 875.20
  A 1.86 1.84 -59.7 0 0 478.31 874.91
  Q 480.04 873.82 481.29 871.66
  C 481.33 871.59 481.32 871.62 481.32 871.50
  C 481.32 871.42 481.33 871.45 481.29 871.38
  Q 480.04 869.22 478.31 868.13
  A 1.86 1.84 59.7 0 0 477.23 867.83
  Q 463.82 868.68 452.50 868.98
  Q 399.21 870.40 349.50 870.60
  Q 347.78 870.60 165.02 870.66
  Q 163.86 870.66 163.86 871.32
  Z
  M 860.52 871.34
  Q 860.52 870.68 859.36 870.68
  Q 676.59 870.58 674.87 870.58
  Q 625.16 870.37 571.86 868.94
  Q 560.54 868.63 547.14 867.79
  A 1.86 1.84 -59.7 0 0 546.05 868.08
  Q 544.32 869.17 543.07 871.34
  C 543.04 871.40 543.05 871.38 543.05 871.46
  C 543.05 871.57 543.04 871.55 543.07 871.61
  Q 544.32 873.77 546.05 874.86
  A 1.86 1.84 59.7 0 0 547.14 875.15
  Q 560.54 874.30 571.87 873.98
  Q 625.16 872.49 674.87 872.23
  Q 676.59 872.22 859.36 871.93
  Q 860.52 871.93 860.52 871.34
  Z"
/>
<path fill="#dca549" d="
  M 392.81 146.54
  Q 392.57 144.62 391.81 143.99
  A 0.57 0.52 -22.7 0 0 391.45 143.86
  L 229.89 143.67
  A 0.89 0.89 0.0 0 0 229.01 144.43
  L 228.91 145.05
  L 228.31 143.40
  A 0.57 0.57 0.0 0 1 228.88 142.63
  Q 231.47 142.77 233.99 142.47
  C 241.49 141.57 249.13 142.40 256.64 142.39
  Q 310.85 142.24 370.59 141.95
  C 379.18 141.91 385.75 142.43 393.21 142.35
  A 0.60 0.60 0.0 0 1 393.79 143.11
  L 392.81 146.54
  Z"
/>
<path fill="#dca549" d="
  M 619.45 146.67
  L 621.24 146.31
  A 0.69 0.68 -85.6 0 0 621.77 145.85
  Q 622.09 144.93 620.99 144.02
  A 0.43 0.39 -23.5 0 0 620.73 143.93
  L 498.12 143.81
  A 1.23 1.23 0.0 0 0 496.95 145.41
  Q 497.36 146.71 498.54 146.68
  Q 497.71 146.88 496.92 146.71
  A 0.57 0.57 0.0 0 1 496.49 145.97
  L 496.70 145.33
  A 1.05 1.02 42.2 0 0 496.65 144.56
  Q 496.23 143.70 496.25 143.09
  A 0.60 0.60 0.0 0 1 496.96 142.53
  Q 498.85 142.90 501.83 142.42
  Q 503.21 142.19 506.80 142.17
  Q 569.83 141.85 600.50 141.98
  Q 608.34 142.01 621.67 142.36
  A 0.77 0.76 -89.2 0 1 622.41 143.13
  L 622.41 146.36
  A 0.71 0.71 0.0 0 1 621.57 147.06
  L 619.45 146.67
  Z"
/>
<path fill="#072353" d="
  M 392.81 146.54
  C 381.85 147.01 370.19 148.52 361.22 154.50
  Q 357.31 157.11 353.78 161.62
  Q 350.87 165.36 348.95 170.69
  Q 345.40 180.53 345.41 191.21
  Q 344.65 208.34 345.33 225.53
  L 345.34 243.71
  L 344.67 360.16
  A 0.48 0.47 -25.1 0 0 345.51 360.46
  Q 347.76 357.73 349.20 356.45
  Q 351.78 354.16 351.82 354.11
  C 364.69 341.91 380.10 326.42 393.18 313.75
  Q 411.31 296.20 422.09 285.34
  Q 429.31 278.06 455.53 252.53
  Q 475.35 233.24 494.18 212.94
  Q 506.98 199.15 513.95 187.46
  Q 514.40 186.72 514.79 185.26
  A 3.93 3.90 67.4 0 1 515.17 184.33
  Q 524.18 168.59 515.19 155.45
  C 511.02 150.05 505.05 148.01 498.54 146.68
  Q 497.36 146.71 496.95 145.41
  A 1.23 1.23 0.0 0 1 498.12 143.81
  L 620.73 143.93
  A 0.43 0.39 -23.5 0 1 620.99 144.02
  Q 622.09 144.93 621.77 145.85
  A 0.69 0.68 -85.6 0 1 621.24 146.31
  L 619.45 146.67
  L 615.98 147.03
  Q 598.39 147.94 584.72 156.97
  C 581.51 159.08 576.38 162.62 572.74 165.70
  Q 560.82 175.79 555.05 181.05
  Q 524.31 209.06 492.40 239.15
  Q 488.69 242.64 485.07 246.23
  Q 484.74 246.50 484.47 246.94
  L 417.71 310.13
  A 0.70 0.69 52.5 0 0 417.60 311.01
  Q 419.45 313.97 421.68 316.65
  Q 452.75 354.00 497.70 410.77
  Q 509.32 425.44 521.29 439.85
  Q 552.89 479.26 585.07 518.19
  C 598.58 534.53 613.19 549.55 630.93 561.32
  Q 642.69 568.65 655.01 574.49
  A 0.66 0.66 0.0 0 1 654.75 575.75
  Q 647.99 576.03 628.75 576.76
  Q 613.95 577.32 605.79 576.44
  C 589.70 574.71 575.24 570.66 561.52 562.22
  Q 553.30 557.17 543.98 548.35
  Q 538.82 543.53 537.38 541.87
  Q 531.10 534.65 524.91 527.36
  Q 502.79 501.30 481.02 474.97
  Q 478.83 472.17 476.52 469.49
  Q 470.24 462.18 464.25 454.92
  A 144.58 11.37 50.1 0 0 451.14 439.23
  L 376.22 350.65
  A 0.70 0.70 0.0 0 0 375.20 350.60
  L 350.90 373.96
  A 1.76 0.39 -69.7 0 0 350.39 374.75
  Q 350.21 375.13 349.75 375.13
  Q 348.87 375.93 348.48 376.94
  Q 346.14 378.18 345.79 379.27
  Q 344.85 381.05 344.86 383.75
  Q 344.92 399.64 345.32 415.53
  Q 345.45 464.59 345.16 513.66
  Q 345.13 519.73 345.30 523.84
  Q 345.58 530.64 346.10 534.00
  Q 347.09 540.45 350.57 547.92
  Q 353.29 554.99 358.75 559.53
  Q 359.12 560.25 359.78 560.12
  A 0.44 0.43 -15.9 0 1 360.27 560.39
  C 361.39 563.26 369.53 566.58 372.71 567.72
  Q 379.05 570.01 390.29 571.15
  A 0.91 0.89 3.2 0 1 391.10 572.04
  L 391.10 574.16
  A 0.98 0.98 0.0 0 1 390.12 575.14
  L 235.66 575.14
  A 0.83 0.83 0.0 0 1 234.83 574.31
  L 234.83 572.26
  A 1.04 1.04 0.0 0 1 235.73 571.23
  L 244.12 570.07
  Q 246.03 569.71 248.11 569.58
  Q 250.22 569.45 251.01 568.89
  Q 252.02 568.17 253.26 567.95
  A 2.21 0.20 -7.0 0 0 254.23 567.74
  Q 262.31 565.08 268.48 559.44
  Q 275.05 553.44 277.90 545.07
  Q 279.49 540.39 280.46 533.29
  Q 281.28 527.31 281.28 521.27
  Q 281.13 275.52 281.26 206.51
  Q 281.27 199.06 281.01 194.13
  Q 280.91 192.09 279.91 184.72
  Q 279.22 179.64 277.69 175.59
  Q 274.75 167.79 269.47 161.52
  A 1.54 1.53 -10.3 0 0 268.77 161.04
  L 267.89 160.74
  Q 268.28 160.60 267.54 159.95
  Q 256.44 150.13 241.51 147.95
  Q 233.78 146.82 229.23 146.74
  A 0.44 0.44 0.0 0 1 228.80 146.26
  L 228.91 145.05
  L 229.01 144.43
  A 0.89 0.89 0.0 0 1 229.89 143.67
  L 391.45 143.86
  A 0.57 0.52 -22.7 0 1 391.81 143.99
  Q 392.57 144.62 392.81 146.54
  Z"
/>
<path fill="#fddfa4" d="
  M 615.98 147.03
  C 609.59 148.92 601.82 150.57 596.63 152.75
  C 587.00 156.79 580.57 161.64 571.64 168.34
  Q 570.55 169.16 570.47 169.23
  Q 559.18 179.32 548.69 188.67
  Q 546.98 190.20 542.65 194.49
  C 540.04 197.08 537.11 199.18 534.43 201.94
  Q 534.18 202.19 533.53 202.49
  A 3.06 2.79 -75.9 0 0 532.76 203.00
  Q 518.37 216.48 513.52 221.14
  C 510.54 224.00 506.76 227.03 503.93 230.08
  Q 500.86 233.38 499.53 234.38
  C 494.86 237.91 490.85 243.05 486.27 246.33
  Q 485.68 246.76 485.07 246.23
  Q 488.69 242.64 492.40 239.15
  Q 524.31 209.06 555.05 181.05
  Q 560.82 175.79 572.74 165.70
  C 576.38 162.62 581.51 159.08 584.72 156.97
  Q 598.39 147.94 615.98 147.03
  Z"
/>
<path fill="#dca549" d="
  M 345.34 243.71
  Q 345.70 282.83 345.69 321.94
  Q 345.68 331.62 345.84 336.05
  C 346.08 342.93 346.14 348.54 345.48 354.13
  A 2.45 2.42 34.3 0 0 345.77 355.62
  Q 346.41 356.75 346.32 357.45
  A 0.32 0.32 0.0 0 0 346.79 357.77
  C 348.00 357.10 348.74 355.63 349.65 354.75
  Q 377.59 327.65 400.72 304.23
  Q 412.23 292.56 414.97 289.96
  Q 416.51 288.48 417.42 287.67
  Q 420.68 284.77 426.34 279.00
  Q 431.68 273.56 434.06 271.37
  C 439.12 266.67 443.26 262.03 447.85 257.93
  C 451.49 254.67 453.23 253.35 455.87 250.19
  C 458.76 246.74 462.87 243.66 465.98 240.20
  Q 467.40 238.62 474.52 231.52
  Q 481.32 224.74 494.14 211.06
  Q 500.70 204.05 504.35 199.00
  Q 511.86 188.59 513.25 185.94
  Q 514.34 183.87 516.76 177.26
  Q 520.58 166.84 515.19 155.45
  Q 524.18 168.59 515.17 184.33
  A 3.93 3.90 67.4 0 0 514.79 185.26
  Q 514.40 186.72 513.95 187.46
  Q 506.98 199.15 494.18 212.94
  Q 475.35 233.24 455.53 252.53
  Q 429.31 278.06 422.09 285.34
  Q 411.31 296.20 393.18 313.75
  C 380.10 326.42 364.69 341.91 351.82 354.11
  Q 351.78 354.16 349.20 356.45
  Q 347.76 357.73 345.51 360.46
  A 0.48 0.47 -25.1 0 1 344.67 360.16
  L 345.34 243.71
  Z"
/>
<path fill="#dca549" d="
  M 268.48 559.44
  L 274.23 550.27
  A 1.08 0.28 -75.7 0 0 274.29 550.16
  Q 277.11 543.73 277.83 540.12
  Q 279.70 530.69 279.75 519.75
  C 280.10 445.96 279.81 362.87 279.94 248.75
  Q 279.98 212.13 279.75 199.76
  Q 279.64 193.74 278.08 182.88
  Q 277.50 178.86 275.62 174.59
  Q 272.73 168.04 271.75 166.75
  Q 269.55 163.91 267.89 160.74
  L 268.77 161.04
  A 1.54 1.53 -10.3 0 1 269.47 161.52
  Q 274.75 167.79 277.69 175.59
  Q 279.22 179.64 279.91 184.72
  Q 280.91 192.09 281.01 194.13
  Q 281.27 199.06 281.26 206.51
  Q 281.13 275.52 281.28 521.27
  Q 281.28 527.31 280.46 533.29
  Q 279.49 540.39 277.90 545.07
  Q 275.05 553.44 268.48 559.44
  Z"
/>
<path fill="#dca549" d="
  M 345.41 191.21
  Q 346.16 208.36 345.33 225.53
  Q 344.65 208.34 345.41 191.21
  Z"
/>
<path fill="#dca549" d="
  M 649.20 566.82
  A 0.55 0.55 0.0 0 1 649.33 565.79
  C 664.26 562.96 678.23 557.06 690.48 547.71
  C 709.21 533.41 722.70 513.57 731.05 491.33
  Q 739.34 469.26 741.51 448.96
  C 741.90 445.33 742.42 442.85 742.63 440.31
  Q 746.02 399.73 735.51 362.42
  C 728.14 336.26 713.87 310.08 694.48 291.30
  Q 669.85 267.46 636.20 259.17
  Q 622.21 255.72 602.61 254.94
  Q 585.14 254.25 568.75 254.90
  A 0.65 0.64 -1.4 0 0 568.13 255.54
  C 568.09 282.94 568.29 294.70 567.60 319.80
  Q 567.15 336.14 567.44 360.84
  C 567.51 366.89 568.31 372.72 568.19 377.54
  A 1.87 1.87 0.0 0 1 566.99 379.24
  C 565.33 379.88 562.89 379.94 560.82 380.47
  C 544.76 384.54 536.17 386.56 524.18 391.86
  A 0.95 0.95 0.0 0 1 522.84 390.97
  Q 522.94 384.95 523.52 371.20
  Q 523.94 361.20 523.54 346.56
  C 522.98 326.04 523.03 304.00 522.74 289.50
  C 522.45 275.27 519.81 261.76 505.90 254.93
  Q 500.43 252.25 492.92 250.94
  A 1.27 1.26 5.2 0 1 491.88 249.70
  L 491.88 247.08
  A 1.04 1.04 0.0 0 1 492.92 246.04
  Q 585.65 245.95 601.00 246.03
  Q 621.33 246.12 640.41 248.40
  C 644.77 248.92 650.98 250.41 656.60 251.26
  Q 659.06 251.63 663.03 252.64
  Q 685.37 258.35 699.99 265.32
  Q 708.74 269.50 720.91 277.64
  C 764.45 306.75 789.18 356.08 792.87 407.68
  C 796.28 455.51 779.72 503.21 745.01 535.98
  Q 718.24 561.24 680.07 570.85
  Q 671.18 573.09 664.68 573.86
  A 2.61 2.54 -34.5 0 1 663.28 573.62
  L 649.20 566.82
  Z
  M 710.99 308.43
  Q 718.96 319.99 725.08 331.75
  C 727.43 336.25 728.61 339.79 730.48 343.76
  Q 732.19 347.37 734.08 352.97
  Q 746.47 389.66 744.88 428.53
  C 744.55 436.41 744.53 440.14 743.35 446.59
  Q 742.52 451.15 741.91 456.68
  A 0.56 0.55 89.6 0 0 742.52 457.29
  Q 764.54 454.68 786.76 448.21
  A 0.41 0.40 86.5 0 1 787.27 448.67
  Q 783.01 475.44 770.06 499.53
  A 0.24 0.23 33.8 0 0 770.12 499.81
  L 770.33 499.99
  A 0.43 0.43 0.0 0 0 770.98 499.87
  Q 789.83 465.66 791.64 427.48
  Q 793.65 384.76 775.79 345.19
  Q 758.59 307.06 725.27 282.50
  Q 724.62 282.02 723.80 282.04
  A 0.05 0.05 0.0 0 0 723.77 282.13
  L 739.02 295.09
  A 0.54 0.53 -36.3 0 1 738.88 295.99
  L 711.19 307.72
  A 0.47 0.47 0.0 0 0 710.99 308.43
  Z"
/>
<path fill="#dca549" d="
  M 484.47 246.94
  Q 481.97 251.05 478.50 254.13
  Q 474.20 257.95 474.14 258.01
  Q 471.40 260.65 468.60 263.27
  A 2.64 2.43 9.8 0 1 467.84 263.76
  C 465.82 264.59 464.40 267.48 463.39 268.39
  Q 456.39 274.67 450.17 280.85
  Q 443.32 287.66 437.11 293.44
  Q 427.87 302.06 420.25 309.71
  A 1.55 1.55 0.0 0 0 420.19 311.84
  C 425.23 317.45 429.74 323.45 435.09 329.61
  Q 437.89 332.83 441.15 336.87
  Q 487.73 394.57 488.42 395.20
  Q 488.48 395.25 492.24 399.71
  Q 494.26 402.11 496.08 404.67
  C 497.30 406.39 498.80 407.88 500.24 409.51
  A 1.02 1.02 0.0 0 0 501.51 409.72
  Q 512.95 403.29 526.27 397.50
  Q 531.96 395.04 537.10 393.59
  C 541.95 392.23 546.41 389.84 551.73 388.83
  C 558.42 387.57 564.89 385.92 572.64 384.94
  C 580.86 383.90 587.54 382.65 595.41 382.25
  Q 613.36 381.36 629.74 382.08
  Q 634.48 382.29 638.05 382.88
  C 644.94 384.03 652.92 384.52 659.08 385.11
  Q 662.12 385.39 671.38 387.69
  Q 676.74 389.02 684.10 390.10
  A 1.39 1.13 -24.4 0 1 684.33 390.16
  L 694.52 393.53
  A 0.74 0.73 -81.8 0 1 695.03 394.22
  Q 695.42 414.36 695.49 417.28
  Q 695.86 431.34 695.27 448.76
  A 0.91 0.91 0.0 0 1 694.36 449.64
  L 691.30 449.64
  A 1.11 1.11 0.0 0 1 690.21 448.75
  L 689.25 443.85
  Q 690.82 445.89 691.23 448.60
  A 0.30 0.29 85.4 0 0 691.52 448.85
  L 693.86 448.85
  A 0.10 0.10 0.0 0 0 693.96 448.75
  L 693.96 395.06
  A 0.82 0.82 0.0 0 0 693.35 394.27
  Q 668.94 387.73 649.86 385.59
  C 626.18 382.94 602.19 382.34 578.31 385.69
  Q 542.76 390.68 512.82 405.87
  Q 505.76 409.45 504.64 409.91
  A 0.98 0.97 -30.0 0 0 504.23 411.41
  L 518.68 430.09
  A 0.43 0.42 47.1 0 0 519.32 430.12
  Q 537.90 409.81 563.08 400.99
  Q 567.75 399.36 574.55 397.80
  Q 583.80 395.67 586.19 395.41
  Q 592.94 394.65 601.00 394.13
  Q 614.53 393.25 628.00 396.07
  Q 624.96 396.27 618.82 395.43
  Q 614.15 394.80 592.51 395.38
  A 2.39 2.35 -53.6 0 0 591.94 395.47
  Q 587.87 396.70 583.30 396.91
  A 2.86 2.80 -58.0 0 0 582.19 397.18
  Q 579.04 398.66 575.61 398.37
  A 2.99 2.97 39.5 0 0 574.53 398.47
  Q 572.72 398.94 569.82 400.18
  Q 569.36 400.37 566.12 401.35
  Q 563.22 402.22 562.36 402.40
  Q 561.57 402.57 557.24 404.52
  Q 555.44 405.33 554.41 405.97
  A 4.56 4.50 22.6 0 1 553.15 406.48
  Q 550.35 407.10 546.07 410.45
  L 536.47 416.54
  A 1.99 0.45 -57.8 0 0 535.77 417.24
  Q 535.40 417.72 533.94 418.65
  Q 527.56 422.73 521.31 430.36
  C 520.70 431.11 519.37 431.77 519.22 432.10
  A 0.98 0.96 -53.3 0 0 519.36 433.12
  Q 522.34 436.67 525.59 441.45
  C 526.25 442.41 527.47 443.39 528.31 444.43
  Q 550.04 471.31 570.32 496.27
  Q 581.82 510.43 595.03 525.50
  Q 602.79 534.36 609.61 540.91
  Q 622.03 552.83 640.44 564.09
  Q 648.97 569.31 655.22 572.20
  C 657.55 573.27 658.03 574.12 657.79 576.55
  A 0.59 0.59 0.0 0 1 657.10 577.07
  Q 656.70 577.00 636.51 578.03
  C 633.44 578.18 630.38 577.60 627.50 577.60
  C 623.09 577.58 619.29 578.10 614.85 577.73
  Q 610.31 577.36 604.20 577.25
  Q 597.11 577.12 593.64 576.40
  Q 581.89 573.95 576.37 571.84
  Q 557.02 564.46 542.15 550.11
  Q 531.35 539.69 522.26 528.48
  Q 518.06 523.29 514.91 519.72
  C 507.83 511.71 502.20 504.44 495.55 496.76
  C 490.81 491.29 485.27 483.78 479.42 477.43
  C 476.30 474.04 473.88 470.45 471.10 467.31
  Q 461.82 456.81 454.24 446.62
  C 452.65 444.47 450.21 442.31 448.39 440.07
  Q 435.11 423.72 426.08 412.95
  Q 420.38 406.17 416.14 401.11
  Q 399.89 381.77 376.33 353.82
  A 1.81 1.80 -32.1 0 0 374.23 353.34
  Q 373.16 353.81 371.34 355.59
  Q 368.37 358.51 365.60 361.59
  Q 363.51 363.91 359.90 366.47
  A 3.68 3.57 -87.9 0 0 359.19 367.15
  Q 354.69 373.05 348.48 376.94
  Q 348.87 375.93 349.75 375.13
  Q 350.21 375.13 350.39 374.75
  A 1.76 0.39 -69.7 0 1 350.90 373.96
  L 375.20 350.60
  A 0.70 0.70 0.0 0 1 376.22 350.65
  L 451.14 439.23
  A 144.58 11.37 50.1 0 1 464.25 454.92
  Q 470.24 462.18 476.52 469.49
  Q 478.83 472.17 481.02 474.97
  Q 480.49 474.80 480.33 474.94
  Q 479.89 475.34 480.27 475.80
  Q 493.73 492.07 512.99 515.13
  Q 513.40 515.62 518.45 521.86
  Q 522.06 526.32 526.12 530.55
  A 3.69 3.30 -86.8 0 1 526.60 531.15
  Q 527.38 532.34 528.32 533.40
  Q 534.23 540.05 540.62 546.88
  Q 543.41 549.85 543.98 548.35
  Q 553.30 557.17 561.52 562.22
  C 575.24 570.66 589.70 574.71 605.79 576.44
  Q 613.95 577.32 628.75 576.76
  Q 647.99 576.03 654.75 575.75
  A 0.66 0.66 0.0 0 0 655.01 574.49
  Q 642.69 568.65 630.93 561.32
  L 631.95 561.11
  A 0.31 0.31 0.0 0 0 632.08 560.56
  Q 629.90 558.79 627.08 557.43
  A 4.28 4.09 -11.3 0 1 626.23 556.89
  Q 620.32 552.07 618.75 551.04
  C 616.13 549.31 614.15 546.65 611.66 544.60
  Q 608.72 542.19 606.39 539.70
  Q 598.97 531.77 591.66 524.32
  A 4.93 4.77 -83.3 0 1 590.95 523.39
  Q 589.27 520.61 586.98 518.77
  A 3.43 3.36 4.9 0 1 586.19 517.85
  C 584.61 515.04 582.31 513.03 580.12 510.21
  Q 572.77 500.77 560.43 486.19
  C 558.53 483.94 556.78 481.02 554.75 479.47
  A 2.53 2.42 5.9 0 1 554.07 478.67
  Q 552.85 476.35 550.48 474.27
  A 3.60 3.51 -85.2 0 1 549.73 473.36
  Q 548.29 470.90 546.39 469.39
  A 1.20 1.20 0.0 0 1 546.26 469.26
  L 541.30 462.91
  A 0.74 0.66 19.9 0 1 541.17 462.67
  Q 540.89 461.82 540.58 461.44
  Q 539.08 459.66 521.97 438.71
  A 0.35 0.35 0.0 0 0 521.36 439.00
  Q 521.45 439.47 521.29 439.85
  Q 509.32 425.44 497.70 410.77
  Q 452.75 354.00 421.68 316.65
  Q 419.45 313.97 417.60 311.01
  A 0.70 0.69 52.5 0 1 417.71 310.13
  L 484.47 246.94
  Z"
/>
<path fill="#fddfa4" d="
  M 711.19 307.72
  L 738.88 295.99
  A 0.54 0.53 -36.3 0 0 739.02 295.09
  L 723.77 282.13
  A 0.05 0.05 0.0 0 1 723.80 282.04
  Q 724.62 282.02 725.27 282.50
  Q 758.59 307.06 775.79 345.19
  Q 793.65 384.76 791.64 427.48
  Q 789.83 465.66 770.98 499.87
  A 0.43 0.43 0.0 0 1 770.33 499.99
  L 770.12 499.81
  A 0.24 0.23 33.8 0 1 770.06 499.53
  Q 783.01 475.44 787.27 448.67
  A 0.41 0.40 86.5 0 0 786.76 448.21
  Q 764.54 454.68 742.52 457.29
  A 0.56 0.55 89.6 0 1 741.91 456.68
  Q 742.52 451.15 743.35 446.59
  C 744.53 440.14 744.55 436.41 744.88 428.53
  Q 746.47 389.66 734.08 352.97
  Q 732.19 347.37 730.48 343.76
  C 728.61 339.79 727.43 336.25 725.08 331.75
  Q 718.96 319.99 710.99 308.43
  A 0.47 0.47 0.0 0 1 711.19 307.72
  Z"
/>
<path fill="#fddfa4" d="
  M 345.79 379.27
  L 345.32 415.53
  Q 344.92 399.64 344.86 383.75
  Q 344.85 381.05 345.79 379.27
  Z"
/>
<path fill="#072353" d="
  M 689.25 443.85
  Q 687.27 437.16 683.13 431.37
  A 2.33 2.26 -69.5 0 1 682.74 430.48
  Q 682.72 430.36 682.69 430.21
  A 1.45 1.45 0.0 0 0 682.39 429.53
  Q 680.11 426.65 678.05 423.45
  Q 676.85 421.60 672.15 417.34
  Q 653.21 400.16 628.00 396.07
  Q 614.53 393.25 601.00 394.13
  Q 592.94 394.65 586.19 395.41
  Q 583.80 395.67 574.55 397.80
  Q 567.75 399.36 563.08 400.99
  Q 537.90 409.81 519.32 430.12
  A 0.43 0.42 47.1 0 1 518.68 430.09
  L 504.23 411.41
  A 0.98 0.97 -30.0 0 1 504.64 409.91
  Q 505.76 409.45 512.82 405.87
  Q 542.76 390.68 578.31 385.69
  C 602.19 382.34 626.18 382.94 649.86 385.59
  Q 668.94 387.73 693.35 394.27
  A 0.82 0.82 0.0 0 1 693.96 395.06
  L 693.96 448.75
  A 0.10 0.10 0.0 0 1 693.86 448.85
  L 691.52 448.85
  A 0.30 0.29 85.4 0 1 691.23 448.60
  Q 690.82 445.89 689.25 443.85
  Z"
/>
<path fill="#fddfa4" d="
  M 630.93 561.32
  C 613.19 549.55 598.58 534.53 585.07 518.19
  Q 552.89 479.26 521.29 439.85
  Q 521.45 439.47 521.36 439.00
  A 0.35 0.35 0.0 0 1 521.97 438.71
  Q 539.08 459.66 540.58 461.44
  Q 540.89 461.82 541.17 462.67
  A 0.74 0.66 19.9 0 0 541.30 462.91
  L 546.26 469.26
  A 1.20 1.20 0.0 0 0 546.39 469.39
  Q 548.29 470.90 549.73 473.36
  A 3.60 3.51 -85.2 0 0 550.48 474.27
  Q 552.85 476.35 554.07 478.67
  A 2.53 2.42 5.9 0 0 554.75 479.47
  C 556.78 481.02 558.53 483.94 560.43 486.19
  Q 572.77 500.77 580.12 510.21
  C 582.31 513.03 584.61 515.04 586.19 517.85
  A 3.43 3.36 4.9 0 0 586.98 518.77
  Q 589.27 520.61 590.95 523.39
  A 4.93 4.77 -83.3 0 0 591.66 524.32
  Q 598.97 531.77 606.39 539.70
  Q 608.72 542.19 611.66 544.60
  C 614.15 546.65 616.13 549.31 618.75 551.04
  Q 620.32 552.07 626.23 556.89
  A 4.28 4.09 -11.3 0 0 627.08 557.43
  Q 629.90 558.79 632.08 560.56
  A 0.31 0.31 0.0 0 1 631.95 561.11
  L 630.93 561.32
  Z"
/>
<rect fill="#fddfa4" x="345.38" y="445.77" width="0.44" height="24.46" rx="0.22"/>
<path fill="#dca549" d="
  M 665.74 598.04
  Q 676.71 602.67 680.84 613.94
  Q 683.08 620.07 683.50 624.19
  Q 684.09 629.94 684.10 642.25
  C 684.11 670.64 684.21 689.42 683.90 703.70
  A 2.31 2.31 0.0 0 1 683.29 705.21
  C 673.66 715.42 661.96 721.18 648.26 724.87
  Q 639.81 727.14 631.62 727.77
  Q 611.15 729.34 594.30 726.96
  Q 572.48 723.88 550.51 712.75
  Q 521.15 697.85 501.10 672.40
  C 483.08 649.51 471.27 622.47 466.27 593.88
  Q 460.25 559.48 465.95 524.05
  Q 468.77 506.54 474.50 492.20
  Q 475.98 488.48 477.48 485.48
  A 2.46 2.45 38.2 0 0 477.16 482.79
  L 451.02 451.89
  A 0.65 0.65 0.0 0 0 450.05 451.86
  C 431.09 472.00 418.17 495.95 411.09 522.91
  Q 409.02 530.80 408.52 533.52
  Q 405.55 549.87 405.23 565.88
  Q 405.04 575.08 406.52 585.51
  Q 408.57 600.03 409.63 604.92
  Q 413.72 623.95 423.98 644.97
  A 2.22 2.20 -84.1 0 0 424.59 645.73
  Q 425.09 646.12 425.26 646.50
  Q 427.17 650.80 427.64 651.61
  C 449.67 689.84 485.30 718.06 527.23 732.05
  Q 550.70 739.88 572.25 742.23
  Q 590.53 744.23 599.25 744.49
  C 613.44 744.92 625.16 743.93 638.86 742.34
  Q 662.21 739.63 684.91 731.65
  Q 711.92 722.14 736.02 706.68
  A 0.88 0.86 -16.8 0 0 736.42 705.95
  C 736.69 664.48 736.45 641.61 737.15 622.77
  Q 737.20 621.27 737.93 620.22
  L 737.59 707.17
  A 0.97 0.97 0.0 0 1 737.17 707.97
  C 714.32 723.49 688.27 734.33 661.40 740.47
  Q 657.57 741.35 652.94 741.94
  C 649.12 742.44 645.58 743.44 641.66 743.82
  Q 623.91 745.52 619.75 745.70
  Q 594.64 746.79 570.36 743.88
  Q 566.48 743.42 561.56 742.50
  C 557.88 741.82 554.33 741.69 549.88 740.61
  Q 526.27 734.89 510.46 727.77
  Q 464.81 707.22 435.27 667.74
  Q 413.73 638.97 406.31 602.44
  Q 405.26 597.29 404.78 592.22
  C 404.31 587.30 403.14 583.27 403.21 578.53
  C 403.30 571.61 402.51 564.27 403.25 556.81
  Q 404.61 543.16 405.42 538.20
  Q 413.20 490.35 445.45 454.21
  Q 447.57 451.83 450.25 449.27
  A 0.60 0.59 47.9 0 1 451.11 449.32
  L 479.42 482.80
  A 1.41 1.40 -53.7 0 1 479.64 484.26
  L 474.85 495.51
  A 2.45 1.73 -45.2 0 0 474.75 495.81
  C 473.49 502.05 470.65 507.85 469.71 513.97
  Q 469.68 514.17 466.89 529.44
  C 464.05 545.01 464.45 561.64 465.89 577.51
  Q 466.40 583.15 467.91 590.44
  C 469.13 596.39 469.99 602.15 471.52 607.55
  C 474.78 619.01 477.73 628.69 482.69 638.52
  Q 487.03 647.12 488.49 649.77
  Q 493.69 659.21 500.82 668.48
  Q 526.26 701.56 564.69 716.83
  Q 568.57 718.37 571.98 719.31
  C 575.14 720.18 578.57 721.62 581.80 722.37
  Q 585.67 723.27 599.14 725.76
  Q 604.04 726.66 607.43 726.68
  C 611.04 726.70 615.23 727.30 618.54 727.14
  Q 634.50 726.34 648.54 722.74
  Q 659.05 720.06 670.10 714.12
  Q 671.96 713.12 681.78 704.53
  A 1.27 1.26 -19.5 0 0 682.20 703.66
  Q 682.65 696.09 682.66 695.75
  Q 682.79 666.43 682.67 634.75
  Q 682.64 626.73 681.38 620.34
  Q 680.04 613.59 677.48 609.54
  Q 675.88 607.01 670.75 601.74
  A 2.98 2.80 -6.9 0 0 669.99 601.18
  Q 667.56 599.96 665.74 598.04
  Z"
/>
<path fill="#072353" d="
  M 665.74 598.04
  Q 659.11 594.70 653.37 593.41
  Q 639.53 590.30 625.31 590.08
  Q 613.40 589.90 601.57 589.60
  L 590.97 589.43
  A 0.36 0.36 0.0 0 1 590.62 589.07
  L 590.62 587.46
  A 0.37 0.36 -90.0 0 1 590.98 587.09
  Q 609.09 587.07 629.50 587.09
  Q 631.32 587.09 632.14 587.29
  A 3.03 3.00 -38.1 0 0 632.83 587.37
  L 767.61 587.32
  A 0.91 0.91 0.0 0 1 767.99 589.05
  L 765.73 590.07
  Q 764.15 590.57 762.25 590.92
  Q 759.83 591.36 758.77 591.70
  Q 743.96 596.36 739.73 611.75
  Q 738.49 616.26 737.93 620.22
  Q 737.20 621.27 737.15 622.77
  C 736.45 641.61 736.69 664.48 736.42 705.95
  A 0.88 0.86 -16.8 0 1 736.02 706.68
  Q 711.92 722.14 684.91 731.65
  Q 662.21 739.63 638.86 742.34
  C 625.16 743.93 613.44 744.92 599.25 744.49
  Q 590.53 744.23 572.25 742.23
  Q 550.70 739.88 527.23 732.05
  C 485.30 718.06 449.67 689.84 427.64 651.61
  Q 427.17 650.80 425.26 646.50
  Q 425.09 646.12 424.59 645.73
  A 2.22 2.20 -84.1 0 1 423.98 644.97
  Q 413.72 623.95 409.63 604.92
  Q 408.57 600.03 406.52 585.51
  Q 405.04 575.08 405.23 565.88
  Q 405.55 549.87 408.52 533.52
  Q 409.02 530.80 411.09 522.91
  C 418.17 495.95 431.09 472.00 450.05 451.86
  A 0.65 0.65 0.0 0 1 451.02 451.89
  L 477.16 482.79
  A 2.46 2.45 38.2 0 1 477.48 485.48
  Q 475.98 488.48 474.50 492.20
  Q 468.77 506.54 465.95 524.05
  Q 460.25 559.48 466.27 593.88
  C 471.27 622.47 483.08 649.51 501.10 672.40
  Q 521.15 697.85 550.51 712.75
  Q 572.48 723.88 594.30 726.96
  Q 611.15 729.34 631.62 727.77
  Q 639.81 727.14 648.26 724.87
  C 661.96 721.18 673.66 715.42 683.29 705.21
  A 2.31 2.31 0.0 0 0 683.90 703.70
  C 684.21 689.42 684.11 670.64 684.10 642.25
  Q 684.09 629.94 683.50 624.19
  Q 683.08 620.07 680.84 613.94
  Q 676.71 602.67 665.74 598.04
  Z"
/>
<path fill="#fddfa4" d="
  M 481.02 474.97
  Q 502.79 501.30 524.91 527.36
  Q 531.10 534.65 537.38 541.87
  Q 538.82 543.53 543.98 548.35
  Q 543.41 549.85 540.62 546.88
  Q 534.23 540.05 528.32 533.40
  Q 527.38 532.34 526.60 531.15
  A 3.69 3.30 -86.8 0 0 526.12 530.55
  Q 522.06 526.32 518.45 521.86
  Q 513.40 515.62 512.99 515.13
  Q 493.73 492.07 480.27 475.80
  Q 479.89 475.34 480.33 474.94
  Q 480.49 474.80 481.02 474.97
  Z"
/>
<path fill="#dca549" d="
  M 244.12 570.07
  L 235.73 571.23
  A 1.04 1.04 0.0 0 0 234.83 572.26
  L 234.83 574.31
  A 0.83 0.83 0.0 0 0 235.66 575.14
  L 390.12 575.14
  A 0.98 0.98 0.0 0 0 391.10 574.16
  L 391.10 572.04
  A 0.91 0.89 3.2 0 0 390.29 571.15
  Q 379.05 570.01 372.71 567.72
  C 369.53 566.58 361.39 563.26 360.27 560.39
  A 0.44 0.43 -15.9 0 0 359.78 560.12
  Q 359.12 560.25 358.75 559.53
  Q 353.29 554.99 350.57 547.92
  L 355.79 555.17
  A 0.75 0.68 -87.1 0 0 355.88 555.28
  C 359.47 558.90 365.18 563.45 370.18 564.88
  A 5.43 5.01 64.0 0 1 371.15 565.26
  Q 375.79 567.56 376.78 567.82
  Q 384.49 569.80 391.79 570.15
  A 0.63 0.63 0.0 0 1 392.39 570.78
  L 392.39 575.83
  A 0.66 0.66 0.0 0 1 391.73 576.49
  L 234.21 576.49
  A 0.35 0.35 0.0 0 1 233.86 576.14
  L 233.86 571.10
  A 0.69 0.69 0.0 0 1 234.70 570.43
  L 236.47 570.83
  A 1.46 1.41 40.9 0 0 237.25 570.79
  Q 240.56 569.70 244.12 570.07
  Z"
/>
<path fill="#dca549" d="
  M 765.73 590.07
  L 767.99 589.05
  A 0.91 0.91 0.0 0 0 767.61 587.32
  L 632.83 587.37
  A 3.03 3.00 -38.1 0 1 632.14 587.29
  Q 631.32 587.09 629.50 587.09
  Q 609.09 587.07 590.98 587.09
  A 0.37 0.36 90.0 0 0 590.62 587.46
  L 590.62 589.07
  A 0.36 0.36 0.0 0 0 590.97 589.43
  L 601.57 589.60
  L 590.62 589.79
  A 0.71 0.70 -0.4 0 1 589.90 589.09
  L 589.90 586.17
  A 0.52 0.52 0.0 0 1 590.47 585.65
  Q 599.76 586.46 609.09 585.81
  C 616.70 585.29 623.46 586.14 630.74 585.49
  C 634.62 585.15 638.30 585.62 642.76 585.53
  C 655.41 585.27 667.58 585.56 678.41 585.44
  C 707.58 585.11 736.76 585.82 768.28 585.63
  A 1.08 1.08 0.0 0 1 769.36 586.71
  L 769.36 589.35
  A 0.85 0.84 83.0 0 1 768.73 590.17
  Q 767.40 590.53 765.73 590.07
  Z"
/>
<path fill="#072353" d="
  M 576.03 812.23
  A 0.66 0.65 -87.6 0 1 575.43 811.57
  L 575.43 811.28
  A 0.42 0.41 90.0 0 1 575.84 810.86
  L 586.78 810.86
  A 0.75 0.75 0.0 0 1 586.94 812.34
  Q 585.56 812.63 584.90 813.86
  A 1.28 1.26 59.5 0 0 584.75 814.46
  L 584.64 825.47
  A 0.58 0.56 78.0 0 1 584.31 825.99
  Q 579.18 828.27 574.13 828.87
  C 564.09 830.07 553.74 825.21 551.69 814.30
  Q 550.27 806.69 554.16 800.26
  C 560.12 790.41 573.72 789.57 583.62 794.02
  A 1.08 1.08 0.0 0 1 584.25 795.00
  L 584.25 802.24
  A 0.57 0.57 0.0 0 1 583.15 802.45
  C 581.01 797.05 579.53 794.51 573.02 793.60
  Q 565.75 792.59 561.48 798.01
  C 557.86 802.60 557.54 808.73 558.23 813.91
  C 559.61 824.11 568.58 829.63 578.45 825.44
  A 1.21 1.19 79.4 0 0 579.18 824.36
  Q 579.30 818.73 579.31 816.26
  Q 579.32 812.54 576.03 812.23
  Z"
/>
<path fill="#072353" d="
  M 789.57 828.46
  A 0.58 0.58 0.0 0 1 789.37 827.34
  Q 790.82 826.83 791.71 825.97
  A 0.98 0.97 57.1 0 0 791.93 824.89
  L 788.57 816.87
  A 0.83 0.82 -11.0 0 0 787.81 816.36
  L 775.27 816.32
  A 0.97 0.96 -80.5 0 0 774.35 816.98
  L 771.56 825.30
  A 0.93 0.93 0.0 0 0 772.09 826.46
  L 774.23 827.35
  A 0.56 0.56 0.0 0 1 774.01 828.44
  L 765.23 828.41
  A 0.53 0.52 -56.1 0 1 765.03 827.39
  L 767.39 826.41
  A 1.50 1.48 89.8 0 0 768.17 825.61
  L 782.24 792.15
  A 1.34 1.34 0.0 0 1 784.72 792.14
  Q 790.96 807.23 797.96 824.55
  Q 798.82 826.69 801.44 827.48
  A 0.52 0.52 0.0 0 1 801.30 828.50
  L 789.57 828.46
  Z
  M 775.93 813.60
  A 0.34 0.34 0.0 0 0 776.25 814.07
  L 787.29 814.05
  A 0.34 0.34 0.0 0 0 787.60 813.58
  L 782.06 800.10
  A 0.34 0.34 0.0 0 0 781.43 800.10
  L 775.93 813.60
  Z"
/>
<path fill="#072353" d="
  M 681.93 828.43
  A 0.58 0.58 0.0 0 1 681.73 827.31
  Q 683.17 826.80 684.06 825.94
  A 0.98 0.97 56.9 0 0 684.28 824.86
  L 680.89 816.86
  A 0.83 0.82 -11.2 0 0 680.13 816.36
  L 667.61 816.36
  A 0.97 0.96 -80.7 0 0 666.70 817.02
  L 663.94 825.34
  A 0.93 0.93 0.0 0 0 664.47 826.49
  L 666.61 827.38
  A 0.56 0.56 0.0 0 1 666.40 828.46
  L 657.63 828.46
  A 0.53 0.52 -56.3 0 1 657.43 827.45
  L 659.78 826.46
  A 1.50 1.48 89.6 0 0 660.56 825.66
  L 674.49 792.20
  A 1.34 1.34 0.0 0 1 676.96 792.19
  Q 683.25 807.23 690.29 824.50
  Q 691.16 826.63 693.78 827.41
  A 0.52 0.52 0.0 0 1 693.64 828.43
  L 681.93 828.43
  Z
  M 668.29 813.55
  A 0.38 0.38 0.0 0 0 668.64 814.07
  L 679.40 814.09
  A 0.38 0.38 0.0 0 0 679.76 813.57
  L 674.40 800.22
  A 0.38 0.38 0.0 0 0 673.69 800.22
  L 668.29 813.55
  Z"
/>
<path fill="#072353" d="
  M 172.54 808.77
  A 0.44 0.44 0.0 0 0 173.29 809.06
  Q 177.39 804.94 184.29 798.29
  Q 185.79 796.84 187.22 794.67
  A 0.66 0.66 0.0 0 0 187.11 793.82
  Q 186.50 793.26 185.91 793.11
  A 0.58 0.57 -80.6 0 1 185.48 792.50
  L 185.49 792.47
  A 0.79 0.79 0.0 0 1 186.27 791.81
  L 196.11 791.78
  A 0.41 0.40 90.0 0 1 196.51 792.19
  L 196.51 792.47
  A 0.73 0.72 84.8 0 1 195.92 793.19
  Q 192.62 793.82 190.89 795.39
  Q 184.30 801.37 179.22 806.42
  A 0.79 0.79 0.0 0 0 179.19 807.51
  L 195.36 825.67
  A 1.64 1.56 80.1 0 0 195.90 826.07
  L 198.93 827.45
  A 0.51 0.51 0.0 0 1 198.72 828.42
  L 191.88 828.42
  A 2.70 2.63 59.5 0 1 190.53 828.05
  Q 188.54 826.86 186.99 824.99
  Q 182.66 819.77 175.53 811.58
  A 1.58 1.58 0.0 0 0 172.77 812.53
  Q 172.54 816.67 172.55 822.43
  C 172.55 824.62 172.29 826.33 174.38 826.92
  Q 175.55 827.25 175.98 827.57
  A 0.49 0.48 -26.2 0 1 175.68 828.44
  L 163.94 828.44
  A 0.29 0.29 0.0 0 1 163.65 828.15
  L 163.65 827.87
  A 0.63 0.61 -6.5 0 1 164.14 827.27
  Q 166.78 826.69 166.78 824.74
  Q 166.81 805.92 166.75 795.53
  Q 166.74 793.44 164.28 793.08
  A 0.67 0.67 0.0 0 1 163.70 792.42
  L 163.70 792.12
  A 0.34 0.34 0.0 0 1 164.04 791.78
  L 175.48 791.78
  A 0.45 0.45 0.0 0 1 175.93 792.23
  L 175.93 792.60
  A 0.48 0.47 -7.0 0 1 175.56 793.06
  C 173.65 793.51 172.68 793.92 172.62 796.14
  Q 172.37 804.58 172.54 808.77
  Z"
/>
<path fill="#072353" d="
  M 246.13 792.66
  L 246.13 799.41
  A 0.67 0.67 0.0 0 1 244.84 799.67
  L 243.31 796.08
  A 3.11 3.10 -11.4 0 0 240.45 794.19
  L 228.93 794.19
  A 0.63 0.63 0.0 0 0 228.30 794.82
  L 228.30 807.82
  A 0.51 0.51 0.0 0 0 228.78 808.33
  Q 229.79 808.37 236.87 808.35
  C 239.52 808.34 240.18 806.99 240.68 804.84
  A 0.55 0.54 -78.8 0 1 241.28 804.43
  L 241.55 804.46
  A 0.46 0.45 -85.6 0 1 241.93 804.91
  L 241.93 814.07
  A 0.65 0.65 0.0 0 1 240.68 814.33
  L 239.73 812.09
  A 2.20 2.18 78.3 0 0 237.72 810.75
  L 228.93 810.75
  A 0.53 0.52 -89.4 0 0 228.41 811.27
  Q 228.23 820.81 228.36 822.93
  Q 228.42 824.02 228.42 824.08
  Q 228.17 826.28 230.37 826.30
  Q 234.20 826.34 239.42 826.08
  Q 244.78 825.81 246.37 820.51
  A 0.59 0.59 0.0 0 1 247.05 820.09
  L 247.08 820.10
  A 0.72 0.72 0.0 0 1 247.63 820.90
  L 246.70 827.81
  A 0.72 0.71 3.6 0 1 245.99 828.43
  L 219.57 828.43
  A 0.39 0.38 -23.6 0 1 219.31 828.33
  Q 218.95 828.03 219.22 827.64
  Q 219.42 827.33 219.44 827.33
  Q 222.49 826.83 222.44 823.29
  Q 222.30 813.57 222.45 795.68
  A 1.95 1.93 -66.5 0 0 221.92 794.32
  Q 221.01 793.32 219.50 793.02
  A 0.62 0.62 0.0 0 1 219.63 791.79
  L 245.26 791.79
  A 0.87 0.87 0.0 0 1 246.13 792.66
  Z"
/>
<path fill="#072353" d="
  M 287.46 820.22
  A 0.33 0.33 0.0 0 0 288.07 820.21
  L 297.88 795.95
  A 1.71 1.71 0.0 0 0 296.99 793.75
  L 295.22 793.14
  Q 294.61 792.93 294.83 792.32
  Q 294.99 791.86 295.32 791.85
  Q 296.43 791.81 303.97 791.82
  A 0.64 0.64 0.0 0 1 304.15 793.08
  C 301.29 793.93 300.76 795.89 299.53 798.83
  Q 289.47 822.87 287.86 826.83
  Q 287.25 828.34 286.62 828.81
  A 1.29 1.28 60.1 0 1 284.67 828.28
  L 270.59 795.03
  A 2.17 2.14 0.2 0 0 269.45 793.90
  L 267.41 793.06
  A 0.66 0.65 56.3 0 1 267.66 791.80
  L 279.61 791.80
  A 0.52 0.52 0.0 0 1 280.02 792.65
  Q 279.36 793.45 278.49 793.56
  A 1.59 1.46 75.1 0 0 277.37 795.70
  Q 282.64 809.14 287.46 820.22
  Z"
/>
<path fill="#072353" d="
  M 329.47 791.84
  Q 334.60 791.84 335.35 791.90
  A 0.49 0.49 0.0 0 1 335.47 792.86
  Q 333.18 793.59 332.72 794.47
  A 3.61 3.48 -28.4 0 0 332.38 795.51
  Q 332.37 795.60 332.38 810.15
  Q 332.39 824.70 332.40 824.79
  A 3.61 3.48 28.3 0 0 332.74 825.84
  Q 333.20 826.72 335.49 827.44
  A 0.49 0.49 0.0 0 1 335.37 828.40
  Q 334.62 828.46 329.49 828.46
  Q 324.36 828.46 323.61 828.41
  A 0.49 0.49 0.0 0 1 323.50 827.45
  Q 325.79 826.72 326.25 825.84
  A 3.61 3.48 -28.4 0 0 326.58 824.79
  Q 326.60 824.71 326.59 810.15
  Q 326.58 795.60 326.57 795.52
  A 3.61 3.48 28.3 0 0 326.23 794.47
  Q 325.77 793.59 323.48 792.86
  A 0.49 0.49 0.0 0 1 323.59 791.90
  Q 324.34 791.85 329.47 791.84
  Z"
/>
<path fill="#072353" d="
  M 386.19 818.69
  A 0.25 0.25 0.0 0 0 386.64 818.53
  Q 386.66 811.37 386.58 798.25
  C 386.56 795.74 387.00 793.50 383.69 793.26
  A 0.75 0.74 2.1 0 1 382.99 792.52
  L 382.99 792.22
  A 0.41 0.41 0.0 0 1 383.40 791.81
  L 392.23 791.81
  A 0.63 0.62 -56.4 0 1 392.47 793.01
  L 390.41 793.88
  A 1.75 1.74 78.6 0 0 389.35 795.49
  L 389.35 827.32
  A 1.62 1.61 26.2 0 1 386.45 828.30
  L 363.53 798.67
  A 0.37 0.37 0.0 0 0 362.87 798.89
  L 362.87 824.85
  A 1.51 1.50 -70.0 0 0 363.40 826.00
  Q 364.58 827.00 366.43 827.35
  A 0.56 0.55 -39.4 0 1 366.32 828.45
  L 357.36 828.45
  A 0.58 0.58 0.0 0 1 357.13 827.33
  L 359.39 826.37
  A 1.10 1.05 87.0 0 0 360.01 825.65
  Q 360.37 824.25 360.39 821.62
  Q 360.50 803.34 360.27 796.82
  C 360.19 794.60 359.13 793.61 357.21 793.06
  A 0.66 0.66 0.0 0 1 357.39 791.76
  L 364.91 791.76
  A 0.93 0.92 70.8 0 1 365.64 792.12
  L 386.19 818.69
  Z"
/>
<path fill="#072353" d="
  M 478.14 809.88
  C 478.21 822.43 468.79 828.26 457.24 828.34
  Q 450.90 828.39 443.52 828.40
  Q 442.87 828.40 442.63 828.24
  A 0.52 0.52 0.0 0 1 442.70 827.32
  L 444.57 826.54
  A 2.10 2.10 0.0 0 0 445.85 824.61
  Q 445.85 816.95 445.81 810.08
  Q 445.77 803.21 445.67 795.55
  A 2.10 2.10 0.0 0 0 444.37 793.63
  L 442.49 792.87
  A 0.52 0.52 0.0 0 1 442.41 791.96
  Q 442.65 791.79 443.30 791.78
  Q 450.68 791.70 457.02 791.68
  C 468.56 791.62 478.06 797.34 478.14 809.88
  Z
  M 451.56 795.36
  L 451.40 825.06
  A 1.30 1.30 0.0 0 0 452.70 826.36
  L 458.05 826.39
  A 14.32 13.41 -89.7 0 0 471.53 812.14
  L 471.55 808.48
  A 14.32 13.41 -89.7 0 0 458.21 794.09
  L 452.86 794.06
  A 1.30 1.30 0.0 0 0 451.56 795.36
  Z"
/>
<path fill="#072353" d="
  M 626.54 811.14
  Q 627.51 811.94 628.56 813.43
  Q 628.57 813.44 636.21 824.14
  C 637.69 826.22 638.72 826.53 641.07 827.59
  A 0.50 0.50 0.0 0 1 640.84 828.54
  Q 639.93 828.50 633.84 828.44
  Q 632.18 828.42 630.51 825.99
  Q 624.99 817.95 621.71 812.42
  A 1.95 1.95 0.0 0 0 620.78 811.61
  Q 619.40 811.04 617.54 811.34
  A 0.92 0.92 0.0 0 0 616.77 812.25
  L 616.77 824.94
  A 1.37 1.32 26.7 0 0 617.06 825.77
  Q 617.99 826.95 619.97 827.31
  A 0.52 0.52 0.0 0 1 620.39 827.82
  L 620.39 828.10
  A 0.34 0.34 0.0 0 1 620.05 828.44
  L 608.03 828.44
  A 0.55 0.55 0.0 0 1 607.92 827.35
  C 611.60 826.62 611.04 824.23 610.99 820.96
  Q 610.79 810.01 610.97 795.85
  A 2.60 2.59 9.6 0 0 609.19 793.36
  L 607.83 792.91
  A 0.53 0.53 0.0 0 1 607.99 791.87
  Q 618.34 791.70 623.49 791.84
  C 628.39 791.97 634.93 793.57 635.72 799.18
  C 636.70 806.11 632.71 808.99 626.68 810.53
  A 0.35 0.35 0.0 0 0 626.54 811.14
  Z
  M 616.69 794.84
  L 616.91 808.60
  A 0.68 0.68 0.0 0 0 617.60 809.27
  L 622.75 809.19
  A 7.15 6.59 -0.9 0 0 629.79 802.49
  L 629.76 800.55
  A 7.15 6.59 -0.9 0 0 622.51 794.07
  L 617.36 794.15
  A 0.68 0.68 0.0 0 0 616.69 794.84
  Z"
/>
<path fill="#072353" d="
  M 729.98 808.34
  Q 738.13 808.35 738.62 808.32
  A 0.51 0.50 89.7 0 0 739.09 807.83
  Q 739.24 803.22 739.09 796.24
  Q 739.02 793.54 736.56 793.12
  A 0.69 0.68 5.1 0 1 735.99 792.45
  L 735.99 792.17
  A 0.37 0.36 -0.0 0 1 736.36 791.81
  L 747.84 791.81
  A 0.54 0.54 0.0 0 1 748.20 792.75
  Q 747.55 793.35 746.93 793.41
  A 2.05 2.04 87.1 0 0 745.10 795.45
  Q 745.13 814.98 745.03 823.92
  C 745.00 826.28 745.96 826.90 747.92 827.35
  A 0.51 0.51 0.0 0 1 748.29 827.71
  Q 748.42 828.25 748.08 828.45
  A 0.10 0.08 -52.0 0 1 748.04 828.46
  L 736.34 828.46
  A 0.53 0.53 0.0 0 1 736.21 827.41
  Q 738.17 826.94 738.96 825.51
  A 1.39 1.36 -31.2 0 0 739.13 824.85
  L 739.13 811.41
  A 0.55 0.55 0.0 0 0 738.62 810.86
  Q 737.13 810.73 729.98 810.72
  Q 722.82 810.72 721.33 810.85
  A 0.55 0.55 0.0 0 0 720.82 811.40
  L 720.81 824.84
  A 1.39 1.36 31.2 0 0 720.98 825.50
  Q 721.76 826.93 723.72 827.40
  A 0.53 0.53 0.0 0 1 723.59 828.45
  L 711.89 828.44
  A 0.10 0.08 52.1 0 1 711.85 828.43
  Q 711.51 828.23 711.64 827.69
  A 0.51 0.51 0.0 0 1 712.01 827.33
  C 713.97 826.88 714.93 826.26 714.91 823.90
  Q 714.82 814.96 714.87 795.43
  A 2.05 2.04 -87.0 0 0 713.05 793.39
  Q 712.43 793.33 711.78 792.73
  A 0.54 0.54 0.0 0 1 712.14 791.79
  L 723.62 791.80
  A 0.37 0.36 0.1 0 1 723.99 792.16
  L 723.99 792.44
  A 0.69 0.68 -5.0 0 1 723.42 793.11
  Q 720.96 793.53 720.88 796.23
  Q 720.72 803.21 720.87 807.82
  A 0.51 0.50 -89.6 0 0 721.34 808.31
  Q 721.83 808.34 729.98 808.34
  Z"
/>
<path fill="#072353" d="
  M 824.67 799.21
  A 0.33 0.33 0.0 0 0 824.04 799.34
  Q 824.24 810.26 823.69 823.00
  Q 823.52 826.80 826.81 827.51
  A 0.47 0.47 0.0 0 1 826.71 828.44
  L 818.04 828.44
  A 0.49 0.49 0.0 0 1 817.85 827.50
  L 819.82 826.66
  A 2.68 2.68 0.0 0 0 821.46 824.19
  L 821.46 795.28
  A 1.45 1.45 0.0 0 0 821.06 794.28
  Q 820.08 793.25 818.45 792.98
  A 0.43 0.41 4.9 0 1 818.09 792.57
  L 818.09 792.22
  A 0.41 0.41 0.0 0 1 818.50 791.81
  L 826.80 791.81
  A 1.08 1.07 78.4 0 1 827.79 792.47
  L 839.35 819.76
  A 0.46 0.46 0.0 0 0 840.20 819.76
  L 851.42 792.78
  A 1.59 1.58 -78.5 0 1 852.88 791.81
  L 860.22 791.81
  A 0.45 0.45 0.0 0 1 860.67 792.26
  L 860.67 792.57
  A 0.52 0.52 0.0 0 1 860.26 793.08
  Q 857.58 793.67 857.54 795.50
  Q 857.39 802.79 857.89 824.48
  A 2.23 2.18 -59.6 0 0 858.13 825.44
  Q 858.91 826.96 860.54 827.33
  A 0.56 0.56 0.0 0 1 860.41 828.43
  L 849.33 828.43
  A 0.51 0.51 0.0 0 1 849.13 827.45
  L 851.27 826.54
  A 1.64 1.63 78.7 0 0 852.27 825.03
  L 852.27 799.20
  A 0.43 0.43 0.0 0 0 851.44 799.04
  L 839.28 828.27
  A 1.24 1.24 0.0 0 1 836.99 828.27
  L 824.67 799.21
  Z"
/>
<path fill="#fbf4ec" d="
  M 616.69 794.84
  A 0.68 0.68 0.0 0 1 617.36 794.15
  L 622.51 794.07
  A 7.15 6.59 -0.9 0 1 629.76 800.55
  L 629.79 802.49
  A 7.15 6.59 -0.9 0 1 622.75 809.19
  L 617.60 809.27
  A 0.68 0.68 0.0 0 1 616.91 808.60
  L 616.69 794.84
  Z"
/>
<path fill="#fbf4ec" d="
  M 451.56 795.36
  A 1.30 1.30 0.0 0 1 452.86 794.06
  L 458.21 794.09
  A 14.32 13.41 -89.7 0 1 471.55 808.48
  L 471.53 812.14
  A 14.32 13.41 -89.7 0 1 458.05 826.39
  L 452.70 826.36
  A 1.30 1.30 0.0 0 1 451.40 825.06
  L 451.56 795.36
  Z"
/>
<path fill="#fbf4ec" d="
  M 775.93 813.60
  L 781.43 800.10
  A 0.34 0.34 0.0 0 1 782.06 800.10
  L 787.60 813.58
  A 0.34 0.34 0.0 0 1 787.29 814.05
  L 776.25 814.07
  A 0.34 0.34 0.0 0 1 775.93 813.60
  Z"
/>
<path fill="#fbf4ec" d="
  M 668.29 813.55
  L 673.69 800.22
  A 0.38 0.38 0.0 0 1 674.40 800.22
  L 679.76 813.57
  A 0.38 0.38 0.0 0 1 679.40 814.09
  L 668.64 814.07
  A 0.38 0.38 0.0 0 1 668.29 813.55
  Z"
/>
<circle fill="#072353" cx="499.24" cy="825.70" r="3.34"/>
<path fill="#dca549" d="
  M 531.74 871.52
  Q 531.74 871.64 531.67 871.75
  Q 531.60 871.86 531.49 871.90
  Q 525.39 873.81 519.83 878.11
  A 3.14 3.06 89.2 0 0 519.13 878.85
  Q 514.63 885.53 512.83 893.56
  Q 512.77 893.84 512.60 893.88
  Q 511.87 894.06 511.66 893.33
  C 510.03 887.79 508.19 882.57 504.93 878.55
  A 4.57 4.42 87.9 0 0 504.14 877.79
  Q 498.79 873.77 492.59 871.84
  Q 492.36 871.77 492.36 871.45
  Q 492.36 871.14 492.59 871.07
  Q 498.80 869.16 504.16 865.16
  A 4.57 4.42 -87.7 0 0 504.96 864.40
  C 508.23 860.40 510.09 855.18 511.74 849.65
  Q 511.95 848.92 512.68 849.10
  Q 512.85 849.14 512.91 849.42
  Q 514.68 857.46 519.16 864.15
  A 3.14 3.06 -89.0 0 0 519.85 864.90
  Q 525.40 869.22 531.49 871.15
  Q 531.60 871.19 531.68 871.30
  Q 531.74 871.41 531.74 871.52
  Z"
/>
<path fill="#dca549" d="
  M 481.32 871.50
  C 481.32 871.62 481.33 871.59 481.29 871.66
  Q 480.04 873.82 478.31 874.91
  A 1.86 1.84 -59.7 0 1 477.22 875.20
  Q 463.82 874.34 452.50 874.02
  Q 399.21 872.52 349.50 872.25
  Q 347.78 872.24 165.02 871.91
  Q 163.86 871.91 163.86 871.32
  Q 163.86 870.66 165.02 870.66
  Q 347.78 870.60 349.50 870.60
  Q 399.21 870.40 452.50 868.98
  Q 463.82 868.68 477.23 867.83
  A 1.86 1.84 59.7 0 1 478.31 868.13
  Q 480.04 869.22 481.29 871.38
  C 481.33 871.45 481.32 871.42 481.32 871.50
  Z"
/>
<path fill="#dca549" d="
  M 860.52 871.34
  Q 860.52 871.93 859.36 871.93
  Q 676.59 872.22 674.87 872.23
  Q 625.16 872.49 571.87 873.98
  Q 560.54 874.30 547.14 875.15
  A 1.86 1.84 59.7 0 1 546.05 874.86
  Q 544.32 873.77 543.07 871.61
  C 543.04 871.55 543.05 871.57 543.05 871.46
  C 543.05 871.38 543.04 871.40 543.07 871.34
  Q 544.32 869.17 546.05 868.08
  A 1.86 1.84 -59.7 0 1 547.14 867.79
  Q 560.54 868.63 571.86 868.94
  Q 625.16 870.37 674.87 870.58
  Q 676.59 870.58 859.36 870.68
  Q 860.52 870.68 860.52 871.34
  Z"
/>
</svg>
